<svg width="198" height="113" viewBox="0 0 198 113" fill="none" xmlns="http://www.w3.org/2000/svg">
<g filter="url(#filter0_d_108_5)">
<rect width="182.861" height="90" transform="translate(11.615 1) rotate(4.74303)" fill="#FDF4A7"/>
<path d="M19.6924 26.7561L18.2131 26.6334L18.2862 25.8702L19.7558 25.9921C20.2619 26.0341 20.6924 25.9637 21.0472 25.7808C21.4024 25.5947 21.6802 25.3172 21.8806 24.9484C22.0846 24.5766 22.208 24.1328 22.2508 23.617L22.2867 23.184C22.3204 22.7784 22.3016 22.4143 22.2304 22.0916C22.1594 21.7656 22.0389 21.4861 21.8688 21.2531C21.6989 21.0169 21.4824 20.8308 21.2194 20.6946C20.9595 20.5587 20.6544 20.4762 20.3041 20.4472L18.708 20.3147L18.7718 19.5459L20.3679 19.6783C20.8318 19.7168 21.2487 19.8298 21.6185 20.0173C21.9887 20.2015 22.2995 20.451 22.551 20.7659C22.8061 21.0778 22.9911 21.4459 23.1061 21.8703C23.2215 22.2914 23.2579 22.7582 23.2153 23.2708L23.1802 23.6942C23.1377 24.2067 23.0247 24.6628 22.8413 25.0624C22.6582 25.4588 22.4135 25.7896 22.1073 26.0549C21.8044 26.3205 21.4485 26.5147 21.0398 26.6376C20.6347 26.7575 20.1855 26.797 19.6924 26.7561ZM19.3022 19.5899L18.7143 26.6749L17.7752 26.597L18.363 19.512L19.3022 19.5899ZM24.1541 24.5344L24.1634 24.4225C24.1949 24.0429 24.2792 23.6955 24.4164 23.3803C24.5539 23.0618 24.7364 22.7911 24.964 22.5683C25.1918 22.3422 25.4588 22.1749 25.7651 22.0664C26.0716 21.9546 26.4081 21.9139 26.7747 21.9444C27.1445 21.975 27.4714 22.0708 27.7553 22.2315C28.0427 22.3893 28.2801 22.5984 28.4676 22.859C28.6585 23.1165 28.7955 23.4137 28.8786 23.7505C28.962 24.0841 28.988 24.4406 28.9565 24.8202L28.9472 24.9321C28.9157 25.3116 28.8314 25.659 28.6941 25.9743C28.5569 26.2896 28.3728 26.5601 28.1417 26.7859C27.9142 27.0087 27.6472 27.176 27.3407 27.2878C27.0377 27.3966 26.7012 27.4356 26.3314 27.4049C25.9616 27.3742 25.6346 27.2802 25.3504 27.1226C25.0665 26.9619 24.8291 26.7528 24.6382 26.4952C24.4507 26.2347 24.3153 25.9376 24.2319 25.6041C24.1485 25.2705 24.1226 24.914 24.1541 24.5344ZM25.0636 24.4972L25.0543 24.6091C25.0325 24.8719 25.0427 25.1226 25.085 25.3613C25.1275 25.5967 25.203 25.8088 25.3115 25.9974C25.4232 26.1863 25.5688 26.3405 25.7484 26.4599C25.9282 26.5761 26.143 26.6446 26.3928 26.6653C26.6393 26.6857 26.8592 26.6534 27.0525 26.5681C27.2493 26.4799 27.4167 26.3517 27.5548 26.1835C27.6928 26.0153 27.8023 25.8186 27.883 25.5934C27.9673 25.3652 28.0203 25.1198 28.0421 24.857L28.0514 24.7451C28.0729 24.4855 28.0608 24.2379 28.015 24.0022C27.9728 23.7635 27.8958 23.5497 27.7841 23.3608C27.6759 23.1689 27.532 23.0132 27.3525 22.8938C27.1762 22.7747 26.9631 22.7047 26.7133 22.684C26.4668 22.6636 26.2451 22.6974 26.0483 22.7856C25.8548 22.8741 25.6873 23.0039 25.5457 23.1751C25.4076 23.3433 25.298 23.5416 25.217 23.7701C25.1363 23.9953 25.0851 24.2376 25.0636 24.4972ZM31.1064 23.5336L30.7628 27.6746L29.8625 27.5999L30.2994 22.3348L31.151 22.4055L31.1064 23.5336ZM30.7836 24.8248L30.4102 24.7791C30.4433 24.4193 30.5244 24.0912 30.6535 23.7949C30.7829 23.4953 30.9511 23.2398 31.1581 23.0283C31.3651 22.8168 31.6035 22.6602 31.8732 22.5585C32.1465 22.4538 32.4421 22.4146 32.76 22.441C33.0195 22.4625 33.2501 22.5176 33.4518 22.6062C33.6538 22.6915 33.8214 22.8165 33.9548 22.9811C34.0913 23.1459 34.1885 23.3532 34.2461 23.603C34.3041 23.8495 34.3186 24.1463 34.2898 24.4934L34.0036 27.9435L33.0985 27.8684L33.3856 24.4086C33.4084 24.1329 33.3862 23.9089 33.3188 23.7367C33.2517 23.5613 33.1434 23.4298 32.9939 23.3423C32.8446 23.2515 32.6565 23.1967 32.4294 23.1779C32.2055 23.1593 31.9972 23.1894 31.8045 23.2681C31.6151 23.3471 31.447 23.4638 31.3002 23.6182C31.1567 23.7729 31.0388 23.9542 30.9464 24.1621C30.8576 24.3671 30.8033 24.588 30.7836 24.8248ZM36.5118 20.6258L36.4601 21.2487C36.444 21.4433 36.3928 21.6465 36.3066 21.8582C36.224 22.0669 36.1111 22.2666 35.9679 22.4573C35.8249 22.6446 35.6581 22.8056 35.4673 22.94L34.9809 22.542C35.1512 22.3405 35.2845 22.1311 35.3809 21.9137C35.4809 21.6933 35.5417 21.4518 35.5635 21.189L35.6164 20.5516L36.5118 20.6258ZM39.618 23.108L39.5606 23.799L36.714 23.5628L36.7713 22.8718L39.618 23.108ZM37.841 21.6719L38.7412 21.7466L38.3064 26.9874C38.2916 27.1658 38.308 27.3028 38.3556 27.3982C38.4032 27.4936 38.4696 27.5595 38.5548 27.596C38.6399 27.6324 38.7328 27.6548 38.8334 27.6632C38.908 27.6694 38.9864 27.6694 39.0685 27.6631C39.1542 27.6539 39.2186 27.6462 39.2615 27.6399L39.2054 28.3751C39.1322 28.3919 39.0364 28.4052 38.918 28.4149C38.8025 28.4282 38.6637 28.4282 38.5015 28.4147C38.2809 28.3964 38.0818 28.3358 37.9042 28.2328C37.7265 28.1299 37.591 27.9717 37.4977 27.7582C37.4079 27.5416 37.3775 27.2582 37.4065 26.9079L37.841 21.6719ZM44.0521 28.7772L43.1518 28.7025L43.6347 22.8827C43.6662 22.5031 43.7609 22.1893 43.9186 21.941C44.0799 21.6898 44.2959 21.5085 44.5664 21.397C44.8373 21.2823 45.1511 21.2398 45.5079 21.2694C45.6117 21.278 45.715 21.2931 45.8178 21.3147C45.9237 21.3365 46.0259 21.3646 46.1243 21.3989L46.0147 22.1296C45.9479 22.1078 45.871 22.09 45.784 22.0762C45.7002 22.0627 45.6161 22.0525 45.5317 22.0455C45.3403 22.0296 45.1717 22.0548 45.0257 22.1211C44.8833 22.1844 44.7703 22.2861 44.6868 22.4261C44.6033 22.5662 44.5527 22.7433 44.535 22.9574L44.0521 28.7772ZM45.6081 23.605L45.5508 24.296L42.6993 24.0594L42.7566 23.3684L45.6081 23.605ZM46.1488 26.3593L46.1581 26.2474C46.1896 25.8678 46.274 25.5204 46.4112 25.2052C46.5487 24.8867 46.7312 24.616 46.9587 24.3932C47.1865 24.1671 47.4535 23.9998 47.7598 23.8913C48.0663 23.7795 48.4028 23.7389 48.7694 23.7693C49.1393 23.8 49.4661 23.8957 49.75 24.0564C50.0374 24.2142 50.2749 24.4234 50.4623 24.6839C50.6532 24.9414 50.7903 25.2386 50.8734 25.5754C50.9568 25.909 50.9827 26.2655 50.9512 26.6451L50.9419 26.757C50.9104 27.1366 50.8261 27.484 50.6889 27.7992C50.5517 28.1145 50.3675 28.385 50.1365 28.6108C49.9089 28.8337 49.6419 29.001 49.3354 29.1127C49.0324 29.2215 48.696 29.2605 48.3262 29.2299C47.9563 29.1992 47.6293 29.1051 47.3452 28.9476C47.0613 28.7868 46.8238 28.5777 46.6329 28.3201C46.4455 28.0596 46.31 27.7626 46.2267 27.429C46.1433 27.0954 46.1173 26.7389 46.1488 26.3593ZM47.0583 26.3221L47.0491 26.434C47.0273 26.6968 47.0375 26.9475 47.0797 27.1862C47.1223 27.4216 47.1978 27.6337 47.3062 27.8223C47.418 28.0113 47.5636 28.1654 47.7431 28.2849C47.9229 28.401 48.1377 28.4695 48.3875 28.4902C48.6341 28.5107 48.854 28.4783 49.0472 28.3931C49.244 28.3049 49.4114 28.1767 49.5495 28.0085C49.6876 27.8403 49.797 27.6436 49.8777 27.4184C49.962 27.1902 50.015 26.9447 50.0368 26.6819L50.0461 26.57C50.0677 26.3105 50.0555 26.0629 50.0098 25.8271C49.9675 25.5885 49.8905 25.3747 49.7788 25.1857C49.6706 24.9938 49.5267 24.8382 49.3472 24.7188C49.1709 24.5996 48.9579 24.5297 48.7081 24.5089C48.4615 24.4885 48.2399 24.5224 48.0431 24.6106C47.8496 24.699 47.682 24.8288 47.5404 25C47.4023 25.1682 47.2928 25.3665 47.2118 25.595C47.131 25.8202 47.0799 26.0626 47.0583 26.3221ZM53.1257 25.0617L52.7575 29.4995L51.8573 29.4248L52.2941 24.1597L53.17 24.2324L53.1257 25.0617ZM54.8415 24.3417L54.7672 25.1783C54.6939 25.1558 54.6234 25.1402 54.5555 25.1313C54.4912 25.1194 54.4168 25.11 54.3325 25.103C54.1249 25.0858 53.9389 25.103 53.7746 25.1547C53.6102 25.2064 53.468 25.286 53.3481 25.3937C53.2281 25.5013 53.1289 25.6335 53.0506 25.7904C52.9757 25.9442 52.9207 26.116 52.8853 26.3058L52.6202 26.4308C52.6465 26.1129 52.7021 25.817 52.7869 25.5431C52.8749 25.2695 52.9943 25.0312 53.1451 24.8281C53.2961 24.6218 53.4788 24.4671 53.6932 24.364C53.911 24.258 54.1627 24.2168 54.4482 24.2405C54.513 24.2458 54.587 24.2601 54.67 24.2834C54.7532 24.3033 54.8104 24.3228 54.8415 24.3417ZM58.985 24.7149L59.8025 24.7827L59.3749 29.9359C59.3365 30.3998 59.2095 30.7878 58.9942 31.0998C58.7789 31.4119 58.4955 31.6382 58.1441 31.7789C57.7957 31.9231 57.4025 31.9771 56.9646 31.9407C56.7829 31.9257 56.5712 31.8787 56.3295 31.7998C56.0908 31.7245 55.8587 31.6089 55.6332 31.453C55.4106 31.3006 55.2293 31.1043 55.0892 30.864L55.6056 30.3679C55.8041 30.6522 56.0191 30.8562 56.2506 30.98C56.4853 31.104 56.721 31.1758 56.9578 31.1954C57.2433 31.2191 57.4943 31.186 57.7108 31.0962C57.9273 31.0064 58.1011 30.8608 58.2321 30.6593C58.3661 30.4614 58.4458 30.2099 58.4711 29.905L58.8062 25.8661L58.985 24.7149ZM55.1365 27.105L55.145 27.0029C55.1784 26.6006 55.2557 26.2395 55.3769 25.9197C55.5017 25.5969 55.6631 25.3245 55.8612 25.1024C56.0625 24.8807 56.2966 24.7172 56.5634 24.6119C56.8304 24.5034 57.1245 24.4625 57.4457 24.4892C57.7766 24.5166 58.0604 24.599 58.2973 24.7362C58.5377 24.8705 58.7347 25.055 58.8883 25.2899C59.0455 25.5218 59.1615 25.796 59.2365 26.1125C59.3115 26.4291 59.3523 26.7836 59.359 27.1761L59.3218 27.6238C59.2541 28.0069 59.1555 28.3482 59.0262 28.6478C58.9 28.9476 58.7404 29.1989 58.5471 29.4018C58.3572 29.6048 58.1324 29.7544 57.873 29.8505C57.6138 29.9433 57.3171 29.9758 56.9829 29.9481C56.6683 29.922 56.3883 29.8318 56.1431 29.6775C55.9011 29.5235 55.6992 29.319 55.5374 29.0638C55.3757 28.8087 55.2596 28.5149 55.1892 28.1824C55.1223 27.847 55.1047 27.4878 55.1365 27.105ZM56.0452 27.0775L56.0367 27.1797C56.0149 27.4425 56.0204 27.6912 56.0532 27.9258C56.0893 28.1607 56.1552 28.3704 56.2509 28.5547C56.3499 28.7393 56.4828 28.8891 56.6497 29.0042C56.8168 29.1161 57.022 29.1821 57.2653 29.2023C57.5638 29.2271 57.8155 29.1843 58.0207 29.0739C58.2258 28.9635 58.3938 28.8092 58.5246 28.611C58.6586 28.4131 58.7681 28.1952 58.8532 27.9573L58.9505 26.7845C58.9296 26.6032 58.8887 26.4266 58.8278 26.255C58.7705 26.0804 58.6888 25.9234 58.5827 25.7839C58.4802 25.6415 58.3479 25.5243 58.1856 25.4325C58.0234 25.3406 57.8287 25.2853 57.6017 25.2664C57.3551 25.246 57.1383 25.2803 56.9513 25.3693C56.7678 25.4553 56.6118 25.5828 56.4835 25.7518C56.3586 25.9179 56.259 26.1154 56.1844 26.3444C56.1134 26.5704 56.067 26.8148 56.0452 27.0775ZM62.9098 30.4399C62.5433 30.4095 62.2159 30.3202 61.9276 30.1722C61.6429 30.0212 61.4029 29.8233 61.2077 29.5784C61.0156 29.3338 60.8758 29.0511 60.7881 28.7303C60.7004 28.4094 60.6719 28.0641 60.7025 27.6943L60.7195 27.4899C60.755 27.0617 60.8499 26.6857 61.0042 26.3621C61.1587 26.0352 61.3543 25.764 61.591 25.5485C61.8278 25.3329 62.089 25.1766 62.3747 25.0794C62.6604 24.9823 62.9508 24.9459 63.2461 24.9704C63.6224 25.0017 63.9414 25.0935 64.2031 25.2458C64.4681 25.3985 64.6785 25.5988 64.8343 25.8469C64.9904 26.0918 65.0975 26.3751 65.1557 26.6968C65.2143 27.0152 65.2282 27.3593 65.1975 27.7291L65.164 28.133L61.2322 27.8068L61.2931 27.072L64.3247 27.3235L64.3304 27.2554C64.3368 27.0208 64.3069 26.7896 64.2409 26.5621C64.1781 26.3347 64.0634 26.1423 63.8968 25.9848C63.7303 25.8272 63.4929 25.7357 63.1847 25.7101C62.9803 25.6931 62.7885 25.7213 62.6093 25.7946C62.4304 25.8647 62.2723 25.979 62.135 26.1374C61.9977 26.2959 61.8849 26.494 61.7966 26.7316C61.7083 26.9693 61.651 27.2471 61.6246 27.565L61.6076 27.7693C61.5869 28.0191 61.6015 28.2572 61.6513 28.4834C61.7046 28.7067 61.7909 28.9066 61.9102 29.083C62.0327 29.2598 62.1858 29.4032 62.3694 29.5131C62.5562 29.6233 62.7729 29.6887 63.0195 29.7091C63.3374 29.7355 63.612 29.693 63.8434 29.5815C64.0747 29.4701 64.2822 29.3125 64.4656 29.1089L64.9747 29.5872C64.8469 29.7497 64.689 29.9016 64.5009 30.0427C64.3128 30.1839 64.0865 30.2925 63.8222 30.3686C63.5611 30.4449 63.257 30.4687 62.9098 30.4399ZM68.6588 25.5175L68.6015 26.2085L65.7548 25.9723L65.8121 25.2813L68.6588 25.5175ZM66.8818 24.0815L67.782 24.1562L67.3472 29.397C67.3324 29.5754 67.3488 29.7123 67.3964 29.8077C67.444 29.9031 67.5104 29.9691 67.5956 30.0055C67.6808 30.042 67.7736 30.0644 67.8742 30.0727C67.9488 30.0789 68.0272 30.0789 68.1094 30.0727C68.1951 30.0634 68.2594 30.0557 68.3024 30.0495L68.2463 30.7847C68.173 30.8014 68.0772 30.8147 67.9588 30.8245C67.8434 30.8378 67.7046 30.8377 67.5424 30.8242C67.3218 30.8059 67.1226 30.7453 66.945 30.6424C66.7674 30.5395 66.6319 30.3812 66.5385 30.1677C66.4487 29.9512 66.4183 29.6678 66.4474 29.3174L66.8818 24.0815ZM74.3911 25.9931L74.3337 26.6841L71.4871 26.4479L71.5444 25.7569L74.3911 25.9931ZM72.6141 24.5571L73.5143 24.6318L73.0795 29.8726C73.0647 30.051 73.0811 30.1879 73.1287 30.2833C73.1763 30.3787 73.2427 30.4447 73.3278 30.4811C73.413 30.5176 73.5059 30.54 73.6064 30.5484C73.6811 30.5545 73.7595 30.5545 73.8416 30.5483C73.9273 30.539 73.9917 30.5313 74.0346 30.5251L73.9785 31.2603C73.9053 31.2771 73.8095 31.2903 73.6911 31.3001C73.5756 31.3134 73.4368 31.3133 73.2746 31.2999C73.054 31.2816 72.8549 31.2209 72.6773 31.118C72.4996 31.0151 72.3641 30.8568 72.2708 30.6433C72.1809 30.4268 72.1506 30.1434 72.1796 29.793L72.6141 24.5571ZM74.888 28.7438L74.8973 28.6319C74.9287 28.2524 75.0131 27.905 75.1503 27.5897C75.2878 27.2712 75.4703 27.0005 75.6978 26.7777C75.9257 26.5516 76.1927 26.3843 76.4989 26.2758C76.8054 26.1641 77.142 26.1234 77.5086 26.1538C77.8784 26.1845 78.2053 26.2802 78.4892 26.441C78.7766 26.5987 79.014 26.8079 79.2014 27.0684C79.3924 27.326 79.5294 27.6231 79.6125 27.9599C79.6959 28.2935 79.7218 28.6501 79.6904 29.0296L79.6811 29.1415C79.6496 29.5211 79.5652 29.8685 79.428 30.1837C79.2908 30.499 79.1067 30.7695 78.8756 30.9953C78.6481 31.2182 78.381 31.3855 78.0745 31.4972C77.7715 31.606 77.4351 31.6451 77.0653 31.6144C76.6955 31.5837 76.3685 31.4896 76.0843 31.3321C75.8004 31.1714 75.563 30.9622 75.372 30.7046C75.1846 30.4441 75.0492 30.1471 74.9658 29.8135C74.8824 29.48 74.8565 29.1234 74.888 28.7438ZM75.7975 28.7066L75.7882 28.8185C75.7664 29.0813 75.7766 29.332 75.8189 29.5707C75.8614 29.8062 75.9369 30.0182 76.0454 30.2069C76.1571 30.3958 76.3027 30.55 76.4823 30.6694C76.6621 30.7856 76.8769 30.854 77.1267 30.8747C77.3732 30.8952 77.5931 30.8628 77.7864 30.7776C77.9831 30.6894 78.1506 30.5612 78.2886 30.393C78.4267 30.2248 78.5361 30.0281 78.6169 29.8029C78.7011 29.5747 78.7542 29.3292 78.776 29.0664L78.7853 28.9545C78.8068 28.695 78.7947 28.4474 78.7489 28.2117C78.7066 27.973 78.6297 27.7592 78.5179 27.5702C78.4097 27.3784 78.2659 27.2227 78.0863 27.1033C77.91 26.9841 77.697 26.9142 77.4472 26.8935C77.2006 26.873 76.979 26.9069 76.7822 26.9951C76.5887 27.0835 76.4211 27.2134 76.2795 27.3845C76.1415 27.5527 76.0319 27.751 75.9509 27.9795C75.8702 28.2047 75.819 28.4471 75.7975 28.7066ZM86.3907 31.0652L86.7266 27.0166L87.6317 27.0917L87.1948 32.3568L86.3335 32.2854L86.3907 31.0652ZM86.6531 29.9699L87.0285 29.9912C86.9995 30.3416 86.9353 30.6629 86.8359 30.9552C86.74 31.2445 86.602 31.4911 86.4217 31.6949C86.2415 31.8988 86.0149 32.0515 85.7419 32.153C85.4692 32.2512 85.1446 32.2847 84.7683 32.2535C84.512 32.2322 84.2799 32.1754 84.072 32.083C83.8673 31.9909 83.6952 31.8607 83.5557 31.6923C83.4161 31.524 83.3146 31.3114 83.2509 31.0546C83.1906 30.7981 83.1749 30.4946 83.204 30.1443L83.4858 26.7477L84.386 26.8224L84.1034 30.2287C84.0837 30.4655 84.0934 30.6639 84.1324 30.824C84.1749 30.981 84.2378 31.1087 84.3211 31.2071C84.4079 31.3025 84.5066 31.3727 84.6172 31.4178C84.731 31.4632 84.8496 31.491 84.9728 31.5012C85.3556 31.533 85.665 31.4852 85.901 31.3578C86.1372 31.2271 86.3143 31.0409 86.4324 30.7992C86.5539 30.5545 86.6275 30.2781 86.6531 29.9699ZM91.7486 31.3285C91.7594 31.1987 91.7401 31.0763 91.6909 30.9611C91.6452 30.843 91.5385 30.7313 91.3708 30.6259C91.2067 30.5176 90.9539 30.4149 90.6124 30.318C90.3256 30.2321 90.0673 30.1372 89.8374 30.0332C89.6109 29.9295 89.4198 29.8107 89.2643 29.677C89.1121 29.5435 88.9989 29.392 88.9248 29.2225C88.8506 29.0531 88.8226 28.8597 88.8406 28.6423C88.8579 28.4347 88.9196 28.2422 89.0257 28.0648C89.1352 27.8877 89.2801 27.7348 89.4607 27.6061C89.6444 27.4776 89.8597 27.3828 90.1065 27.3216C90.3533 27.2604 90.6243 27.242 90.9195 27.2665C91.3412 27.3015 91.6951 27.406 91.9812 27.58C92.2673 27.754 92.4794 27.9725 92.6177 28.2355C92.7562 28.4952 92.8129 28.7759 92.7879 29.0776L91.8877 29.0029C91.8998 28.8569 91.8677 28.7122 91.7914 28.5687C91.7186 28.4222 91.6033 28.2967 91.4454 28.1921C91.2907 28.0878 91.095 28.0258 90.8581 28.0062C90.6084 27.9855 90.4024 28.0076 90.2402 28.0725C90.0815 28.1345 89.9617 28.2209 89.8806 28.3317C89.8028 28.4429 89.7585 28.5633 89.7477 28.6931C89.7397 28.7904 89.7486 28.8793 89.7746 28.9599C89.8041 29.0375 89.8599 29.1123 89.9422 29.1845C90.0246 29.2534 90.1431 29.322 90.2974 29.3903C90.4518 29.4587 90.65 29.5306 90.892 29.6063C91.3154 29.7394 91.6609 29.8856 91.9286 30.045C92.1963 30.2044 92.39 30.3887 92.5099 30.5979C92.6297 30.8071 92.6779 31.0528 92.6545 31.3351C92.6354 31.5654 92.5692 31.7722 92.456 31.9555C92.346 32.1391 92.1944 32.2931 92.0012 32.4176C91.8115 32.539 91.5885 32.6283 91.3322 32.6854C91.0795 32.7396 90.799 32.7539 90.4908 32.7283C90.0269 32.6898 89.6413 32.5745 89.3338 32.3824C89.0264 32.1903 88.8009 31.956 88.6572 31.6795C88.5136 31.403 88.4539 31.1188 88.4781 30.8269L89.3832 30.9019C89.3757 31.1496 89.4308 31.3518 89.5484 31.5085C89.6664 31.662 89.8168 31.7774 89.9999 31.8546C90.1832 31.9286 90.3673 31.9733 90.5522 31.9887C90.7988 32.0091 91.0075 31.9938 91.1783 31.9426C91.3524 31.8917 91.4879 31.8131 91.5849 31.7069C91.6819 31.6006 91.7365 31.4745 91.7486 31.3285ZM95.8922 33.1765C95.5256 33.146 95.1982 33.0568 94.91 32.9088C94.6253 32.7578 94.3853 32.5598 94.19 32.315C93.998 32.0704 93.8581 31.7877 93.7704 31.4668C93.6827 31.146 93.6542 30.8007 93.6849 30.4308L93.7019 30.2265C93.7374 29.7982 93.8323 29.4223 93.9865 29.0987C94.141 28.7718 94.3367 28.5006 94.5734 28.285C94.8101 28.0695 95.0713 27.9132 95.3571 27.816C95.6428 27.7189 95.9332 27.6825 96.2284 27.707C96.6047 27.7382 96.9238 27.83 97.1855 27.9824C97.4505 28.1351 97.6609 28.3354 97.8167 28.5835C97.9727 28.8284 98.0799 29.1117 98.1381 29.4333C98.1966 29.7518 98.2105 30.0959 98.1798 30.4657L98.1463 30.8696L94.2145 30.5434L94.2755 29.8086L97.3071 30.0601L97.3127 29.992C97.3191 29.7574 97.2893 29.5262 97.2233 29.2986C97.1605 29.0713 97.0458 28.8789 96.8792 28.7213C96.7126 28.5638 96.4752 28.4722 96.1671 28.4467C95.9627 28.4297 95.7709 28.4579 95.5917 28.5312C95.4128 28.6013 95.2546 28.7156 95.1174 28.874C94.9801 29.0325 94.8673 29.2305 94.779 29.4682C94.6907 29.7059 94.6333 29.9836 94.607 30.3016L94.59 30.5059C94.5693 30.7557 94.5838 30.9937 94.6337 31.22C94.687 31.4433 94.7733 31.6431 94.8926 31.8196C95.0151 31.9964 95.1682 32.1397 95.3518 32.2497C95.5386 32.3599 95.7553 32.4253 96.0018 32.4457C96.3198 32.4721 96.5944 32.4296 96.8258 32.3181C97.0571 32.2066 97.2645 32.0491 97.448 31.8455L97.9571 32.3238C97.8293 32.4863 97.6713 32.6381 97.4832 32.7793C97.2951 32.9205 97.0689 33.0291 96.8045 33.1052C96.5434 33.1815 96.2393 33.2053 95.8922 33.1765ZM104.113 28.4592L104.056 29.1502L101.209 28.914L101.266 28.223L104.113 28.4592ZM102.336 27.0232L103.236 27.0979L102.802 32.3387C102.787 32.5171 102.803 32.654 102.851 32.7494C102.898 32.8448 102.965 32.9108 103.05 32.9472C103.135 32.9837 103.228 33.0061 103.329 33.0144C103.403 33.0206 103.482 33.0206 103.564 33.0143C103.649 33.0051 103.714 32.9974 103.757 32.9912L103.701 33.7263C103.627 33.7431 103.532 33.7564 103.413 33.7662C103.298 33.7795 103.159 33.7794 102.997 33.7659C102.776 33.7476 102.577 33.687 102.399 33.5841C102.222 33.4811 102.086 33.3229 101.993 33.1094C101.903 32.8929 101.873 32.6095 101.902 32.2591L102.336 27.0232ZM106.253 26.4123L105.632 33.8866L104.732 33.8119L105.352 26.3376L106.253 26.4123ZM105.653 31.0368L105.28 30.9911C105.313 30.6313 105.394 30.3032 105.523 30.0069C105.653 29.7073 105.821 29.4518 106.028 29.2403C106.235 29.0288 106.473 28.8722 106.743 28.7705C107.016 28.6658 107.312 28.6266 107.63 28.653C107.889 28.6745 108.12 28.7296 108.322 28.8182C108.523 28.9035 108.691 29.0285 108.824 29.1931C108.961 29.3579 109.058 29.5653 109.116 29.815C109.174 30.0615 109.188 30.3584 109.16 30.7055L108.873 34.1555L107.968 34.0804L108.255 30.6206C108.278 30.3449 108.256 30.1209 108.189 29.9488C108.121 29.7733 108.013 29.6419 107.864 29.5543C107.714 29.4635 107.526 29.4087 107.299 29.3899C107.075 29.3713 106.867 29.4014 106.674 29.4801C106.485 29.5591 106.317 29.6759 106.17 29.8303C106.026 29.9849 105.908 30.1662 105.816 30.3742C105.727 30.5791 105.673 30.8 105.653 31.0368ZM112.398 34.546C112.031 34.5156 111.704 34.4263 111.416 34.2783C111.131 34.1273 110.891 33.9293 110.696 33.6845C110.504 33.4399 110.364 33.1572 110.276 32.8364C110.189 32.5155 110.16 32.1702 110.191 31.8003L110.208 31.596C110.243 31.1677 110.338 30.7918 110.492 30.4682C110.647 30.1413 110.842 29.8701 111.079 29.6545C111.316 29.439 111.577 29.2827 111.863 29.1855C112.149 29.0884 112.439 29.052 112.734 29.0765C113.111 29.1077 113.43 29.1995 113.691 29.3519C113.956 29.5046 114.167 29.7049 114.322 29.953C114.479 30.1979 114.586 30.4812 114.644 30.8028C114.702 31.1213 114.716 31.4654 114.686 31.8352L114.652 32.2391L110.72 31.9129L110.781 31.1781L113.813 31.4296L113.819 31.3615C113.825 31.1269 113.795 30.8957 113.729 30.6681C113.666 30.4408 113.552 30.2484 113.385 30.0908C113.218 29.9333 112.981 29.8417 112.673 29.8162C112.468 29.7992 112.277 29.8274 112.097 29.9007C111.919 29.9708 111.76 30.0851 111.623 30.2435C111.486 30.402 111.373 30.6001 111.285 30.8377C111.196 31.0754 111.139 31.3531 111.113 31.6711L111.096 31.8754C111.075 32.1252 111.09 32.3632 111.139 32.5895C111.193 32.8128 111.279 33.0127 111.398 33.1891C111.521 33.3659 111.674 33.5092 111.858 33.6192C112.044 33.7294 112.261 33.7948 112.508 33.8152C112.826 33.8416 113.1 33.7991 113.332 33.6876C113.563 33.5761 113.77 33.4186 113.954 33.215L114.463 33.6933C114.335 33.8558 114.177 34.0076 113.989 34.1488C113.801 34.29 113.575 34.3986 113.31 34.4747C113.049 34.551 112.745 34.5748 112.398 34.546ZM118.687 33.5636C118.698 33.4339 118.679 33.3114 118.63 33.1963C118.584 33.0781 118.477 32.9664 118.31 32.861C118.145 32.7527 117.893 32.6501 117.551 32.5531C117.264 32.4673 117.006 32.3723 116.776 32.2683C116.55 32.1646 116.359 32.0459 116.203 31.9121C116.051 31.7786 115.938 31.6272 115.863 31.4577C115.789 31.2882 115.761 31.0948 115.779 30.8774C115.797 30.6698 115.858 30.4773 115.964 30.3C116.074 30.1229 116.219 29.9699 116.399 29.8412C116.583 29.7127 116.798 29.6179 117.045 29.5567C117.292 29.4955 117.563 29.4772 117.858 29.5017C118.28 29.5367 118.634 29.6411 118.92 29.8151C119.206 29.9891 119.418 30.2076 119.556 30.4706C119.695 30.7303 119.752 31.0111 119.727 31.3127L118.826 31.2381C118.838 31.0921 118.806 30.9473 118.73 30.8038C118.657 30.6573 118.542 30.5318 118.384 30.4272C118.229 30.3229 118.034 30.261 117.797 30.2413C117.547 30.2206 117.341 30.2427 117.179 30.3076C117.02 30.3696 116.9 30.456 116.819 30.5669C116.741 30.678 116.697 30.7985 116.686 30.9282C116.678 31.0255 116.687 31.1145 116.713 31.195C116.743 31.2726 116.799 31.3475 116.881 31.4196C116.963 31.4885 117.082 31.5571 117.236 31.6255C117.391 31.6938 117.589 31.7658 117.831 31.8414C118.254 31.9745 118.6 32.1208 118.867 32.2802C119.135 32.4396 119.329 32.6239 119.449 32.8331C119.568 33.0422 119.617 33.288 119.593 33.5702C119.574 33.8005 119.508 34.0073 119.395 34.1907C119.285 34.3743 119.133 34.5283 118.94 34.6527C118.75 34.7741 118.527 34.8634 118.271 34.9206C118.018 34.9747 117.738 34.989 117.43 34.9634C116.966 34.9249 116.58 34.8097 116.273 34.6176C115.965 34.4255 115.74 34.1912 115.596 33.9147C115.452 33.6382 115.393 33.3539 115.417 33.062L116.322 33.1371C116.314 33.3847 116.369 33.5869 116.487 33.7436C116.605 33.8971 116.756 34.0125 116.939 34.0898C117.122 34.1638 117.306 34.2085 117.491 34.2238C117.737 34.2442 117.946 34.2289 118.117 34.1777C118.291 34.1269 118.427 34.0483 118.524 33.942C118.621 33.8357 118.675 33.7096 118.687 33.5636ZM122.831 35.4116C122.464 35.3812 122.137 35.292 121.849 35.1439C121.564 34.9929 121.324 34.795 121.129 34.5501C120.937 34.3055 120.797 34.0228 120.709 33.702C120.621 33.3811 120.593 33.0358 120.624 32.666L120.641 32.4616C120.676 32.0334 120.771 31.6574 120.925 31.3338C121.08 31.0069 121.275 30.7357 121.512 30.5202C121.749 30.3046 122.01 30.1483 122.296 30.0511C122.581 29.954 122.872 29.9177 123.167 29.9422C123.543 29.9734 123.862 30.0652 124.124 30.2175C124.389 30.3702 124.6 30.5706 124.755 30.8187C124.911 31.0635 125.019 31.3468 125.077 31.6685C125.135 31.9869 125.149 32.331 125.119 32.7008L125.085 33.1047L121.153 32.7785L121.214 32.0437L124.246 32.2953L124.251 32.2271C124.258 31.9925 124.228 31.7614 124.162 31.5338C124.099 31.3064 123.984 31.114 123.818 30.9565C123.651 30.7989 123.414 30.7074 123.106 30.6818C122.901 30.6648 122.71 30.693 122.53 30.7663C122.351 30.8364 122.193 30.9507 122.056 31.1092C121.919 31.2676 121.806 31.4657 121.718 31.7033C121.629 31.941 121.572 32.2188 121.546 32.5367L121.529 32.7411C121.508 32.9909 121.523 33.2289 121.572 33.4551C121.626 33.6784 121.712 33.8783 121.831 34.0548C121.954 34.2315 122.107 34.3749 122.29 34.4848C122.477 34.5951 122.694 34.6604 122.941 34.6809C123.258 34.7072 123.533 34.6647 123.764 34.5532C123.996 34.4418 124.203 34.2842 124.387 34.0806L124.896 34.5589C124.768 34.7214 124.61 34.8733 124.422 35.0144C124.234 35.1556 124.008 35.2642 123.743 35.3403C123.482 35.4166 123.178 35.4404 122.831 35.4116ZM129.821 34.9529L131.534 30.7343L132.127 30.7836L131.939 31.6352L130.196 35.9247L129.617 35.8767L129.821 34.9529ZM129.271 30.5466L130.061 35.0217L130.07 35.9142L129.462 35.8638L128.371 30.4719L129.271 30.5466ZM133.061 35.2364L134.521 30.9822L135.417 31.0565L133.452 36.1948L132.849 36.1448L133.061 35.2364ZM132.259 30.7945L133.229 35.1621L133.296 36.1819L132.722 36.1343L131.672 31.6032L131.626 30.742L132.259 30.7945ZM137.425 28.9987L136.805 36.473L135.904 36.3983L136.525 28.924L137.425 28.9987ZM136.826 33.6232L136.452 33.5775C136.485 33.2177 136.566 32.8896 136.695 32.5933C136.825 32.2937 136.993 32.0382 137.2 31.8267C137.407 31.6152 137.645 31.4586 137.915 31.3569C138.188 31.2522 138.484 31.213 138.802 31.2394C139.061 31.2609 139.292 31.316 139.494 31.4046C139.696 31.4899 139.863 31.6149 139.997 31.7795C140.133 31.9443 140.23 32.1516 140.288 32.4014C140.346 32.6479 140.361 32.9447 140.332 33.2919L140.045 36.7419L139.14 36.6668L139.427 33.207C139.45 32.9313 139.428 32.7073 139.361 32.5351C139.294 32.3597 139.185 32.2283 139.036 32.1407C138.886 32.0499 138.698 31.9951 138.471 31.9763C138.247 31.9577 138.039 31.9878 137.846 32.0665C137.657 32.1455 137.489 32.2622 137.342 32.4167C137.199 32.5713 137.081 32.7526 136.988 32.9606C136.899 33.1655 136.845 33.3864 136.826 33.6232ZM143.57 37.1324C143.204 37.1019 142.876 37.0127 142.588 36.8647C142.303 36.7137 142.063 36.5157 141.868 36.2709C141.676 36.0263 141.536 35.7436 141.448 35.4227C141.361 35.1019 141.332 34.7566 141.363 34.3867L141.38 34.1824C141.415 33.7541 141.51 33.3782 141.664 33.0546C141.819 32.7277 142.015 32.4565 142.251 32.2409C142.488 32.0254 142.749 31.8691 143.035 31.7719C143.321 31.6747 143.611 31.6384 143.906 31.6629C144.283 31.6941 144.602 31.7859 144.863 31.9383C145.128 32.0909 145.339 32.2913 145.495 32.5394C145.651 32.7843 145.758 33.0676 145.816 33.3892C145.875 33.7077 145.888 34.0518 145.858 34.4216L145.824 34.8255L141.893 34.4993L141.953 33.7645L144.985 34.016L144.991 33.9479C144.997 33.7132 144.967 33.4821 144.901 33.2545C144.838 33.0272 144.724 32.8348 144.557 32.6772C144.391 32.5197 144.153 32.4281 143.845 32.4026C143.641 32.3856 143.449 32.4138 143.27 32.4871C143.091 32.5572 142.933 32.6715 142.795 32.8299C142.658 32.9884 142.545 33.1864 142.457 33.4241C142.369 33.6617 142.311 33.9395 142.285 34.2575L142.268 34.4618C142.247 34.7116 142.262 34.9496 142.312 35.1759C142.365 35.3992 142.451 35.599 142.571 35.7755C142.693 35.9523 142.846 36.0956 143.03 36.2056C143.217 36.3158 143.433 36.3812 143.68 36.4016C143.998 36.428 144.272 36.3855 144.504 36.274C144.735 36.1625 144.943 36.005 145.126 35.8014L145.635 36.2797C145.507 36.4422 145.349 36.594 145.161 36.7352C144.973 36.8764 144.747 36.985 144.483 37.0611C144.221 37.1374 143.917 37.1612 143.57 37.1324ZM147.922 33.2259L147.578 37.3669L146.678 37.2922L147.115 32.0271L147.966 32.0978L147.922 33.2259ZM147.599 34.5171L147.226 34.4714C147.259 34.1116 147.34 33.7835 147.469 33.4872C147.598 33.1876 147.766 32.9321 147.973 32.7206C148.18 32.5091 148.419 32.3525 148.689 32.2508C148.962 32.1461 149.257 32.1069 149.575 32.1333C149.835 32.1548 150.066 32.2099 150.267 32.2985C150.469 32.3838 150.637 32.5088 150.77 32.6734C150.907 32.8382 151.004 33.0455 151.062 33.2953C151.119 33.5418 151.134 33.8386 151.105 34.1858L150.819 37.6358L149.914 37.5607L150.201 34.1009C150.224 33.8252 150.202 33.6012 150.134 33.429C150.067 33.2536 149.959 33.1221 149.809 33.0346C149.66 32.9438 149.472 32.889 149.245 32.8702C149.021 32.8516 148.813 32.8817 148.62 32.9604C148.43 33.0394 148.262 33.1561 148.116 33.3105C147.972 33.4652 147.854 33.6465 147.762 33.8544C147.673 34.0594 147.619 34.2803 147.599 34.5171ZM156.183 37.5321L158.039 32.9335L159.003 33.0135L156.387 38.916C156.327 39.0417 156.251 39.1758 156.157 39.3183C156.067 39.4643 155.954 39.6003 155.82 39.7264C155.685 39.8524 155.527 39.9503 155.344 40.0201C155.165 40.0934 154.956 40.1201 154.715 40.1002C154.644 40.0943 154.554 40.077 154.445 40.0484C154.337 40.0198 154.26 39.9971 154.216 39.9804L154.272 39.2501C154.297 39.2555 154.338 39.2621 154.392 39.2699C154.45 39.2812 154.491 39.2878 154.513 39.2897C154.718 39.3067 154.893 39.2935 155.041 39.2502C155.188 39.2101 155.315 39.1309 155.423 39.0124C155.534 38.8975 155.634 38.7343 155.723 38.5229L156.183 37.5321ZM155.499 32.7228L156.527 36.9237L156.682 37.892L156.007 38.1692L154.516 32.6412L155.499 32.7228ZM159.276 35.7456L159.285 35.6337C159.317 35.2541 159.401 34.9067 159.538 34.5915C159.676 34.273 159.858 34.0023 160.086 33.7795C160.313 33.5534 160.58 33.3861 160.887 33.2776C161.193 33.1658 161.53 33.1251 161.896 33.1556C162.266 33.1862 162.593 33.282 162.877 33.4427C163.164 33.6005 163.402 33.8096 163.589 34.0702C163.78 34.3277 163.917 34.6249 164 34.9617C164.084 35.2952 164.11 35.6518 164.078 36.0314L164.069 36.1433C164.037 36.5228 163.953 36.8702 163.816 37.1855C163.679 37.5007 163.494 37.7713 163.263 37.9971C163.036 38.2199 162.769 38.3872 162.462 38.499C162.159 38.6078 161.823 38.6468 161.453 38.6161C161.083 38.5854 160.756 38.4913 160.472 38.3338C160.188 38.1731 159.951 37.9639 159.76 37.7064C159.572 37.4459 159.437 37.1488 159.354 36.8153C159.27 36.4817 159.244 36.1251 159.276 35.7456ZM160.185 35.7084L160.176 35.8203C160.154 36.0831 160.164 36.3338 160.207 36.5725C160.249 36.8079 160.325 37.02 160.433 37.2086C160.545 37.3975 160.69 37.5517 160.87 37.6711C161.05 37.7873 161.265 37.8557 161.514 37.8765C161.761 37.8969 161.981 37.8645 162.174 37.7793C162.371 37.6911 162.538 37.5629 162.676 37.3947C162.814 37.2265 162.924 37.0298 163.005 36.8046C163.089 36.5764 163.142 36.331 163.164 36.0682L163.173 35.9563C163.195 35.6967 163.182 35.4491 163.137 35.2134C163.094 34.9747 163.017 34.7609 162.906 34.572C162.798 34.3801 162.654 34.2244 162.474 34.105C162.298 33.9859 162.085 33.9159 161.835 33.8952C161.588 33.8747 161.367 33.9086 161.17 33.9968C160.976 34.0853 160.809 34.2151 160.667 34.3863C160.529 34.5545 160.42 34.7528 160.339 34.9813C160.258 35.2065 160.207 35.4488 160.185 35.7084ZM168.306 37.8619L168.642 33.8133L169.547 33.8884L169.111 39.1535L168.249 39.082L168.306 37.8619ZM168.569 36.7665L168.944 36.7879C168.915 37.1382 168.851 37.4596 168.752 37.7518C168.656 38.0411 168.518 38.2877 168.338 38.4916C168.157 38.6955 167.931 38.8482 167.658 38.9496C167.385 39.0479 167.06 39.0814 166.684 39.0501C166.428 39.0289 166.196 38.9721 165.988 38.8797C165.783 38.7876 165.611 38.6573 165.471 38.489C165.332 38.3206 165.23 38.108 165.167 37.8512C165.106 37.5947 165.091 37.2913 165.12 36.9409L165.402 33.5444L166.302 33.6191L166.019 37.0253C166 37.2622 166.009 37.4606 166.048 37.6206C166.091 37.7776 166.154 37.9054 166.237 38.0037C166.324 38.0991 166.422 38.1694 166.533 38.2145C166.647 38.2599 166.765 38.2877 166.889 38.2979C167.271 38.3296 167.581 38.2818 167.817 38.1544C168.053 38.0238 168.23 37.8376 168.348 37.5958C168.47 37.3512 168.543 37.0747 168.569 36.7665ZM17.7268 41.7073L19.4389 37.4887L20.0325 37.5379L19.8443 38.3895L18.1018 42.6791L17.5227 42.631L17.7268 41.7073ZM17.1761 37.3009L17.966 41.7761L17.9753 42.6686L17.367 42.6181L16.2759 37.2262L17.1761 37.3009ZM20.9664 41.9907L22.4267 37.7366L23.322 37.8109L21.3572 42.9492L20.7538 42.8991L20.9664 41.9907ZM20.1639 37.5488L21.1342 41.9165L21.2015 42.9363L20.6273 42.8886L19.5775 38.3576L19.5313 37.4963L20.1639 37.5488ZM26.989 42.51L27.2139 39.7996C27.2311 39.592 27.2039 39.4085 27.1322 39.249C27.064 39.0866 26.9507 38.9563 26.7922 38.8582C26.6338 38.7602 26.4329 38.701 26.1896 38.6808C25.9625 38.662 25.7598 38.6844 25.5814 38.748C25.4062 38.8118 25.2647 38.903 25.1569 39.0214C25.0523 39.1401 24.994 39.2725 24.9819 39.4185L24.0817 39.3438C24.0973 39.1556 24.1614 38.9731 24.2741 38.7963C24.3867 38.6194 24.5401 38.4639 24.7341 38.3298C24.9317 38.1927 25.1623 38.0909 25.4258 38.0246C25.6929 37.9553 25.9854 37.9339 26.3033 37.9602C26.6861 37.992 27.0181 38.0849 27.2993 38.2389C27.5837 38.3931 27.7978 38.6085 27.9414 38.885C28.0886 39.1585 28.1458 39.4915 28.1133 39.8841L27.9098 42.3366C27.8953 42.5118 27.8944 42.6995 27.9072 42.8998C27.9232 43.1004 27.9561 43.2746 28.0059 43.4225L27.9994 43.5003L27.0603 43.4224C27.0235 43.3148 26.9992 43.174 26.9875 42.9999C26.9761 42.8226 26.9766 42.6593 26.989 42.51ZM27.3349 40.231L27.2921 40.8644L26.3821 40.7889C26.1259 40.7677 25.8954 40.7698 25.6908 40.7953C25.4864 40.8175 25.3127 40.8635 25.1698 40.9333C25.0268 41.0031 24.9145 41.0967 24.8329 41.214C24.7516 41.3282 24.7042 41.4663 24.6907 41.6285C24.677 41.794 24.7018 41.9479 24.7651 42.0903C24.8284 42.2328 24.9313 42.3508 25.0738 42.4442C25.2198 42.5347 25.4031 42.5892 25.6237 42.6075C25.8995 42.6303 26.1476 42.5921 26.3682 42.4928C26.5887 42.3935 26.7676 42.2647 26.9049 42.1062C27.0454 41.948 27.1271 41.7898 27.15 41.6317L27.4985 42.0967C27.4645 42.231 27.3904 42.3768 27.2761 42.5339C27.1618 42.691 27.014 42.8388 26.8326 42.9772C26.6548 43.1127 26.4465 43.2212 26.2079 43.3027C25.9727 43.3811 25.7124 43.4085 25.4269 43.3849C25.0701 43.3553 24.7628 43.2595 24.5051 43.0977C24.2507 42.9361 24.0585 42.7324 23.9287 42.4864C23.8024 42.2375 23.7513 41.967 23.7755 41.6751C23.7989 41.3928 23.8747 41.1492 24.0027 40.9443C24.1311 40.7361 24.305 40.5692 24.5244 40.4437C24.7442 40.315 25.0031 40.2254 25.3013 40.175C25.5994 40.1246 25.9286 40.1144 26.2886 40.1442L27.3349 40.231ZM30.4744 39.5361L30.1308 43.6772L29.2305 43.6025L29.6674 38.3373L30.519 38.408L30.4744 39.5361ZM30.1516 40.8273L29.7782 40.7816C29.8113 40.4218 29.8924 40.0937 30.0215 39.7974C30.1509 39.4978 30.3191 39.2423 30.5261 39.0308C30.7331 38.8194 30.9715 38.6628 31.2412 38.561C31.5145 38.4563 31.8101 38.4171 32.128 38.4435C32.3875 38.465 32.6181 38.5201 32.8198 38.6087C33.0218 38.6941 33.1894 38.819 33.3228 38.9836C33.4593 39.1485 33.5565 39.3558 33.6141 39.6055C33.6721 39.8521 33.6866 40.1489 33.6578 40.496L33.3716 43.946L32.4665 43.8709L32.7536 40.4112C32.7764 40.1354 32.7542 39.9115 32.6868 39.7393C32.6197 39.5639 32.5114 39.4324 32.3619 39.3448C32.2126 39.2541 32.0244 39.1993 31.7974 39.1804C31.5735 39.1618 31.3652 39.1919 31.1725 39.2707C30.9831 39.3497 30.8149 39.4664 30.6682 39.6208C30.5247 39.7755 30.4068 39.9568 30.3144 40.1647C30.2255 40.3696 30.1713 40.5905 30.1516 40.8273ZM37.3802 38.9773L37.3228 39.6683L34.4762 39.4321L34.5335 38.7411L37.3802 38.9773ZM35.6032 37.5413L36.5034 37.6159L36.0686 42.8567C36.0537 43.0351 36.0702 43.1721 36.1178 43.2675C36.1654 43.3629 36.2318 43.4288 36.3169 43.4653C36.4021 43.5017 36.495 43.5242 36.5955 43.5325C36.6701 43.5387 36.7485 43.5387 36.8307 43.5324C36.9164 43.5232 36.9807 43.5155 37.0237 43.5092L36.9676 44.2444C36.8944 44.2612 36.7985 44.2745 36.6801 44.2843C36.5647 44.2975 36.4259 44.2975 36.2637 44.284C36.0431 44.2657 35.844 44.2051 35.6663 44.1021C35.4887 43.9992 35.3532 43.841 35.2599 43.6275C35.17 43.411 35.1397 43.1275 35.1687 42.7772L35.6032 37.5413ZM43.1124 39.4529L43.0551 40.1439L40.2084 39.9077L40.2657 39.2167L43.1124 39.4529ZM41.3354 38.0169L42.2356 38.0916L41.8008 43.3323C41.786 43.5108 41.8024 43.6477 41.85 43.7431C41.8976 43.8385 41.964 43.9044 42.0492 43.9409C42.1344 43.9774 42.2272 43.9998 42.3278 44.0081C42.4024 44.0143 42.4808 44.0143 42.563 44.008C42.6487 43.9988 42.713 43.9911 42.756 43.9848L42.6999 44.72C42.6266 44.7368 42.5308 44.7501 42.4124 44.7599C42.297 44.7732 42.1582 44.7731 41.996 44.7596C41.7754 44.7413 41.5762 44.6807 41.3986 44.5778C41.221 44.4748 41.0855 44.3166 40.9921 44.1031C40.9023 43.8866 40.8719 43.6031 40.901 43.2528L41.3354 38.0169ZM43.6093 42.2036L43.6186 42.0917C43.6501 41.7121 43.7344 41.3647 43.8717 41.0495C44.0091 40.731 44.1917 40.4603 44.4192 40.2375C44.647 40.0114 44.914 39.8441 45.2203 39.7356C45.5268 39.6238 45.8633 39.5832 46.2299 39.6136C46.5997 39.6443 46.9266 39.74 47.2105 39.9007C47.4979 40.0585 47.7353 40.2676 47.9228 40.5282C48.1137 40.7857 48.2508 41.0829 48.3339 41.4197C48.4173 41.7533 48.4432 42.1098 48.4117 42.4894L48.4024 42.6013C48.3709 42.9808 48.2866 43.3282 48.1494 43.6435C48.0121 43.9588 47.828 44.2293 47.597 44.4551C47.3694 44.6779 47.1024 44.8452 46.7959 44.957C46.4929 45.0658 46.1565 45.1048 45.7866 45.0741C45.4168 45.0434 45.0898 44.9494 44.8056 44.7919C44.5217 44.6311 44.2843 44.422 44.0934 44.1644C43.9059 43.9039 43.7705 43.6068 43.6872 43.2733C43.6038 42.9397 43.5778 42.5832 43.6093 42.2036ZM44.5188 42.1664L44.5095 42.2783C44.4877 42.5411 44.498 42.7918 44.5402 43.0305C44.5828 43.2659 44.6583 43.478 44.7667 43.6666C44.8784 43.8555 45.0241 44.0097 45.2036 44.1291C45.3834 44.2453 45.5982 44.3138 45.848 44.3345C46.0946 44.3549 46.3145 44.3226 46.5077 44.2373C46.7045 44.1491 46.8719 44.0209 47.01 43.8527C47.1481 43.6845 47.2575 43.4878 47.3382 43.2626C47.4225 43.0344 47.4755 42.789 47.4973 42.5262L47.5066 42.4143C47.5281 42.1547 47.516 41.9071 47.4703 41.6714C47.428 41.4327 47.351 41.2189 47.2393 41.03C47.1311 40.8381 46.9872 40.6825 46.8077 40.563C46.6314 40.4439 46.4183 40.3739 46.1685 40.3532C45.922 40.3328 45.7003 40.3666 45.5036 40.4548C45.31 40.5433 45.1425 40.6731 45.0009 40.8443C44.8628 41.0125 44.7533 41.2108 44.6723 41.4393C44.5915 41.6645 44.5404 41.9068 44.5188 42.1664ZM52.405 37.9995L53.3101 38.0746L52.7748 44.527L52.6121 45.5425L51.7849 45.4738L52.405 37.9995ZM56.4691 43.1677L56.4607 43.2699C56.4289 43.6527 56.354 44.0041 56.236 44.3243C56.1182 44.6411 55.9618 44.9123 55.7667 45.1379C55.5716 45.3634 55.342 45.5321 55.078 45.6442C54.8139 45.7562 54.518 45.7986 54.1904 45.7714C53.8562 45.7437 53.5674 45.6625 53.3238 45.528C53.0837 45.3905 52.8866 45.2059 52.7327 44.9743C52.5788 44.7427 52.4628 44.4685 52.3845 44.1517C52.3095 43.8352 52.2686 43.4823 52.2617 43.093L52.2988 42.6453C52.3701 42.2592 52.4688 41.9163 52.5949 41.6165C52.7243 41.3169 52.8839 41.0655 53.0739 40.8625C53.2641 40.6561 53.4889 40.5066 53.7481 40.4137C54.0076 40.3177 54.3028 40.2834 54.6337 40.3108C54.9645 40.3383 55.2528 40.4275 55.4983 40.5786C55.7441 40.7263 55.9431 40.9258 56.0954 41.1769C56.2509 41.4282 56.3604 41.7231 56.4237 42.0615C56.4874 42.3967 56.5025 42.7654 56.4691 43.1677ZM55.5556 43.1948L55.5641 43.0926C55.5859 42.8298 55.582 42.5813 55.5524 42.3469C55.5231 42.1093 55.4622 41.8985 55.3697 41.7144C55.2775 41.5271 55.1479 41.3759 54.9811 41.2608C54.8145 41.1424 54.6031 41.0726 54.3468 41.0514C54.1197 41.0325 53.9186 41.055 53.7435 41.1189C53.5716 41.183 53.4217 41.2768 53.2939 41.4001C53.1663 41.5201 53.0582 41.6614 52.9696 41.8239C52.8845 41.9835 52.8168 42.151 52.7663 42.3264L52.669 43.4991C52.702 43.7305 52.7682 43.9565 52.8675 44.1771C52.9703 44.3946 53.1151 44.5781 53.302 44.7276C53.4921 44.8773 53.7347 44.9644 54.0299 44.9888C54.2732 45.009 54.4849 44.9776 54.6649 44.8945C54.8484 44.8085 55.001 44.6823 55.1226 44.5161C55.2474 44.35 55.3453 44.154 55.4163 43.928C55.4874 43.702 55.5338 43.4576 55.5556 43.1948ZM59.5625 46.2171C59.196 46.1867 58.8686 46.0975 58.5803 45.9495C58.2956 45.7984 58.0556 45.6005 57.8604 45.3557C57.6684 45.1111 57.5285 44.8284 57.4408 44.5075C57.3531 44.1867 57.3246 43.8413 57.3553 43.4715L57.3722 43.2671C57.4077 42.8389 57.5026 42.463 57.6569 42.1393C57.8114 41.8125 58.007 41.5412 58.2437 41.3257C58.4805 41.1102 58.7417 40.9538 59.0274 40.8567C59.3131 40.7595 59.6036 40.7232 59.8988 40.7477C60.2751 40.7789 60.5941 40.8707 60.8558 41.0231C61.1208 41.1757 61.3312 41.3761 61.487 41.6242C61.6431 41.8691 61.7502 42.1523 61.8085 42.474C61.867 42.7924 61.8809 43.1366 61.8502 43.5064L61.8167 43.9103L57.8849 43.584L57.9458 42.8493L60.9774 43.1008L60.9831 43.0327C60.9895 42.798 60.9597 42.5669 60.8936 42.3393C60.8308 42.112 60.7161 41.9195 60.5495 41.762C60.383 41.6045 60.1456 41.5129 59.8374 41.4873C59.633 41.4704 59.4412 41.4986 59.262 41.5719C59.0831 41.642 58.925 41.7562 58.7877 41.9147C58.6505 42.0732 58.5377 42.2712 58.4493 42.5089C58.361 42.7465 58.3037 43.0243 58.2773 43.3422L58.2604 43.5466C58.2396 43.7964 58.2542 44.0344 58.304 44.2607C58.3573 44.4839 58.4436 44.6838 58.5629 44.8603C58.6854 45.037 58.8385 45.1804 59.0221 45.2904C59.2089 45.4006 59.4256 45.4659 59.6722 45.4864C59.9901 45.5128 60.2647 45.4702 60.4961 45.3588C60.7275 45.2473 60.9349 45.0898 61.1184 44.8861L61.6274 45.3644C61.4996 45.527 61.3417 45.6788 61.1536 45.82C60.9655 45.9612 60.7392 46.0698 60.4749 46.1458C60.2138 46.2222 59.9097 46.2459 59.5625 46.2171ZM68.3238 45.4399C68.3346 45.3101 68.3153 45.1877 68.2661 45.0725C68.2204 44.9544 68.1137 44.8427 67.946 44.7373C67.7819 44.629 67.5291 44.5263 67.1877 44.4294C66.9008 44.3435 66.6425 44.2486 66.4127 44.1446C66.1861 44.0409 65.995 43.9221 65.8396 43.7884C65.6873 43.6549 65.5741 43.5034 65.5 43.3339C65.4259 43.1645 65.3978 42.9711 65.4158 42.7537C65.4331 42.5461 65.4948 42.3536 65.601 42.1762C65.7104 41.9991 65.8553 41.8462 66.0359 41.7175C66.2197 41.589 66.4349 41.4941 66.6817 41.433C66.9285 41.3718 67.1995 41.3534 67.4947 41.3779C67.9165 41.4129 68.2704 41.5174 68.5564 41.6914C68.8425 41.8654 69.0547 42.0839 69.1929 42.3469C69.3314 42.6066 69.3881 42.8873 69.3631 43.189L68.4629 43.1143C68.475 42.9683 68.4429 42.8236 68.3666 42.6801C68.2938 42.5336 68.1785 42.4081 68.0206 42.3035C67.8659 42.1992 67.6702 42.1372 67.4334 42.1176C67.1836 42.0969 66.9776 42.119 66.8154 42.1839C66.6568 42.2459 66.5369 42.3323 66.4558 42.4431C66.378 42.5543 66.3337 42.6747 66.323 42.8045C66.3149 42.9018 66.3238 42.9907 66.3498 43.0713C66.3793 43.1489 66.4352 43.2237 66.5174 43.2959C66.5998 43.3648 66.7183 43.4334 66.8727 43.5017C67.027 43.5701 67.2252 43.642 67.4672 43.7177C67.8906 43.8508 68.2361 43.997 68.5038 44.1564C68.7715 44.3158 68.9652 44.5001 69.0851 44.7093C69.2049 44.9185 69.2531 45.1642 69.2297 45.4465C69.2106 45.6768 69.1444 45.8836 69.0312 46.0669C68.9213 46.2505 68.7697 46.4045 68.5764 46.529C68.3867 46.6504 68.1637 46.7397 67.9075 46.7968C67.6547 46.851 67.3742 46.8653 67.0661 46.8397C66.6022 46.8012 66.2165 46.6859 65.9091 46.4938C65.6016 46.3017 65.3761 46.0674 65.2324 45.7909C65.0888 45.5144 65.0291 45.2302 65.0533 44.9383L65.9584 45.0133C65.9509 45.261 66.006 45.4632 66.1237 45.6199C66.2416 45.7734 66.3921 45.8888 66.5751 45.966C66.7584 46.04 66.9425 46.0847 67.1274 46.1001C67.374 46.1205 67.5827 46.1052 67.7535 46.054C67.9276 46.0031 68.0631 45.9245 68.1601 45.8183C68.2571 45.712 68.3117 45.5859 68.3238 45.4399ZM73.6129 46.06L73.9488 42.0114L74.8539 42.0865L74.4171 47.3516L73.5558 47.2802L73.6129 46.06ZM73.8753 44.9647L74.2508 44.986C74.2217 45.3364 74.1575 45.6577 74.0581 45.95C73.9622 46.2393 73.8242 46.4858 73.644 46.6897C73.4637 46.8936 73.2371 47.0463 72.9641 47.1478C72.6914 47.246 72.3669 47.2795 71.9905 47.2483C71.7343 47.227 71.5022 47.1702 71.2943 47.0778C71.0896 46.9857 70.9175 46.8555 70.7779 46.6871C70.6384 46.5188 70.5368 46.3062 70.4732 46.0494C70.4128 45.7929 70.3971 45.4894 70.4262 45.1391L70.708 41.7425L71.6082 41.8172L71.3256 45.2235C71.306 45.4603 71.3156 45.6587 71.3546 45.8187C71.3971 45.9758 71.46 46.1035 71.5433 46.2019C71.6301 46.2973 71.7288 46.3675 71.8394 46.4126C71.9532 46.458 72.0718 46.4858 72.1951 46.496C72.5779 46.5278 72.8872 46.48 73.1232 46.3526C73.3594 46.2219 73.5365 46.0357 73.6546 45.794C73.7761 45.5493 73.8497 45.2729 73.8753 44.9647ZM77.0578 43.1023L76.6895 47.5402L75.7893 47.4655L76.2262 42.2004L77.1021 42.2731L77.0578 43.1023ZM78.7735 42.3823L78.6992 43.2189C78.626 43.1965 78.5554 43.1808 78.4876 43.1719C78.4232 43.1601 78.3489 43.1506 78.2645 43.1436C78.0569 43.1264 77.8709 43.1436 77.7066 43.1953C77.5422 43.247 77.4001 43.3267 77.2801 43.4343C77.1601 43.542 77.0609 43.6742 76.9826 43.831C76.9078 43.9849 76.8527 44.1567 76.8173 44.3465L76.5522 44.4714C76.5786 44.1535 76.6341 43.8576 76.7189 43.5838C76.807 43.3101 76.9264 43.0718 77.0771 42.8687C77.2282 42.6624 77.4109 42.5077 77.6252 42.4047C77.843 42.2986 78.0947 42.2574 78.3802 42.2811C78.4451 42.2865 78.519 42.3008 78.602 42.324C78.6853 42.344 78.7425 42.3634 78.7735 42.3823ZM81.2459 48.0162C80.8793 47.9858 80.5519 47.8966 80.2636 47.7485C79.9789 47.5975 79.7389 47.3996 79.5437 47.1547C79.3517 46.9102 79.2118 46.6275 79.1241 46.3066C79.0364 45.9858 79.0079 45.6404 79.0386 45.2706L79.0555 45.0662C79.0911 44.638 79.1859 44.2621 79.3402 43.9384C79.4947 43.6115 79.6903 43.3403 79.927 43.1248C80.1638 42.9093 80.425 42.7529 80.7107 42.6558C80.9964 42.5586 81.2869 42.5223 81.5821 42.5468C81.9584 42.578 82.2774 42.6698 82.5391 42.8222C82.8041 42.9748 83.0145 43.1752 83.1703 43.4233C83.3264 43.6682 83.4335 43.9514 83.4918 44.2731C83.5503 44.5915 83.5642 44.9356 83.5335 45.3055L83.5 45.7094L79.5682 45.3831L79.6291 44.6483L82.6607 44.8999L82.6664 44.8318C82.6728 44.5971 82.643 44.366 82.5769 44.1384C82.5141 43.9111 82.3994 43.7186 82.2329 43.5611C82.0663 43.4035 81.8289 43.312 81.5207 43.2864C81.3163 43.2695 81.1245 43.2976 80.9453 43.371C80.7664 43.4411 80.6083 43.5553 80.471 43.7138C80.3338 43.8722 80.221 44.0703 80.1327 44.308C80.0443 44.5456 79.987 44.8234 79.9606 45.1413L79.9437 45.3457C79.9229 45.5955 79.9375 45.8335 79.9873 46.0598C80.0406 46.283 80.1269 46.4829 80.2462 46.6594C80.3687 46.8361 80.5218 46.9795 80.7054 47.0895C80.8922 47.1997 81.1089 47.265 81.3555 47.2855C81.6734 47.3119 81.948 47.2693 82.1794 47.1579C82.4108 47.0464 82.6182 46.8889 82.8017 46.6852L83.3107 47.1635C83.1829 47.326 83.025 47.4779 82.8369 47.6191C82.6488 47.7603 82.4225 47.8689 82.1582 47.9449C81.8971 48.0213 81.593 48.045 81.2459 48.0162ZM88.0694 44.3148L87.7258 48.4559L86.8256 48.3812L87.2625 43.1161L88.114 43.1867L88.0694 44.3148ZM87.7467 45.606L87.3732 45.5604C87.4063 45.2005 87.4875 44.8725 87.6166 44.5761C87.746 44.2766 87.9141 44.021 88.1211 43.8096C88.3281 43.5981 88.5665 43.4415 88.8363 43.3397C89.1095 43.235 89.4051 43.1959 89.723 43.2222C89.9826 43.2438 90.2132 43.2988 90.4149 43.3874C90.6168 43.4728 90.7845 43.5978 90.9178 43.7623C91.0544 43.9272 91.1515 44.1345 91.2092 44.3843C91.2671 44.6308 91.2817 44.9276 91.2529 45.2747L90.9666 48.7248L90.0616 48.6497L90.3486 45.1899C90.3715 44.9141 90.3492 44.6902 90.2819 44.518C90.2148 44.3426 90.1065 44.2111 89.9569 44.1236C89.8077 44.0328 89.6195 43.978 89.3924 43.9591C89.1686 43.9406 88.9603 43.9707 88.7676 44.0494C88.5781 44.1284 88.41 44.2451 88.2633 44.3995C88.1198 44.5542 88.0019 44.7355 87.9095 44.9434C87.8206 45.1484 87.7664 45.3692 87.7467 45.606ZM92.3092 46.2443L92.3184 46.1324C92.3499 45.7528 92.4343 45.4054 92.5715 45.0901C92.709 44.7716 92.8915 44.501 93.119 44.2781C93.3468 44.0521 93.6139 43.8848 93.9201 43.7763C94.2266 43.6645 94.5632 43.6238 94.9298 43.6542C95.2996 43.6849 95.6264 43.7806 95.9104 43.9414C96.1978 44.0992 96.4352 44.3083 96.6226 44.5688C96.8136 44.8264 96.9506 45.1236 97.0337 45.4604C97.1171 45.7939 97.143 46.1505 97.1115 46.53L97.1023 46.642C97.0708 47.0215 96.9864 47.3689 96.8492 47.6842C96.712 47.9994 96.5279 48.27 96.2968 48.4958C96.0693 48.7186 95.8022 48.8859 95.4957 48.9977C95.1927 49.1064 94.8563 49.1455 94.4865 49.1148C94.1167 49.0841 93.7897 48.99 93.5055 48.8325C93.2216 48.6718 92.9842 48.4626 92.7932 48.2051C92.6058 47.9446 92.4704 47.6475 92.387 47.3139C92.3036 46.9804 92.2777 46.6238 92.3092 46.2443ZM93.2187 46.2071L93.2094 46.319C93.1876 46.5817 93.1978 46.8325 93.2401 47.0712C93.2826 47.3066 93.3581 47.5186 93.4666 47.7073C93.5783 47.8962 93.7239 48.0504 93.9035 48.1698C94.0833 48.286 94.2981 48.3544 94.5479 48.3752C94.7944 48.3956 95.0143 48.3632 95.2076 48.278C95.4043 48.1898 95.5718 48.0616 95.7098 47.8934C95.8479 47.7252 95.9573 47.5285 96.0381 47.3033C96.1223 47.0751 96.1754 46.8296 96.1972 46.5669L96.2065 46.455C96.228 46.1954 96.2159 45.9478 96.1701 45.7121C96.1278 45.4734 96.0509 45.2596 95.9391 45.0707C95.8309 44.8788 95.6871 44.7231 95.5075 44.6037C95.3312 44.4846 95.1182 44.4146 94.8684 44.3939C94.6218 44.3734 94.4002 44.4073 94.2034 44.4955C94.0099 44.584 93.8423 44.7138 93.7007 44.885C93.5627 45.0532 93.4531 45.2515 93.3721 45.4799C93.2913 45.7052 93.2402 45.9475 93.2187 46.2071ZM100.659 44.2276L100.601 44.9186L97.7548 44.6824L97.8121 43.9914L100.659 44.2276ZM98.8818 42.7916L99.782 42.8662L99.3472 48.107C99.3324 48.2854 99.3488 48.4224 99.3964 48.5178C99.444 48.6132 99.5104 48.6791 99.5956 48.7156C99.6808 48.752 99.7736 48.7745 99.8742 48.7828C99.9488 48.789 100.027 48.789 100.109 48.7827C100.195 48.7735 100.259 48.7658 100.302 48.7595L100.246 49.4947C100.173 49.5115 100.077 49.5248 99.9588 49.5346C99.8434 49.5478 99.7046 49.5478 99.5424 49.5343C99.3218 49.516 99.1226 49.4554 98.945 49.3524C98.7674 49.2495 98.6319 49.0913 98.5385 48.8778C98.4487 48.6613 98.4183 48.3778 98.4474 48.0275L98.8818 42.7916ZM106.391 44.7032L106.334 45.3942L103.487 45.158L103.544 44.467L106.391 44.7032ZM104.614 43.2672L105.514 43.3419L105.079 48.5826C105.065 48.7611 105.081 48.898 105.129 48.9934C105.176 49.0888 105.243 49.1547 105.328 49.1912C105.413 49.2277 105.506 49.2501 105.606 49.2584C105.681 49.2646 105.759 49.2646 105.842 49.2583C105.927 49.2491 105.992 49.2414 106.035 49.2351L105.979 49.9703C105.905 49.9871 105.809 50.0004 105.691 50.0102C105.576 50.0235 105.437 50.0234 105.275 50.0099C105.054 49.9916 104.855 49.931 104.677 49.8281C104.5 49.7251 104.364 49.5669 104.271 49.3534C104.181 49.1369 104.151 48.8534 104.18 48.5031L104.614 43.2672ZM106.888 47.4539L106.897 47.342C106.929 46.9624 107.013 46.615 107.15 46.2998C107.288 45.9813 107.47 45.7106 107.698 45.4878C107.926 45.2617 108.193 45.0944 108.499 44.9859C108.805 44.8741 109.142 44.8335 109.509 44.8639C109.878 44.8946 110.205 44.9903 110.489 45.151C110.777 45.3088 111.014 45.5179 111.201 45.7785C111.392 46.036 111.529 46.3332 111.613 46.67C111.696 47.0036 111.722 47.3601 111.69 47.7397L111.681 47.8516C111.65 48.2311 111.565 48.5785 111.428 48.8938C111.291 49.2091 111.107 49.4796 110.876 49.7054C110.648 49.9282 110.381 50.0955 110.075 50.2073C109.772 50.3161 109.435 50.3551 109.065 50.3244C108.695 50.2937 108.368 50.1997 108.084 50.0422C107.8 49.8814 107.563 49.6723 107.372 49.4147C107.185 49.1542 107.049 48.8571 106.966 48.5236C106.882 48.19 106.856 47.8335 106.888 47.4539ZM107.797 47.4167L107.788 47.5286C107.766 47.7914 107.777 48.0421 107.819 48.2808C107.861 48.5162 107.937 48.7283 108.045 48.9169C108.157 49.1058 108.303 49.26 108.482 49.3794C108.662 49.4956 108.877 49.5641 109.127 49.5848C109.373 49.6052 109.593 49.5729 109.786 49.4876C109.983 49.3994 110.151 49.2712 110.289 49.103C110.427 48.9348 110.536 48.7381 110.617 48.5129C110.701 48.2847 110.754 48.0393 110.776 47.7765L110.785 47.6646C110.807 47.405 110.795 47.1574 110.749 46.9217C110.707 46.683 110.63 46.4692 110.518 46.2803C110.41 46.0884 110.266 45.9328 110.086 45.8133C109.91 45.6942 109.697 45.6242 109.447 45.6035C109.201 45.5831 108.979 45.6169 108.782 45.7051C108.589 45.7936 108.421 45.9234 108.28 46.0946C108.141 46.2628 108.032 46.4611 107.951 46.6896C107.87 46.9148 107.819 47.1571 107.797 47.4167ZM116.411 50.836L115.511 50.7613L115.994 44.9414C116.026 44.5619 116.12 44.248 116.278 43.9998C116.439 43.7486 116.655 43.5672 116.926 43.4558C117.197 43.341 117.51 43.2985 117.867 43.3281C117.971 43.3367 118.074 43.3518 118.177 43.3734C118.283 43.3953 118.385 43.4233 118.484 43.4576L118.374 44.1884C118.307 44.1665 118.23 44.1487 118.143 44.1349C118.06 44.1214 117.975 44.1112 117.891 44.1042C117.7 44.0883 117.531 44.1135 117.385 44.1798C117.243 44.2431 117.13 44.3448 117.046 44.4849C116.963 44.6249 116.912 44.802 116.894 45.0161L116.411 50.836ZM117.967 45.6637L117.91 46.3547L115.059 46.1181L115.116 45.4271L117.967 45.6637ZM118.508 48.418L118.517 48.3061C118.549 47.9266 118.633 47.5792 118.771 47.2639C118.908 46.9454 119.091 46.6747 119.318 46.4519C119.546 46.2258 119.813 46.0585 120.119 45.95C120.426 45.8383 120.762 45.7976 121.129 45.828C121.499 45.8587 121.825 45.9544 122.109 46.1152C122.397 46.2729 122.634 46.4821 122.822 46.7426C123.013 47.0002 123.15 47.2973 123.233 47.6341C123.316 47.9677 123.342 48.3243 123.311 48.7038L123.301 48.8157C123.27 49.1953 123.185 49.5427 123.048 49.8579C122.911 50.1732 122.727 50.4437 122.496 50.6695C122.268 50.8924 122.001 51.0597 121.695 51.1714C121.392 51.2802 121.055 51.3193 120.686 51.2886C120.316 51.2579 119.989 51.1638 119.705 51.0063C119.421 50.8456 119.183 50.6364 118.992 50.3788C118.805 50.1183 118.669 49.8213 118.586 49.4877C118.503 49.1542 118.477 48.7976 118.508 48.418ZM119.418 48.3808L119.408 48.4927C119.387 48.7555 119.397 49.0062 119.439 49.2449C119.482 49.4804 119.557 49.6924 119.666 49.8811C119.777 50.07 119.923 50.2242 120.102 50.3436C120.282 50.4598 120.497 50.5282 120.747 50.5489C120.993 50.5694 121.213 50.537 121.407 50.4518C121.603 50.3636 121.771 50.2354 121.909 50.0672C122.047 49.899 122.156 49.7023 122.237 49.4771C122.321 49.2489 122.374 49.0034 122.396 48.7406L122.405 48.6287C122.427 48.3692 122.415 48.1216 122.369 47.8859C122.327 47.6472 122.25 47.4334 122.138 47.2444C122.03 47.0526 121.886 46.8969 121.707 46.7775C121.53 46.6583 121.317 46.5884 121.067 46.5677C120.821 46.5472 120.599 46.5811 120.402 46.6693C120.209 46.7577 120.041 46.8876 119.9 47.0587C119.762 47.2269 119.652 47.4252 119.571 47.6537C119.49 47.8789 119.439 48.1213 119.418 48.3808ZM125.485 47.1204L125.117 51.5583L124.217 51.4836L124.654 46.2185L125.529 46.2911L125.485 47.1204ZM127.201 46.4004L127.127 47.237C127.053 47.2146 126.983 47.1989 126.915 47.19C126.851 47.1781 126.776 47.1687 126.692 47.1617C126.484 47.1445 126.298 47.1617 126.134 47.2134C125.97 47.2651 125.827 47.3448 125.707 47.4524C125.587 47.56 125.488 47.6923 125.41 47.8491C125.335 48.0029 125.28 48.1747 125.245 48.3645L124.98 48.4895C125.006 48.1716 125.061 47.8757 125.146 47.6018C125.234 47.3282 125.354 47.0899 125.504 46.8868C125.656 46.6805 125.838 46.5258 126.053 46.4227C126.27 46.3167 126.522 46.2755 126.808 46.2992C126.872 46.3046 126.946 46.3189 127.029 46.3421C127.113 46.3621 127.17 46.3815 127.201 46.4004ZM131.344 46.7736L132.162 46.8414L131.734 51.9946C131.696 52.4585 131.569 52.8465 131.354 53.1585C131.138 53.4706 130.855 53.6969 130.503 53.8376C130.155 53.9818 129.762 54.0358 129.324 53.9994C129.142 53.9844 128.931 53.9374 128.689 53.8586C128.45 53.7832 128.218 53.6676 127.993 53.5117C127.77 53.3593 127.589 53.163 127.449 52.9227L127.965 52.4266C128.164 52.7109 128.378 52.915 128.61 53.0387C128.845 53.1627 129.08 53.2345 129.317 53.2541C129.603 53.2778 129.854 53.2448 130.07 53.1549C130.287 53.0651 130.46 52.9195 130.591 52.718C130.726 52.5201 130.805 52.2687 130.83 51.9637L131.166 47.9249L131.344 46.7736ZM127.496 49.1638L127.504 49.0616C127.538 48.6593 127.615 48.2983 127.736 47.9784C127.861 47.6556 128.023 47.3832 128.221 47.1612C128.422 46.9394 128.656 46.7759 128.923 46.6707C129.19 46.5622 129.484 46.5212 129.805 46.5479C130.136 46.5753 130.42 46.6577 130.657 46.7949C130.897 46.9292 131.094 47.1138 131.248 47.3486C131.405 47.5805 131.521 47.8547 131.596 48.1713C131.671 48.4878 131.712 48.8423 131.718 49.2348L131.681 49.6825C131.613 50.0656 131.515 50.4069 131.386 50.7065C131.259 51.0063 131.1 51.2577 130.907 51.4605C130.717 51.6636 130.492 51.8131 130.232 51.9092C129.973 52.002 129.676 52.0346 129.342 52.0068C129.028 51.9807 128.748 51.8905 128.502 51.7363C128.26 51.5823 128.059 51.3777 127.897 51.1226C127.735 50.8674 127.619 50.5736 127.549 50.2411C127.482 49.9057 127.464 49.5466 127.496 49.1638ZM128.405 49.1363L128.396 49.2385C128.374 49.5012 128.38 49.7499 128.413 49.9846C128.449 50.2195 128.515 50.4291 128.61 50.6134C128.709 50.798 128.842 50.9479 129.009 51.063C129.176 51.1748 129.381 51.2408 129.625 51.261C129.923 51.2858 130.175 51.243 130.38 51.1326C130.585 51.0223 130.753 50.868 130.884 50.6698C131.018 50.4718 131.127 50.2539 131.213 50.016L131.31 48.8433C131.289 48.6619 131.248 48.4854 131.187 48.3137C131.13 48.1391 131.048 47.9821 130.942 47.8426C130.84 47.7002 130.707 47.5831 130.545 47.4912C130.383 47.3994 130.188 47.344 129.961 47.3252C129.714 47.3047 129.498 47.339 129.311 47.428C129.127 47.514 128.971 47.6415 128.843 47.8105C128.718 47.9766 128.618 48.1741 128.544 48.4031C128.473 48.6291 128.426 48.8735 128.405 49.1363ZM135.269 52.4986C134.903 52.4682 134.575 52.379 134.287 52.2309C134.002 52.0799 133.762 51.882 133.567 51.6371C133.375 51.3925 133.235 51.1098 133.147 50.789C133.06 50.4681 133.031 50.1228 133.062 49.753L133.079 49.5486C133.114 49.1204 133.209 48.7444 133.364 48.4208C133.518 48.0939 133.714 47.8227 133.95 47.6072C134.187 47.3916 134.448 47.2353 134.734 47.1381C135.02 47.041 135.31 47.0047 135.605 47.0292C135.982 47.0604 136.301 47.1522 136.562 47.3045C136.827 47.4572 137.038 47.6576 137.194 47.9057C137.35 48.1505 137.457 48.4338 137.515 48.7555C137.574 49.0739 137.588 49.418 137.557 49.7878L137.523 50.1917L133.592 49.8655L133.652 49.1307L136.684 49.3823L136.69 49.3141C136.696 49.0795 136.666 48.8484 136.6 48.6208C136.537 48.3934 136.423 48.201 136.256 48.0435C136.09 47.8859 135.852 47.7944 135.544 47.7688C135.34 47.7518 135.148 47.78 134.969 47.8533C134.79 47.9234 134.632 48.0377 134.494 48.1962C134.357 48.3546 134.244 48.5527 134.156 48.7903C134.068 49.028 134.01 49.3058 133.984 49.6237L133.967 49.8281C133.946 50.0779 133.961 50.3159 134.011 50.5421C134.064 50.7654 134.15 50.9653 134.27 51.1418C134.392 51.3185 134.545 51.4619 134.729 51.5718C134.916 51.6821 135.132 51.7474 135.379 51.7679C135.697 51.7942 135.971 51.7517 136.203 51.6402C136.434 51.5288 136.642 51.3712 136.825 51.1676L137.334 51.6459C137.206 51.8084 137.048 51.9603 136.86 52.1015C136.672 52.2426 136.446 52.3512 136.182 52.4273C135.92 52.5036 135.616 52.5274 135.269 52.4986ZM141.018 47.5762L140.961 48.2672L138.114 48.031L138.172 47.3401L141.018 47.5762ZM139.241 46.1402L140.141 46.2149L139.707 51.4557C139.692 51.6341 139.708 51.771 139.756 51.8664C139.803 51.9618 139.87 52.0278 139.955 52.0642C140.04 52.1007 140.133 52.1231 140.234 52.1315C140.308 52.1377 140.387 52.1376 140.469 52.1314C140.554 52.1222 140.619 52.1144 140.662 52.1082L140.606 52.8434C140.532 52.8602 140.437 52.8734 140.318 52.8832C140.203 52.8965 140.064 52.8964 139.902 52.883C139.681 52.8647 139.482 52.804 139.304 52.7011C139.127 52.5982 138.991 52.4399 138.898 52.2264C138.808 52.0099 138.778 51.7265 138.807 51.3761L139.241 46.1402ZM141.691 52.4533C141.704 52.3008 141.762 52.1766 141.864 52.0806C141.971 51.9816 142.115 51.9397 142.296 51.9547C142.478 51.9698 142.611 52.0348 142.697 52.1496C142.785 52.2615 142.823 52.3937 142.811 52.5462C142.798 52.6954 142.739 52.8179 142.633 52.9136C142.53 53.0096 142.388 53.0501 142.207 53.035C142.025 53.0199 141.89 52.9565 141.801 52.8446C141.716 52.733 141.679 52.6025 141.691 52.4533ZM144.319 52.6713C144.332 52.5189 144.389 52.3946 144.492 52.2986C144.598 52.1996 144.742 52.1577 144.924 52.1728C145.106 52.1878 145.239 52.2528 145.324 52.3677C145.413 52.4795 145.451 52.6117 145.438 52.7642C145.426 52.9134 145.367 53.0359 145.261 53.1316C145.158 53.2276 145.016 53.2681 144.834 53.253C144.653 53.238 144.517 53.1745 144.429 53.0626C144.343 52.951 144.307 52.8206 144.319 52.6713ZM146.947 52.8893C146.959 52.7369 147.017 52.6126 147.12 52.5166C147.226 52.4177 147.37 52.3757 147.552 52.3908C147.733 52.4059 147.867 52.4708 147.952 52.5857C148.041 52.6976 148.079 52.8297 148.066 52.9822C148.054 53.1314 147.994 53.2539 147.889 53.3497C147.786 53.4457 147.644 53.4861 147.462 53.471C147.28 53.456 147.145 53.3925 147.056 53.2806C146.971 53.169 146.934 53.0386 146.947 52.8893ZM151.967 51.1942L151.977 51.0823C152.008 50.7027 152.093 50.3553 152.23 50.0401C152.367 49.7216 152.55 49.4509 152.777 49.2281C153.005 49.002 153.272 48.8347 153.578 48.7262C153.885 48.6144 154.221 48.5737 154.588 48.6042C154.958 48.6348 155.285 48.7306 155.569 48.8913C155.856 49.0491 156.093 49.2582 156.281 49.5188C156.472 49.7763 156.609 50.0735 156.692 50.4103C156.775 50.7439 156.801 51.1004 156.77 51.48L156.761 51.5919C156.729 51.9714 156.645 52.3188 156.507 52.6341C156.37 52.9494 156.186 53.2199 155.955 53.4457C155.728 53.6685 155.461 53.8358 155.154 53.9476C154.851 54.0564 154.515 54.0954 154.145 54.0647C153.775 54.034 153.448 53.9399 153.164 53.7824C152.88 53.6217 152.642 53.4126 152.452 53.155C152.264 52.8945 152.129 52.5974 152.045 52.2639C151.962 51.9303 151.936 51.5737 151.967 51.1942ZM152.877 51.157L152.868 51.2689C152.846 51.5317 152.856 51.7824 152.898 52.0211C152.941 52.2565 153.016 52.4686 153.125 52.6572C153.237 52.8461 153.382 53.0003 153.562 53.1197C153.742 53.2359 153.956 53.3044 154.206 53.3251C154.453 53.3455 154.673 53.3132 154.866 53.2279C155.063 53.1397 155.23 53.0115 155.368 52.8433C155.506 52.6751 155.616 52.4784 155.696 52.2532C155.781 52.025 155.834 51.7796 155.855 51.5168L155.865 51.4049C155.886 51.1453 155.874 50.8977 155.828 50.662C155.786 50.4233 155.709 50.2095 155.597 50.0206C155.489 49.8287 155.345 49.673 155.166 49.5536C154.99 49.4345 154.776 49.3645 154.527 49.3438C154.28 49.3234 154.058 49.3572 153.862 49.4454C153.668 49.5339 153.501 49.6637 153.359 49.8349C153.221 50.0031 153.111 50.2014 153.03 50.4299C152.95 50.6551 152.898 50.8974 152.877 51.157ZM158.944 49.8965L158.576 54.3344L157.676 54.2597L158.113 48.9946L158.989 49.0673L158.944 49.8965ZM160.66 49.1766L160.586 50.0131C160.513 49.9907 160.442 49.9751 160.374 49.9662C160.31 49.9543 160.235 49.9449 160.151 49.9379C159.943 49.9206 159.758 49.9379 159.593 49.9896C159.429 50.0413 159.287 50.1209 159.167 50.2286C159.047 50.3362 158.948 50.4684 158.869 50.6252C158.794 50.7791 158.739 50.9509 158.704 51.1407L158.439 51.2657C158.465 50.9477 158.521 50.6519 158.606 50.378C158.694 50.1044 158.813 49.866 158.964 49.663C159.115 49.4566 159.297 49.3019 159.512 49.1989C159.73 49.0928 159.981 49.0516 160.267 49.0753C160.332 49.0807 160.406 49.095 160.489 49.1182C160.572 49.1382 160.629 49.1577 160.66 49.1766ZM17.1697 58.7547C16.8032 58.7243 16.4758 58.6351 16.1875 58.4871C15.9028 58.336 15.6628 58.1381 15.4676 57.8933C15.2755 57.6487 15.1357 57.366 15.048 57.0451C14.9603 56.7243 14.9318 56.3789 14.9625 56.0091L14.9794 55.8047C15.0149 55.3765 15.1098 55.0006 15.2641 54.6769C15.4186 54.3501 15.6142 54.0788 15.8509 53.8633C16.0877 53.6478 16.3489 53.4914 16.6346 53.3943C16.9203 53.2971 17.2107 53.2608 17.506 53.2853C17.8823 53.3165 18.2013 53.4083 18.463 53.5607C18.728 53.7133 18.9384 53.9137 19.0942 54.1618C19.2503 54.4067 19.3574 54.6899 19.4157 55.0116C19.4742 55.33 19.4881 55.6742 19.4574 56.044L19.4239 56.4479L15.4921 56.1216L15.553 55.3869L18.5846 55.6384L18.5903 55.5703C18.5967 55.3356 18.5668 55.1045 18.5008 54.8769C18.438 54.6496 18.3233 54.4571 18.1567 54.2996C17.9902 54.1421 17.7528 54.0505 17.4446 54.0249C17.2402 54.008 17.0484 54.0362 16.8692 54.1095C16.6903 54.1796 16.5322 54.2938 16.3949 54.4523C16.2576 54.6108 16.1449 54.8088 16.0565 55.0465C15.9682 55.2841 15.9109 55.5619 15.8845 55.8798L15.8675 56.0842C15.8468 56.334 15.8614 56.572 15.9112 56.7983C15.9645 57.0215 16.0508 57.2214 16.1701 57.3979C16.2926 57.5746 16.4457 57.718 16.6293 57.828C16.8161 57.9382 17.0328 58.0035 17.2794 58.024C17.5973 58.0504 17.8719 58.0078 18.1033 57.8964C18.3347 57.7849 18.5421 57.6274 18.7256 57.4237L19.2346 57.902C19.1068 58.0646 18.9489 58.2164 18.7608 58.3576C18.5727 58.4988 18.3464 58.6074 18.0821 58.6834C17.821 58.7598 17.5169 58.7835 17.1697 58.7547ZM21.8758 51.5214L21.2556 58.9957L20.3505 58.9207L20.9707 51.4463L21.8758 51.5214ZM25.8823 57.9735C25.8931 57.8437 25.8739 57.7212 25.8246 57.6061C25.7789 57.488 25.6722 57.3762 25.5046 57.2709C25.3404 57.1625 25.0877 57.0599 24.7462 56.963C24.4593 56.8771 24.201 56.7822 23.9712 56.6782C23.7446 56.5744 23.5536 56.4557 23.3981 56.322C23.2458 56.1885 23.1327 56.037 23.0585 55.8675C22.9844 55.698 22.9563 55.5046 22.9744 55.2873C22.9916 55.0797 23.0533 54.8872 23.1595 54.7098C23.2689 54.5327 23.4139 54.3798 23.5944 54.251C23.7782 54.1225 23.9935 54.0277 24.2403 53.9665C24.4871 53.9053 24.7581 53.887 25.0533 53.9115C25.475 53.9465 25.8289 54.051 26.115 54.225C26.401 54.399 26.6132 54.6174 26.7514 54.8804C26.8899 55.1402 26.9467 55.4209 26.9216 55.7226L26.0214 55.6479C26.0335 55.5019 26.0014 55.3572 25.9251 55.2136C25.8524 55.0671 25.737 54.9416 25.5791 54.8371C25.4245 54.7328 25.2287 54.6708 24.9919 54.6511C24.7421 54.6304 24.5361 54.6525 24.3739 54.7175C24.2153 54.7794 24.0954 54.8658 24.0144 54.9767C23.9366 55.0878 23.8923 55.2083 23.8815 55.338C23.8734 55.4354 23.8824 55.5243 23.9084 55.6049C23.9378 55.6824 23.9937 55.7573 24.0759 55.8294C24.1584 55.8983 24.2768 55.967 24.4312 56.0353C24.5856 56.1036 24.7838 56.1756 25.0257 56.2512C25.4491 56.3843 25.7946 56.5306 26.0623 56.69C26.33 56.8494 26.5238 57.0337 26.6436 57.2429C26.7634 57.4521 26.8116 57.6978 26.7882 57.98C26.7691 58.2103 26.703 58.4172 26.5898 58.6005C26.4798 58.7841 26.3282 58.9381 26.135 59.0625C25.9452 59.184 25.7222 59.2733 25.466 59.3304C25.2132 59.3845 24.9328 59.3988 24.6246 59.3733C24.1607 59.3348 23.775 59.2195 23.4676 59.0274C23.1602 58.8353 22.9346 58.601 22.791 58.3245C22.6473 58.048 22.5876 57.7638 22.6118 57.4718L23.5169 57.5469C23.5095 57.7945 23.5645 57.9967 23.6822 58.1535C23.8001 58.307 23.9506 58.4224 24.1336 58.4996C24.3169 58.5736 24.5011 58.6183 24.686 58.6336C24.9325 58.6541 25.1412 58.6387 25.312 58.5876C25.4861 58.5367 25.6217 58.4581 25.7187 58.3518C25.8157 58.2456 25.8702 58.1194 25.8823 57.9735ZM30.026 59.8214C29.6594 59.791 29.332 59.7018 29.0438 59.5537C28.759 59.4027 28.519 59.2048 28.3238 58.96C28.1318 58.7154 27.9919 58.4327 27.9042 58.1118C27.8165 57.791 27.788 57.4456 27.8187 57.0758L27.8356 56.8714C27.8712 56.4432 27.966 56.0673 28.1203 55.7436C28.2748 55.4168 28.4704 55.1455 28.7071 54.93C28.9439 54.7145 29.2051 54.5581 29.4908 54.461C29.7765 54.3638 30.067 54.3275 30.3622 54.352C30.7385 54.3832 31.0575 54.475 31.3192 54.6274C31.5842 54.78 31.7946 54.9804 31.9504 55.2285C32.1065 55.4734 32.2136 55.7566 32.2719 56.0783C32.3304 56.3967 32.3443 56.7409 32.3136 57.1107L32.2801 57.5146L28.3483 57.1883L28.4093 56.4536L31.4408 56.7051L31.4465 56.637C31.4529 56.4023 31.4231 56.1712 31.357 55.9436C31.2942 55.7163 31.1795 55.5238 31.013 55.3663C30.8464 55.2088 30.609 55.1172 30.3008 55.0916C30.0964 55.0747 29.9046 55.1029 29.7254 55.1762C29.5465 55.2463 29.3884 55.3605 29.2511 55.519C29.1139 55.6775 29.0011 55.8755 28.9128 56.1132C28.8244 56.3508 28.7671 56.6286 28.7407 56.9465L28.7238 57.1509C28.703 57.4007 28.7176 57.6387 28.7674 57.865C28.8207 58.0882 28.907 58.2881 29.0263 58.4646C29.1489 58.6413 29.3019 58.7847 29.4855 58.8947C29.6723 59.0049 29.889 59.0702 30.1356 59.0907C30.4535 59.1171 30.7281 59.0745 30.9595 58.9631C31.1909 58.8516 31.3983 58.6941 31.5818 58.4904L32.0908 58.9687C31.963 59.1313 31.8051 59.2831 31.617 59.4243C31.4289 59.5655 31.2027 59.6741 30.9383 59.7501C30.6772 59.8265 30.3731 59.8502 30.026 59.8214ZM34.7921 52.9851L34.307 58.0649L33.4943 57.9975L33.8481 52.9068L34.7921 52.9851ZM33.2686 59.5368C33.2807 59.3908 33.3347 59.2712 33.4307 59.1779C33.5299 59.0849 33.667 59.0456 33.8422 59.0602C34.0141 59.0744 34.1414 59.1356 34.2238 59.2437C34.3096 59.3521 34.3464 59.4793 34.3343 59.6252C34.3227 59.7647 34.2657 59.8809 34.1633 59.9736C34.0641 60.0667 33.9285 60.106 33.7566 60.0918C33.5814 60.0772 33.4526 60.0159 33.3701 59.9078C33.2909 59.8 33.257 59.6763 33.2686 59.5368Z" fill="black"/>
</g>
<defs>
<filter id="filter0_d_108_5" x="0.173126" y="0" width="197.677" height="112.812" filterUnits="userSpaceOnUse" color-interpolation-filters="sRGB">
<feFlood flood-opacity="0" result="BackgroundImageFix"/>
<feColorMatrix in="SourceAlpha" type="matrix" values="0 0 0 0 0 0 0 0 0 0 0 0 0 0 0 0 0 0 127 0" result="hardAlpha"/>
<feOffset dy="3"/>
<feGaussianBlur stdDeviation="2"/>
<feColorMatrix type="matrix" values="0 0 0 0 0 0 0 0 0 0 0 0 0 0 0 0 0 0 0.5 0"/>
<feBlend mode="normal" in2="BackgroundImageFix" result="effect1_dropShadow_108_5"/>
<feBlend mode="normal" in="SourceGraphic" in2="effect1_dropShadow_108_5" result="shape"/>
</filter>
</defs>
</svg>
