<svg width="192" height="109" viewBox="0 0 192 109" fill="none" xmlns="http://www.w3.org/2000/svg">
<g filter="url(#filter0_d_108_16)">
<rect width="177.638" height="90" transform="matrix(0.998056 -0.0623167 0.0743126 0.997235 4 12.0698)" fill="#FDA7A7"/>
<path d="M13.5847 29.3956L14.113 36.4853L13.187 36.5431L12.6587 29.4534L13.5847 29.3956ZM15.8654 29.2531L15.9227 30.0225L10.4402 30.3648L10.3829 29.5955L15.8654 29.2531ZM17.6541 28.7501L18.2114 36.2294L17.3099 36.2857L16.7525 28.8064L17.6541 28.7501ZM17.7858 33.4088L17.4095 33.4176C17.3859 33.0571 17.4147 32.721 17.4959 32.4094C17.5769 32.0945 17.7032 31.8176 17.8747 31.5786C18.0462 31.3396 18.2573 31.1503 18.508 31.0107C18.7617 30.8677 19.0478 30.7862 19.3662 30.7663C19.6261 30.7501 19.8627 30.7712 20.0759 30.8296C20.2889 30.8848 20.4742 30.9841 20.6318 31.1276C20.7926 31.2708 20.9211 31.4617 21.0172 31.7003C21.113 31.9357 21.1739 32.227 21.1998 32.5744L21.4571 36.0267L20.5506 36.0833L20.2926 32.6212C20.2721 32.3453 20.215 32.1271 20.1215 31.9666C20.0277 31.8029 19.9 31.6886 19.7385 31.6236C19.5767 31.5555 19.3822 31.5285 19.1547 31.5427C18.9306 31.5567 18.7294 31.6165 18.5512 31.7222C18.3763 31.8277 18.2284 31.9674 18.1075 32.1413C17.9899 32.315 17.9017 32.5112 17.843 32.7302C17.7872 32.9456 17.7682 33.1718 17.7858 33.4088ZM25.0024 35.9032C24.6352 35.9261 24.2976 35.8852 23.9895 35.7805C23.6845 35.6724 23.4162 35.5114 23.1849 35.2976C22.9568 35.0835 22.7742 34.8242 22.6373 34.5197C22.5004 34.2151 22.4181 33.8778 22.3905 33.5078L22.3753 33.3033C22.3434 32.8748 22.3783 32.4894 22.4801 32.1471C22.5816 31.8016 22.7325 31.5052 22.9328 31.2579C23.1331 31.0105 23.3668 30.8182 23.634 30.6808C23.9012 30.5435 24.1826 30.4656 24.4783 30.4471C24.8551 30.4236 25.1849 30.4682 25.4675 30.581C25.7533 30.6937 25.9926 30.8613 26.1855 31.0841C26.3781 31.3036 26.5284 31.5682 26.6363 31.8778C26.744 32.1842 26.8116 32.5224 26.8392 32.8925L26.8693 33.2966L22.9317 33.5425L22.8769 32.8072L25.913 32.6176L25.9079 32.5495C25.8775 32.3166 25.8118 32.0924 25.7109 31.8769C25.6132 31.6612 25.4697 31.4876 25.2804 31.3559C25.0911 31.2242 24.8421 31.168 24.5334 31.1873C24.3288 31.2 24.1436 31.2556 23.9779 31.354C23.812 31.4492 23.6736 31.585 23.5628 31.7615C23.4519 31.938 23.3714 32.1502 23.3213 32.3979C23.2712 32.6456 23.258 32.9285 23.2817 33.2467L23.297 33.4512C23.3156 33.7011 23.3673 33.9344 23.4519 34.1508C23.5396 34.3639 23.6562 34.549 23.8018 34.7062C23.9506 34.8633 24.1243 34.9829 24.323 35.0651C24.525 35.147 24.7494 35.1803 24.9963 35.1649C25.3147 35.145 25.5795 35.0632 25.7908 34.9196C26.002 34.776 26.1824 34.5902 26.3319 34.3624L26.91 34.7617C26.8091 34.9408 26.6767 35.1138 26.5129 35.2805C26.3491 35.4473 26.1424 35.5874 25.893 35.7008C25.6469 35.814 25.35 35.8815 25.0024 35.9032ZM28.67 31.1149L29.001 35.5557L28.0994 35.612L27.7068 30.3434L28.584 30.2886L28.67 31.1149ZM30.2534 30.155L30.3109 30.9929C30.235 30.9813 30.1628 30.976 30.0943 30.977C30.0288 30.9746 29.9539 30.976 29.8694 30.9813C29.6615 30.9943 29.4803 31.0382 29.326 31.1131C29.1716 31.1879 29.0436 31.2872 28.9418 31.411C28.8401 31.5348 28.7627 31.6798 28.7099 31.8462C28.66 32.0091 28.6324 32.1869 28.6272 32.3797L28.3847 32.5416C28.361 32.2235 28.3696 31.9229 28.4105 31.6398C28.4547 31.3566 28.5354 31.1037 28.6526 30.8812C28.7696 30.6553 28.926 30.476 29.1217 30.3431C29.3205 30.2068 29.5628 30.1297 29.8487 30.1118C29.9137 30.1078 29.989 30.1112 30.0747 30.1222C30.1601 30.1299 30.2197 30.1408 30.2534 30.155ZM33.5794 35.3677C33.2123 35.3906 32.8747 35.3497 32.5666 35.245C32.2615 35.1369 31.9933 34.9759 31.7619 34.762C31.5338 34.548 31.3513 34.2887 31.2144 33.9841C31.0774 33.6796 30.9952 33.3423 30.9676 32.9722L30.9524 32.7677C30.9204 32.3392 30.9554 31.9538 31.0571 31.6116C31.1587 31.2661 31.3096 30.9696 31.5099 30.7223C31.7101 30.475 31.9438 30.2827 32.211 30.1453C32.4782 30.008 32.7597 29.9301 33.0553 29.9116C33.4322 29.8881 33.7619 29.9327 34.0445 30.0455C34.3303 30.1581 34.5697 30.3258 34.7625 30.5486C34.9551 30.7681 35.1054 31.0327 35.2134 31.3423C35.3211 31.6486 35.3887 31.9869 35.4163 32.3569L35.4464 32.7611L31.5087 33.0069L31.4539 32.2717L34.49 32.0821L34.4849 32.0139C34.4545 31.781 34.3889 31.5568 34.2879 31.3414C34.1903 31.1257 34.0468 30.952 33.8574 30.8203C33.6681 30.6887 33.4191 30.6325 33.1105 30.6517C32.9058 30.6645 32.7206 30.7201 32.555 30.8185C32.3891 30.9137 32.2507 31.0495 32.1398 31.226C32.0289 31.4025 31.9484 31.6146 31.8984 31.8624C31.8483 32.1101 31.8351 32.393 31.8588 32.7111L31.874 32.9156C31.8927 33.1656 31.9443 33.3988 32.029 33.6153C32.1167 33.8283 32.2333 34.0135 32.3788 34.1707C32.5276 34.3277 32.7014 34.4474 32.9001 34.5295C33.102 34.6115 33.3264 34.6448 33.5733 34.6294C33.8917 34.6095 34.1566 34.5277 34.3678 34.3841C34.5791 34.2404 34.7594 34.0547 34.9089 33.8268L35.487 34.2261C35.3861 34.4053 35.2538 34.5782 35.0899 34.745C34.9261 34.9118 34.7195 35.0519 34.4701 35.1653C34.2239 35.2785 33.927 35.346 33.5794 35.3677ZM42.1182 33.3327C42.1085 33.2028 42.0703 33.0846 42.0036 32.9778C41.9399 32.8677 41.8169 32.7726 41.6347 32.6927C41.4555 32.6093 41.1896 32.5444 40.8368 32.4979C40.5399 32.4545 40.2696 32.398 40.0262 32.3284C39.786 32.2586 39.5785 32.1688 39.4039 32.059C39.2325 31.9491 39.0969 31.8157 38.9971 31.6588C38.8973 31.502 38.8392 31.3148 38.823 31.0973C38.8076 30.8896 38.8384 30.6903 38.9156 30.4996C38.996 30.3087 39.1154 30.1366 39.2737 29.9832C39.4352 29.8296 39.6332 29.7047 39.8676 29.6086C40.1019 29.5124 40.3669 29.4551 40.6626 29.4366C41.0849 29.4102 41.4511 29.4624 41.7611 29.5931C42.0712 29.7237 42.3151 29.9091 42.4929 30.1491C42.6705 30.3858 42.7705 30.6552 42.793 30.9571L41.8915 31.0134C41.8806 30.8673 41.8262 30.7288 41.7283 30.598C41.6334 30.4636 41.4998 30.3562 41.3273 30.2757C41.1581 30.1949 40.9549 30.1619 40.7177 30.1768C40.4676 30.1924 40.2674 30.244 40.1173 30.3316C39.9701 30.4158 39.8652 30.5186 39.8024 30.6399C39.7429 30.7611 39.718 30.8865 39.7277 31.0164C39.7349 31.1138 39.7577 31.2004 39.796 31.2763C39.8373 31.3487 39.9042 31.4147 39.9968 31.4741C40.0891 31.5303 40.2169 31.581 40.3802 31.6263C40.5435 31.6715 40.7507 31.714 41.0017 31.7538C41.4411 31.8242 41.8055 31.9189 42.0951 32.0378C42.3847 32.1566 42.6051 32.3108 42.7563 32.5003C42.9075 32.6898 42.9936 32.9258 43.0146 33.2082C43.0318 33.4387 42.9988 33.6527 42.9156 33.8504C42.8357 34.0478 42.7099 34.2219 42.5384 34.3729C42.3699 34.5204 42.1634 34.6409 41.9191 34.7344C41.6777 34.8245 41.4027 34.8792 41.0941 34.8985C40.6295 34.9275 40.2302 34.8692 39.8962 34.7238C39.5622 34.5783 39.3026 34.3793 39.1173 34.1267C38.932 33.8741 38.8285 33.6017 38.8067 33.3095L39.7132 33.2529C39.7446 33.4988 39.8307 33.6908 39.9715 33.8287C40.1121 33.9634 40.2789 34.0558 40.472 34.1057C40.6647 34.1523 40.8537 34.1699 41.0389 34.1583C41.2858 34.1429 41.4897 34.0976 41.6506 34.0223C41.8147 33.9468 41.9364 33.8495 42.0156 33.7304C42.0949 33.6114 42.129 33.4788 42.1182 33.3327ZM46.5035 34.5607C46.1363 34.5836 45.7987 34.5427 45.4906 34.4381C45.1856 34.3299 44.9173 34.1689 44.686 33.9551C44.4579 33.741 44.2753 33.4817 44.1384 33.1772C44.0015 32.8727 43.9192 32.5354 43.8916 32.1653L43.8764 31.9608C43.8445 31.5323 43.8794 31.1469 43.9812 30.8046C44.0827 30.4591 44.2336 30.1627 44.4339 29.9154C44.6342 29.668 44.8679 29.4757 45.1351 29.3384C45.4023 29.201 45.6837 29.1231 45.9794 29.1046C46.3562 29.0811 46.686 29.1258 46.9686 29.2386C47.2544 29.3512 47.4937 29.5189 47.6866 29.7416C47.8792 29.9612 48.0295 30.2257 48.1374 30.5353C48.2451 30.8417 48.3127 31.1799 48.3403 31.55L48.3704 31.9541L44.4328 32.2L44.378 31.4647L47.4141 31.2752L47.409 31.207C47.3786 30.9741 47.3129 30.7499 47.212 30.5344C47.1143 30.3187 46.9708 30.1451 46.7815 30.0134C46.5922 29.8817 46.3432 29.8255 46.0345 29.8448C45.8298 29.8576 45.6447 29.9131 45.479 30.0115C45.3131 30.1067 45.1747 30.2425 45.0638 30.419C44.953 30.5956 44.8725 30.8077 44.8224 31.0554C44.7723 31.3031 44.7591 31.5861 44.7828 31.9042L44.7981 32.1087C44.8167 32.3586 44.8684 32.5919 44.953 32.8084C45.0407 33.0214 45.1573 33.2065 45.3029 33.3638C45.4517 33.5208 45.6254 33.6404 45.8241 33.7226C46.0261 33.8045 46.2505 33.8378 46.4974 33.8224C46.8158 33.8025 47.0806 33.7208 47.2919 33.5771C47.5031 33.4335 47.6835 33.2477 47.833 33.0199L48.4111 33.4192C48.3102 33.5983 48.1778 33.7713 48.014 33.9381C47.8502 34.1048 47.6435 34.2449 47.3941 34.3583C47.148 34.4715 46.8511 34.539 46.5035 34.5607ZM51.7959 34.2303C51.4288 34.2532 51.0912 34.2123 50.7831 34.1076C50.478 33.9995 50.2098 33.8385 49.9784 33.6246C49.7503 33.4106 49.5678 33.1513 49.4308 32.8467C49.2939 32.5422 49.2116 32.2049 49.1841 31.8348L49.1688 31.6303C49.1369 31.2018 49.1718 30.8164 49.2736 30.4742C49.3752 30.1287 49.5261 29.8322 49.7263 29.5849C49.9266 29.3376 50.1603 29.1453 50.4275 29.0079C50.6947 28.8706 50.9762 28.7927 51.2718 28.7742C51.6487 28.7507 51.9784 28.7953 52.261 28.9081C52.5468 29.0207 52.7862 29.1884 52.979 29.4112C53.1716 29.6307 53.3219 29.8953 53.4298 30.2049C53.5375 30.5112 53.6052 30.8495 53.6327 31.2195L53.6629 31.6237L49.7252 31.8695L49.6704 31.1343L52.7065 30.9447L52.7014 30.8765C52.671 30.6436 52.6053 30.4194 52.5044 30.204C52.4068 29.9883 52.2633 29.8146 52.0739 29.6829C51.8846 29.5513 51.6356 29.4951 51.327 29.5143C51.1223 29.5271 50.9371 29.5827 50.7714 29.6811C50.6055 29.7763 50.4672 29.9121 50.3563 30.0886C50.2454 30.2651 50.1649 30.4772 50.1148 30.7249C50.0648 30.9727 50.0516 31.2556 50.0753 31.5737L50.0905 31.7782C50.1091 32.0282 50.1608 32.2614 50.2455 32.4779C50.3331 32.6909 50.4498 32.8761 50.5953 33.0333C50.7441 33.1903 50.9178 33.31 51.1165 33.3921C51.3185 33.4741 51.5429 33.5074 51.7898 33.492C52.1082 33.4721 52.373 33.3903 52.5843 33.2467C52.7955 33.103 52.9759 32.9173 53.1254 32.6894L53.7035 33.0887C53.6026 33.2679 53.4702 33.4408 53.3064 33.6076C53.1426 33.7744 52.936 33.9145 52.6866 34.0279C52.4404 34.1411 52.1435 34.2086 51.7959 34.2303ZM55.475 29.6614L55.7896 33.8831L54.8832 33.9397L54.4906 28.6711L55.3483 28.6175L55.475 29.6614ZM55.3933 31.0607L54.9731 31.0722C54.9495 30.7117 54.9718 30.376 55.04 30.0652C55.108 29.7511 55.2229 29.4749 55.3846 29.2365C55.5464 28.9981 55.7559 28.8089 56.0131 28.6689C56.2701 28.5257 56.574 28.4431 56.9249 28.4212C57.1718 28.4058 57.4019 28.4273 57.6151 28.4858C57.8281 28.5409 58.0165 28.6384 58.1804 28.7782C58.3442 28.918 58.477 29.1021 58.5789 29.3306C58.6808 29.559 58.7441 29.8388 58.7688 30.1699L59.0304 33.6807L58.1288 33.737L57.8705 30.2701C57.8499 29.9941 57.7863 29.7763 57.6798 29.6167C57.5765 29.4568 57.4376 29.3448 57.2631 29.2807C57.0883 29.2133 56.8872 29.1867 56.6598 29.2009C56.3934 29.2176 56.1744 29.2785 56.0027 29.3838C55.831 29.4891 55.6978 29.6279 55.6029 29.8001C55.508 29.9724 55.4442 30.1672 55.4114 30.3845C55.3816 30.5983 55.3756 30.8237 55.3933 31.0607ZM58.7724 30.3507L58.1819 30.5735C58.1637 30.2844 58.1901 30.0039 58.2612 29.732C58.3356 29.4599 58.4528 29.2145 58.6127 28.9958C58.7759 28.7769 58.983 28.5993 59.234 28.4629C59.4847 28.3234 59.7774 28.2431 60.112 28.2222C60.3947 28.2046 60.6476 28.2263 60.8708 28.2874C61.0973 28.3482 61.2911 28.4519 61.4522 28.5984C61.6162 28.7414 61.7462 28.9306 61.8421 29.166C61.938 29.4013 61.9982 29.6846 62.0229 30.0157L62.2809 33.4778L61.3745 33.5344L61.1157 30.0625C61.0937 29.7671 61.0296 29.5412 60.9232 29.3848C60.8199 29.2249 60.6814 29.1178 60.5076 29.0634C60.3368 29.0056 60.1361 28.9839 59.9055 28.9983C59.7073 29.0106 59.5344 29.0557 59.3868 29.1334C59.2391 29.2111 59.1178 29.3132 59.0228 29.4398C58.9276 29.5632 58.858 29.7029 58.8141 29.8589C58.7735 30.0147 58.7596 30.1787 58.7724 30.3507ZM66.6115 31.8034C66.6018 31.6735 66.5636 31.5552 66.4969 31.4485C66.4332 31.3383 66.3103 31.2433 66.128 31.1634C65.9488 31.08 65.6829 31.015 65.3302 30.9686C65.0332 30.9252 64.7629 30.8686 64.5195 30.7991C64.2793 30.7293 64.0718 30.6395 63.8972 30.5297C63.7258 30.4197 63.5902 30.2863 63.4904 30.1295C63.3906 29.9727 63.3326 29.7855 63.3164 29.568C63.3009 29.3603 63.3317 29.161 63.4089 28.9703C63.4893 28.7794 63.6087 28.6072 63.767 28.4539C63.9285 28.3003 64.1265 28.1754 64.3609 28.0792C64.5952 27.9831 64.8602 27.9258 65.1559 27.9073C65.5783 27.8809 65.9444 27.9331 66.2545 28.0637C66.5645 28.1944 66.8084 28.3797 66.9862 28.6198C67.1638 28.8565 67.2639 29.1259 67.2864 29.4278L66.3848 29.4841C66.3739 29.338 66.3195 29.1995 66.2216 29.0686C66.1268 28.9343 65.9931 28.8269 65.8206 28.7463C65.6514 28.6656 65.4482 28.6326 65.2111 28.6474C64.9609 28.6631 64.7607 28.7147 64.6106 28.8023C64.4635 28.8865 64.3585 28.9893 64.2957 29.1106C64.2362 29.2317 64.2113 29.3572 64.221 29.4871C64.2282 29.5845 64.251 29.6711 64.2893 29.747C64.3306 29.8194 64.3975 29.8853 64.4901 29.9448C64.5824 30.001 64.7102 30.0517 64.8735 30.097C65.0368 30.1422 65.244 30.1847 65.495 30.2245C65.9344 30.2949 66.2989 30.3895 66.5884 30.5084C66.878 30.6273 67.0984 30.7815 67.2496 30.971C67.4008 31.1605 67.4869 31.3965 67.508 31.6789C67.5251 31.9094 67.4921 32.1234 67.4089 32.321C67.329 32.5185 67.2032 32.6926 67.0317 32.8436C66.8632 32.9911 66.6567 33.1116 66.4124 33.2051C66.171 33.2952 65.896 33.3499 65.5874 33.3691C65.1228 33.3982 64.7235 33.3399 64.3895 33.1944C64.0556 33.049 63.7959 32.8499 63.6106 32.5973C63.4254 32.3447 63.3218 32.0724 63.3001 31.7802L64.2065 31.7236C64.2379 31.9695 64.324 32.1614 64.4648 32.2994C64.6054 32.4341 64.7722 32.5264 64.9653 32.5764C65.1581 32.623 65.347 32.6406 65.5322 32.629C65.7791 32.6136 65.983 32.5682 66.1439 32.493C66.308 32.4175 66.4297 32.3202 66.5089 32.2011C66.5882 32.082 66.6224 31.9494 66.6115 31.8034ZM73.092 27.5096L73.1436 28.2011L70.2927 28.3791L70.2412 27.6876L73.092 27.5096ZM71.1106 26.3467L72.0122 26.2905L72.403 31.5347C72.4163 31.7132 72.454 31.8462 72.516 31.9337C72.578 32.0211 72.6539 32.0767 72.7438 32.1005C72.8337 32.1242 72.929 32.1329 73.0297 32.1266C73.1045 32.122 73.1819 32.1106 73.2622 32.0926C73.3455 32.071 73.4079 32.0541 73.4494 32.0417L73.509 32.7767C73.4392 32.8039 73.3466 32.8309 73.2311 32.8576C73.1191 32.8875 72.9818 32.9074 72.8194 32.9176C72.5985 32.9314 72.3922 32.9002 72.2004 32.8242C72.0087 32.7481 71.85 32.6112 71.7243 32.4136C71.6016 32.2125 71.5272 31.9367 71.5011 31.5861L71.1106 26.3467ZM74.014 30.1573L74.0056 30.0453C73.9773 29.6655 74.0063 29.3099 74.0926 28.9783C74.1786 28.6436 74.3166 28.3496 74.5067 28.0964C74.6964 27.8399 74.9342 27.6359 75.2199 27.4844C75.5054 27.3296 75.8317 27.2407 76.1988 27.2178C76.5692 27.1947 76.9073 27.2421 77.2131 27.3599C77.5219 27.4744 77.7894 27.6468 78.0154 27.8773C78.2445 28.1043 78.4265 28.3783 78.5614 28.6993C78.6961 29.017 78.7775 29.3658 78.8058 29.7456L78.8142 29.8576C78.8425 30.2374 78.8135 30.5931 78.7272 30.9246C78.641 31.2561 78.5013 31.5502 78.3083 31.8068C78.1182 32.06 77.8805 32.264 77.595 32.4188C77.3125 32.5702 76.9861 32.6574 76.6157 32.6806C76.2453 32.7037 75.9074 32.6579 75.6018 32.5433C75.296 32.4254 75.0286 32.253 74.7995 32.0259C74.5734 31.7954 74.393 31.5213 74.2584 31.2036C74.1237 30.8859 74.0423 30.5371 74.014 30.1573ZM74.9072 29.989L74.9155 30.101C74.9351 30.364 74.9845 30.6104 75.0636 30.8402C75.1425 31.0669 75.2504 31.2656 75.3871 31.4364C75.5271 31.6071 75.6952 31.7384 75.8914 31.8306C76.0873 31.9194 76.3104 31.956 76.5606 31.9404C76.8075 31.925 77.0198 31.8612 77.1975 31.749C77.3782 31.6334 77.5236 31.4824 77.6337 31.2962C77.7439 31.1099 77.8212 30.8996 77.8658 30.6653C77.9134 30.4275 77.9273 30.1771 77.9077 29.9142L77.8994 29.8022C77.88 29.5425 77.8293 29.2994 77.7471 29.073C77.668 28.8431 77.5584 28.6429 77.4184 28.4723C77.2814 28.2982 77.1148 28.1651 76.9186 28.073C76.7257 27.9807 76.5042 27.9423 76.254 27.9579C76.0071 27.9734 75.7933 28.0389 75.6126 28.1545C75.4351 28.27 75.2898 28.4225 75.1767 28.6122C75.0665 28.7985 74.9893 29.0104 74.945 29.248C74.9004 29.4823 74.8878 29.7293 74.9072 29.989ZM82.0502 24.7293L82.9566 24.6727L83.4378 31.1295L83.436 32.1569L82.6075 32.2086L82.0502 24.7293ZM86.8768 29.2515L86.8844 29.3537C86.9129 29.7368 86.894 30.0951 86.8274 30.4286C86.7606 30.7589 86.6485 31.0496 86.4909 31.3008C86.3334 31.552 86.1329 31.752 85.8894 31.901C85.6459 32.0499 85.3601 32.1346 85.0319 32.1551C84.6973 32.176 84.3991 32.1375 84.1372 32.0397C83.8783 31.9385 83.6547 31.7845 83.4663 31.5777C83.2779 31.371 83.1202 31.1167 82.9933 30.8148C82.8696 30.5127 82.7738 30.1697 82.706 29.7858L82.6727 29.3378C82.6826 28.9459 82.7265 28.5925 82.8042 28.2779C82.8852 27.963 83.0037 27.6914 83.1597 27.4632C83.3154 27.2317 83.5141 27.0513 83.7558 26.9221C83.9973 26.7896 84.2837 26.713 84.6151 26.6923C84.9465 26.6716 85.2453 26.7182 85.5117 26.832C85.7778 26.9426 86.0057 27.111 86.1956 27.3372C86.3887 27.5632 86.543 27.8389 86.6587 28.1644C86.7741 28.4866 86.8468 28.8489 86.8768 29.2515ZM85.978 29.4103L85.9703 29.3081C85.9508 29.0451 85.908 28.7999 85.8421 28.5725C85.7759 28.3418 85.6827 28.1422 85.5625 27.9736C85.4419 27.8017 85.2902 27.6709 85.1073 27.5813C84.9241 27.4883 84.7042 27.4499 84.4475 27.4659C84.2201 27.4801 84.0248 27.5314 83.8617 27.6199C83.7018 27.7082 83.5683 27.8225 83.4613 27.9629C83.354 28.1 83.2693 28.2553 83.2071 28.4288C83.148 28.5988 83.1072 28.7742 83.0848 28.955L83.1722 30.1285C83.2411 30.3525 83.3419 30.5663 83.4746 30.77C83.6103 30.9703 83.7822 31.1308 83.9903 31.2515C84.2017 31.372 84.4552 31.423 84.7508 31.4046C84.9945 31.3894 85.1988 31.3277 85.3637 31.2196C85.5316 31.108 85.6627 30.9612 85.7568 30.7792C85.8542 30.597 85.9203 30.389 85.9551 30.1553C85.99 29.9216 85.9976 29.6732 85.978 29.4103ZM90.4121 31.8191C90.045 31.8421 89.7074 31.8012 89.3993 31.6965C89.0942 31.5883 88.826 31.4273 88.5946 31.2135C88.3665 30.9995 88.184 30.7402 88.047 30.4356C87.9101 30.1311 87.8279 29.7938 87.8003 29.4237L87.785 29.2192C87.7531 28.7907 87.788 28.4053 87.8898 28.0631C87.9914 27.7175 88.1423 27.4211 88.3425 27.1738C88.5428 26.9265 88.7765 26.7341 89.0437 26.5968C89.3109 26.4594 89.5924 26.3815 89.888 26.3631C90.2649 26.3395 90.5946 26.3842 90.8772 26.497C91.163 26.6096 91.4024 26.7773 91.5952 27.0001C91.7878 27.2196 91.9381 27.4842 92.046 27.7938C92.1537 28.1001 92.2214 28.4383 92.2489 28.8084L92.2791 29.2126L88.3414 29.4584L88.2866 28.7231L91.3227 28.5336L91.3176 28.4654C91.2872 28.2325 91.2216 28.0083 91.1206 27.7928C91.023 27.5772 90.8795 27.4035 90.6901 27.2718C90.5008 27.1401 90.2518 27.0839 89.9432 27.1032C89.7385 27.116 89.5533 27.1716 89.3877 27.27C89.2218 27.3651 89.0834 27.501 88.9725 27.6775C88.8616 27.854 88.7811 28.0661 88.731 28.3138C88.681 28.5616 88.6678 28.8445 88.6915 29.1626L88.7067 29.3671C88.7253 29.6171 88.777 29.8503 88.8617 30.0668C88.9494 30.2798 89.066 30.4649 89.2115 30.6222C89.3603 30.7792 89.534 30.8988 89.7327 30.981C89.9347 31.063 90.1591 31.0962 90.406 31.0808C90.7244 31.061 90.9892 30.9792 91.2005 30.8355C91.4117 30.6919 91.5921 30.5062 91.7416 30.2783L92.3197 30.6776C92.2188 30.8568 92.0864 31.0297 91.9226 31.1965C91.7588 31.3633 91.5522 31.5034 91.3028 31.6168C91.0566 31.73 90.7597 31.7974 90.4121 31.8191ZM98.9508 29.7842C98.9412 29.6543 98.903 29.536 98.8363 29.4293C98.7726 29.3191 98.6496 29.2241 98.4674 29.1441C98.2882 29.0608 98.0222 28.9958 97.6695 28.9494C97.3725 28.9059 97.1023 28.8494 96.8589 28.7798C96.6186 28.71 96.4112 28.6203 96.2366 28.5105C96.0652 28.4005 95.9296 28.2671 95.8298 28.1103C95.7299 27.9535 95.6719 27.7663 95.6557 27.5488C95.6402 27.3411 95.6711 27.1418 95.7483 26.9511C95.8287 26.7602 95.9481 26.588 96.1064 26.4347C96.2679 26.2811 96.4659 26.1562 96.7002 26.06C96.9346 25.9639 97.1996 25.9066 97.4953 25.8881C97.9176 25.8617 98.2838 25.9139 98.5938 26.0445C98.9039 26.1752 99.1478 26.3605 99.3256 26.6006C99.5032 26.8373 99.6032 27.1067 99.6257 27.4086L98.7242 27.4648C98.7133 27.3188 98.6589 27.1803 98.561 27.0494C98.4661 26.9151 98.3325 26.8077 98.16 26.7271C97.9908 26.6464 97.7876 26.6134 97.5504 26.6282C97.3003 26.6438 97.1001 26.6955 96.95 26.7831C96.8028 26.8673 96.6979 26.9701 96.6351 27.0914C96.5756 27.2125 96.5507 27.338 96.5603 27.4679C96.5676 27.5653 96.5904 27.6519 96.6287 27.7278C96.67 27.8002 96.7369 27.8661 96.8295 27.9256C96.9218 27.9818 97.0496 28.0325 97.2129 28.0778C97.3762 28.123 97.5834 28.1655 97.8344 28.2053C98.2738 28.2757 98.6382 28.3703 98.9278 28.4892C99.2173 28.6081 99.4377 28.7623 99.5889 28.9518C99.7402 29.1413 99.8263 29.3773 99.8473 29.6597C99.8645 29.8902 99.8315 30.1042 99.7483 30.3018C99.6684 30.4992 99.5426 30.6734 99.3711 30.8244C99.2025 30.9719 98.9961 31.0924 98.7517 31.1859C98.5104 31.276 98.2354 31.3307 97.9268 31.3499C97.4622 31.3789 97.0629 31.3207 96.7289 31.1752C96.3949 31.0298 96.1353 30.8307 95.95 30.5781C95.7647 30.3255 95.6612 30.0532 95.6394 29.761L96.5459 29.7044C96.5772 29.9503 96.6634 30.1422 96.8042 30.2802C96.9448 30.4149 97.1116 30.5072 97.3046 30.5571C97.4974 30.6038 97.6864 30.6214 97.8716 30.6098C98.1185 30.5944 98.3224 30.549 98.4833 30.4738C98.6474 30.3983 98.769 30.301 98.8483 30.1819C98.9275 30.0628 98.9617 29.9302 98.9508 29.7842ZM100.71 28.4905L100.702 28.3785C100.673 27.9987 100.702 27.643 100.789 27.3115C100.875 26.9767 101.013 26.6827 101.203 26.4295C101.392 26.1731 101.63 25.9691 101.916 25.8175C102.201 25.6627 102.528 25.5739 102.895 25.5509C103.265 25.5278 103.603 25.5752 103.909 25.6931C104.218 25.8075 104.485 25.98 104.712 26.2105C104.941 26.4375 105.123 26.7115 105.257 27.0325C105.392 27.3502 105.474 27.6989 105.502 28.0788L105.51 28.1907C105.539 28.5706 105.51 28.9262 105.423 29.2577C105.337 29.5893 105.197 29.8833 105.004 30.14C104.814 30.3932 104.577 30.5972 104.291 30.752C104.009 30.9033 103.682 30.9906 103.312 31.0137C102.941 31.0368 102.603 30.9911 102.298 30.8764C101.992 30.7586 101.725 30.5861 101.496 30.3591C101.269 30.1286 101.089 29.8545 100.954 29.5368C100.82 29.219 100.738 28.8703 100.71 28.4905ZM101.603 28.3222L101.612 28.4342C101.631 28.6971 101.681 28.9435 101.76 29.1734C101.839 29.4 101.946 29.5988 102.083 29.7696C102.223 29.9402 102.391 30.0716 102.587 30.1637C102.783 30.2526 103.006 30.2892 103.257 30.2736C103.504 30.2582 103.716 30.1943 103.894 30.0822C104.074 29.9665 104.22 29.8156 104.33 29.6293C104.44 29.4431 104.517 29.2328 104.562 28.9984C104.609 28.7607 104.623 28.5103 104.604 28.2473L104.595 28.1354C104.576 27.8757 104.525 27.6326 104.443 27.4062C104.364 27.1763 104.254 26.976 104.114 26.8054C103.977 26.6313 103.811 26.4982 103.615 26.4061C103.422 26.3138 103.2 26.2755 102.95 26.2911C102.703 26.3065 102.489 26.372 102.309 26.4877C102.131 26.6031 101.986 26.7557 101.873 26.9454C101.763 27.1316 101.685 27.3436 101.641 27.5811C101.596 27.8155 101.584 28.0625 101.603 28.3222ZM107.415 26.4183L107.729 30.64L106.823 30.6966L106.43 25.428L107.288 25.3745L107.415 26.4183ZM107.333 27.8177L106.913 27.8292C106.889 27.4687 106.912 27.133 106.98 26.8222C107.048 26.5081 107.163 26.2319 107.324 25.9935C107.486 25.7551 107.696 25.5659 107.953 25.4259C108.21 25.2827 108.514 25.2001 108.865 25.1782C109.112 25.1628 109.342 25.1843 109.555 25.2427C109.768 25.2979 109.956 25.3954 110.12 25.5352C110.284 25.675 110.417 25.8591 110.519 26.0876C110.621 26.316 110.684 26.5958 110.709 26.9269L110.97 30.4377L110.069 30.494L109.81 27.027C109.79 26.7511 109.726 26.5333 109.62 26.3736C109.516 26.2138 109.377 26.1018 109.203 26.0376C109.028 25.9703 108.827 25.9437 108.6 25.9579C108.333 25.9745 108.114 26.0355 107.943 26.1408C107.771 26.2461 107.638 26.3849 107.543 26.5571C107.448 26.7294 107.384 26.9241 107.351 27.1414C107.322 27.3553 107.315 27.5807 107.333 27.8177ZM110.712 27.1077L110.122 27.3305C110.104 27.0413 110.13 26.7608 110.201 26.489C110.275 26.2169 110.393 25.9715 110.553 25.7528C110.716 25.5339 110.923 25.3563 111.174 25.2199C111.425 25.0803 111.717 25.0001 112.052 24.9792C112.335 24.9616 112.587 24.9833 112.811 25.0443C113.037 25.1052 113.231 25.2089 113.392 25.3554C113.556 25.4984 113.686 25.6876 113.782 25.923C113.878 26.1583 113.938 26.4415 113.963 26.7727L114.221 30.2347L113.314 30.2913L113.056 26.8195C113.034 26.5241 112.969 26.2982 112.863 26.1418C112.76 25.9819 112.621 25.8748 112.447 25.8204C112.277 25.7626 112.076 25.7408 111.845 25.7552C111.647 25.7676 111.474 25.8127 111.327 25.8904C111.179 25.9681 111.058 26.0702 110.963 26.1968C110.867 26.3202 110.798 26.4599 110.754 26.6159C110.713 26.7717 110.699 26.9356 110.712 27.1077ZM117.781 30.1103C117.414 30.1332 117.076 30.0923 116.768 29.9876C116.463 29.8795 116.195 29.7185 115.963 29.5047C115.735 29.2906 115.553 29.0313 115.416 28.7268C115.279 28.4222 115.196 28.0849 115.169 27.7149L115.154 27.5104C115.122 27.0819 115.157 26.6965 115.258 26.3542C115.36 26.0087 115.511 25.7123 115.711 25.465C115.911 25.2176 116.145 25.0253 116.412 24.888C116.68 24.7506 116.961 24.6727 117.257 24.6542C117.633 24.6307 117.963 24.6753 118.246 24.7881C118.532 24.9008 118.771 25.0684 118.964 25.2912C119.156 25.5107 119.307 25.7753 119.415 26.0849C119.522 26.3913 119.59 26.7295 119.618 27.0996L119.648 27.5037L115.71 27.7496L115.655 27.0143L118.691 26.8247L118.686 26.7566C118.656 26.5237 118.59 26.2995 118.489 26.084C118.392 25.8683 118.248 25.6947 118.059 25.563C117.869 25.4313 117.62 25.3751 117.312 25.3944C117.107 25.4071 116.922 25.4627 116.756 25.5611C116.59 25.6563 116.452 25.7921 116.341 25.9686C116.23 26.1451 116.15 26.3573 116.1 26.605C116.05 26.8527 116.036 27.1356 116.06 27.4538L116.075 27.6583C116.094 27.9082 116.146 28.1415 116.23 28.3579C116.318 28.571 116.435 28.7561 116.58 28.9133C116.729 29.0704 116.903 29.19 117.101 29.2722C117.303 29.3541 117.528 29.3874 117.775 29.372C118.093 29.3521 118.358 29.2703 118.569 29.1267C118.78 28.9831 118.961 28.7973 119.11 28.5695L119.688 28.9688C119.587 29.1479 119.455 29.3209 119.291 29.4877C119.127 29.6544 118.921 29.7945 118.671 29.9079C118.425 30.0211 118.128 30.0886 117.781 30.1103ZM122.693 24.4126L122.744 25.1041L119.893 25.2821L119.842 24.5907L122.693 24.4126ZM120.711 23.2498L121.613 23.1935L122.004 28.4377C122.017 28.6163 122.055 28.7493 122.117 28.8367C122.179 28.9242 122.255 28.9798 122.344 29.0035C122.434 29.0272 122.53 29.036 122.63 29.0297C122.705 29.025 122.783 29.0136 122.863 28.9956C122.946 28.9741 123.009 28.9571 123.05 28.9448L123.11 29.6797C123.04 29.7069 122.947 29.7339 122.832 29.7607C122.72 29.7905 122.583 29.8105 122.42 29.8206C122.199 29.8344 121.993 29.8033 121.801 29.7272C121.609 29.6511 121.451 29.5143 121.325 29.3166C121.202 29.1156 121.128 28.8397 121.102 28.4892L120.711 23.2498ZM124.487 22.0797L125.044 29.5589L124.143 29.6152L123.585 22.136L124.487 22.0797ZM124.619 26.7384L124.242 26.7472C124.219 26.3867 124.248 26.0506 124.329 25.7389C124.41 25.4241 124.536 25.1471 124.708 24.9081C124.879 24.6691 125.09 24.4798 125.341 24.3402C125.595 24.1972 125.881 24.1158 126.199 24.0959C126.459 24.0796 126.696 24.1008 126.909 24.1592C127.122 24.2144 127.307 24.3137 127.465 24.4571C127.626 24.6004 127.754 24.7913 127.85 25.0299C127.946 25.2652 128.007 25.5566 128.033 25.9039L128.29 29.3563L127.384 29.4129L127.126 25.9508C127.105 25.6749 127.048 25.4567 126.954 25.2962C126.861 25.1324 126.733 25.0181 126.571 24.9532C126.41 24.885 126.215 24.858 125.988 24.8722C125.764 24.8862 125.562 24.9461 125.384 25.0518C125.209 25.1573 125.061 25.297 124.941 25.4708C124.823 25.6445 124.735 25.8408 124.676 26.0597C124.62 26.2752 124.601 26.5014 124.619 26.7384ZM130.227 23.9422L130.619 29.2108L129.713 29.2674L129.32 23.9988L130.227 23.9422ZM129.148 22.6056C129.137 22.4595 129.172 22.3334 129.252 22.2273C129.336 22.121 129.465 22.0624 129.64 22.0514C129.813 22.0407 129.948 22.0828 130.046 22.1777C130.148 22.2725 130.204 22.3929 130.215 22.539C130.226 22.6785 130.188 22.8016 130.101 22.9081C130.017 23.0112 129.889 23.0681 129.717 23.0788C129.542 23.0898 129.405 23.0494 129.307 22.9577C129.211 22.8626 129.158 22.7452 129.148 22.6056ZM132.66 24.9204L132.968 29.0642L132.067 29.1205L131.674 23.8519L132.527 23.7986L132.66 24.9204ZM132.543 26.2436L132.166 26.2524C132.143 25.8919 132.172 25.5558 132.253 25.2442C132.334 24.9293 132.46 24.6524 132.632 24.4134C132.803 24.1744 133.014 23.9851 133.265 23.8455C133.519 23.7025 133.805 23.621 134.123 23.6011C134.383 23.5849 134.62 23.606 134.833 23.6644C135.046 23.7196 135.231 23.8189 135.389 23.9624C135.55 24.1056 135.678 24.2965 135.774 24.5351C135.87 24.7705 135.931 25.0618 135.957 25.4092L136.214 28.8615L135.308 28.9181L135.05 25.456C135.029 25.1801 134.972 24.9619 134.878 24.8014C134.785 24.6377 134.657 24.5233 134.495 24.4584C134.334 24.3903 134.139 24.3633 133.912 24.3775C133.688 24.3915 133.486 24.4513 133.308 24.557C133.133 24.6625 132.985 24.8022 132.865 24.9761C132.747 25.1497 132.659 25.346 132.6 25.565C132.544 25.7804 132.525 26.0066 132.543 26.2436ZM140.607 23.2941L141.426 23.243L141.81 28.3996C141.845 28.8638 141.78 29.2657 141.616 29.6054C141.452 29.945 141.207 30.2098 140.882 30.3997C140.56 30.5926 140.18 30.7028 139.741 30.7301C139.559 30.7415 139.343 30.7257 139.092 30.6827C138.844 30.6427 138.596 30.5619 138.349 30.4404C138.105 30.3219 137.895 30.154 137.719 29.9367L138.152 29.3716C138.392 29.624 138.637 29.7946 138.885 29.8835C139.137 29.9722 139.381 30.0091 139.618 29.9943C139.904 29.9764 140.147 29.9074 140.347 29.7873C140.547 29.6672 140.696 29.4981 140.794 29.28C140.895 29.065 140.934 28.8049 140.912 28.4997L140.611 24.4582L140.607 23.2941ZM137.177 26.2135L137.169 26.1113C137.139 25.7087 137.159 25.3406 137.229 25.0069C137.302 24.6697 137.419 24.377 137.58 24.1289C137.744 23.8805 137.95 23.6851 138.197 23.5424C138.444 23.3965 138.728 23.3136 139.05 23.2935C139.381 23.2728 139.675 23.3132 139.931 23.4146C140.189 23.5126 140.413 23.6666 140.602 23.8766C140.793 24.0831 140.951 24.3375 141.075 24.6396C141.198 24.9417 141.294 25.2863 141.362 25.6734L141.395 26.1214C141.389 26.5099 141.345 26.8616 141.264 27.1765C141.186 27.4912 141.067 27.7627 140.908 27.9912C140.752 28.2194 140.553 28.3998 140.312 28.5323C140.07 28.6615 139.782 28.7366 139.447 28.7575C139.132 28.7771 138.841 28.7284 138.575 28.6114C138.312 28.4941 138.08 28.321 137.88 28.0922C137.68 27.8633 137.52 27.5896 137.398 27.2711C137.279 26.9491 137.206 26.5966 137.177 26.2135ZM138.071 26.055L138.079 26.1572C138.098 26.4202 138.143 26.6653 138.212 26.8925C138.284 27.1195 138.382 27.3173 138.506 27.4857C138.632 27.6538 138.787 27.7828 138.97 27.8725C139.153 27.9589 139.366 27.9945 139.61 27.9793C139.909 27.9606 140.151 27.8819 140.336 27.7431C140.522 27.6044 140.664 27.4275 140.762 27.2127C140.863 26.9976 140.938 26.7663 140.984 26.5188L140.897 25.3453C140.848 25.169 140.78 25.0004 140.693 24.8395C140.609 24.6752 140.503 24.5317 140.377 24.4092C140.253 24.2832 140.104 24.1865 139.929 24.1191C139.754 24.0518 139.553 24.0252 139.326 24.0394C139.079 24.0548 138.87 24.1201 138.699 24.2351C138.531 24.3467 138.397 24.4953 138.297 24.6809C138.199 24.8631 138.132 25.0728 138.094 25.31C138.059 25.5437 138.051 25.792 138.071 26.055ZM146.929 27.2532L147.961 22.835L148.555 22.7978L148.503 23.667L147.452 28.1598L146.872 28.1961L146.929 27.2532ZM145.695 22.9764L147.176 27.2867L147.325 28.1678L146.716 28.2058L144.793 23.0327L145.695 22.9764ZM150.176 27.0652L150.953 22.6481L151.85 22.5921L150.712 27.9563L150.108 27.994L150.176 27.0652ZM148.687 22.7896L150.33 26.9675L150.556 27.966L149.981 28.0019L148.234 23.674L148.053 22.8292L148.687 22.7896ZM153.739 23.3058L154.07 27.7466L153.168 27.8029L152.776 22.5343L153.653 22.4796L153.739 23.3058ZM155.322 22.346L155.38 23.1838C155.304 23.1722 155.232 23.167 155.163 23.168C155.098 23.1655 155.023 23.167 154.938 23.1722C154.73 23.1852 154.549 23.2291 154.395 23.304C154.241 23.3789 154.113 23.4782 154.011 23.6019C153.909 23.7257 153.832 23.8708 153.779 24.0371C153.729 24.2 153.701 24.3779 153.696 24.5706L153.454 24.7325C153.43 24.4144 153.439 24.1138 153.479 23.8308C153.524 23.5476 153.604 23.2947 153.722 23.0721C153.839 22.8463 153.995 22.6669 154.191 22.534C154.389 22.3977 154.632 22.3206 154.918 22.3028C154.983 22.2987 155.058 22.3021 155.144 22.3131C155.229 22.3208 155.289 22.3318 155.322 22.346ZM156.022 25.0369L156.014 24.9249C155.986 24.5451 156.015 24.1894 156.101 23.8579C156.187 23.5231 156.325 23.2292 156.515 22.9759C156.705 22.7195 156.942 22.5155 157.228 22.3639C157.514 22.2091 157.84 22.1203 158.207 22.0974C158.577 22.0742 158.916 22.1216 159.221 22.2395C159.53 22.3539 159.798 22.5264 160.024 22.7569C160.253 22.9839 160.435 23.2579 160.57 23.5789C160.704 23.8966 160.786 24.2454 160.814 24.6252L160.822 24.7372C160.851 25.117 160.822 25.4726 160.735 25.8041C160.649 26.1357 160.51 26.4297 160.317 26.6864C160.127 26.9396 159.889 27.1436 159.603 27.2984C159.321 27.4498 158.994 27.537 158.624 27.5601C158.254 27.5832 157.916 27.5375 157.61 27.4229C157.304 27.305 157.037 27.1325 156.808 26.9055C156.582 26.675 156.401 26.4009 156.267 26.0832C156.132 25.7654 156.051 25.4167 156.022 25.0369ZM156.915 24.8686L156.924 24.9806C156.943 25.2435 156.993 25.4899 157.072 25.7198C157.151 25.9464 157.259 26.1452 157.395 26.316C157.535 26.4866 157.704 26.618 157.9 26.7101C158.096 26.799 158.319 26.8356 158.569 26.82C158.816 26.8046 159.028 26.7408 159.206 26.6286C159.386 26.5129 159.532 26.362 159.642 26.1757C159.752 25.9895 159.83 25.7792 159.874 25.5448C159.922 25.3071 159.936 25.0567 159.916 24.7938L159.908 24.6818C159.888 24.4221 159.838 24.179 159.755 23.9526C159.676 23.7227 159.567 23.5225 159.427 23.3518C159.29 23.1777 159.123 23.0447 158.927 22.9525C158.734 22.8602 158.512 22.8219 158.262 22.8375C158.015 22.8529 157.802 22.9184 157.621 23.0341C157.443 23.1495 157.298 23.3021 157.185 23.4918C157.075 23.678 156.998 23.89 156.953 24.1275C156.909 24.3619 156.896 24.6089 156.915 24.8686ZM162.738 23.0424L163.047 27.1861L162.145 27.2424L161.752 21.9738L162.605 21.9206L162.738 23.0424ZM162.621 24.3656L162.245 24.3744C162.221 24.0139 162.25 23.6778 162.331 23.3662C162.412 23.0513 162.538 22.7743 162.71 22.5353C162.881 22.2963 163.092 22.107 163.343 21.9675C163.597 21.8244 163.883 21.743 164.201 21.7231C164.461 21.7069 164.698 21.728 164.911 21.7864C165.124 21.8416 165.309 21.9409 165.467 22.0844C165.628 22.2276 165.756 22.4185 165.852 22.6571C165.948 22.8925 166.009 23.1838 166.035 23.5311L166.292 26.9835L165.386 27.0401L165.128 23.578C165.107 23.3021 165.05 23.0839 164.957 22.9234C164.863 22.7597 164.735 22.6453 164.574 22.5804C164.412 22.5122 164.217 22.4852 163.99 22.4994C163.766 22.5134 163.565 22.5733 163.386 22.679C163.211 22.7845 163.064 22.9242 162.943 23.0981C162.825 23.2717 162.737 23.468 162.678 23.6869C162.622 23.9024 162.603 24.1286 162.621 24.3656ZM170.685 21.4161L171.504 21.365L171.888 26.5216C171.923 26.9858 171.858 27.3877 171.694 27.7273C171.53 28.067 171.285 28.3317 170.96 28.5216C170.638 28.7146 170.258 28.8247 169.819 28.8521C169.638 28.8635 169.421 28.8477 169.17 28.8046C168.922 28.7647 168.674 28.6839 168.427 28.5624C168.183 28.4439 167.973 28.276 167.797 28.0587L168.23 27.4936C168.471 27.746 168.715 27.9166 168.963 28.0055C169.215 28.0941 169.459 28.1311 169.696 28.1162C169.982 28.0984 170.225 28.0294 170.425 27.9093C170.625 27.7892 170.774 27.6201 170.872 27.402C170.973 27.1869 171.013 26.9268 170.99 26.6217L170.689 22.5802L170.685 21.4161ZM167.255 24.3355L167.248 24.2333C167.218 23.8307 167.238 23.4626 167.307 23.1288C167.38 22.7916 167.497 22.499 167.658 22.2508C167.822 22.0025 168.028 21.807 168.275 21.6644C168.522 21.5185 168.807 21.4355 169.128 21.4155C169.46 21.3948 169.753 21.4352 170.009 21.5366C170.267 21.6346 170.491 21.7886 170.68 21.9986C170.871 22.2051 171.029 22.4594 171.153 22.7615C171.276 23.0636 171.372 23.4083 171.44 23.7954L171.474 24.2433C171.467 24.6319 171.423 24.9836 171.342 25.2985C171.264 25.6131 171.145 25.8847 170.986 26.1132C170.83 26.3414 170.632 26.5218 170.39 26.6542C170.148 26.7835 169.86 26.8585 169.526 26.8794C169.21 26.8991 168.92 26.8504 168.653 26.7334C168.39 26.6161 168.158 26.443 167.958 26.2142C167.758 25.9853 167.598 25.7116 167.476 25.3931C167.357 25.0711 167.284 24.7186 167.255 24.3355ZM168.149 24.177L168.157 24.2792C168.176 24.5422 168.221 24.7873 168.29 25.0145C168.362 25.2415 168.46 25.4392 168.584 25.6076C168.711 25.7758 168.865 25.9048 169.048 25.9944C169.231 26.0809 169.444 26.1165 169.688 26.1013C169.987 26.0826 170.229 26.0039 170.415 25.8651C170.6 25.7263 170.742 25.5495 170.84 25.3347C170.942 25.1196 171.016 24.8883 171.063 24.6408L170.975 23.4673C170.926 23.291 170.858 23.1224 170.771 22.9615C170.687 22.7971 170.582 22.6537 170.455 22.5312C170.331 22.4052 170.182 22.3085 170.007 22.2411C169.833 22.1738 169.632 22.1472 169.404 22.1614C169.157 22.1768 168.948 22.242 168.777 22.3571C168.609 22.4687 168.475 22.6173 168.375 22.8029C168.277 22.9851 168.21 23.1948 168.172 23.432C168.137 23.6657 168.13 23.914 168.149 24.177ZM12.8879 45.0777L13.4452 52.557L12.5437 52.6133L11.9863 45.134L12.8879 45.0777ZM13.0196 49.7364L12.6433 49.7452C12.6197 49.3847 12.6485 49.0486 12.7297 48.737C12.8107 48.4221 12.937 48.1452 13.1085 47.9062C13.28 47.6672 13.4911 47.4779 13.7418 47.3383C13.9955 47.1952 14.2816 47.1138 14.6 47.0939C14.8599 47.0777 15.0965 47.0988 15.3097 47.1572C15.5227 47.2124 15.708 47.3117 15.8656 47.4552C16.0264 47.5984 16.1549 47.7893 16.251 48.0279C16.3468 48.2633 16.4077 48.5546 16.4336 48.902L16.6909 52.3543L15.7844 52.4109L15.5264 48.9488C15.5059 48.6729 15.4488 48.4547 15.3553 48.2942C15.2615 48.1305 15.1338 48.0161 14.9723 47.9512C14.8105 47.883 14.616 47.8561 14.3885 47.8703C14.1644 47.8843 13.9632 47.9441 13.785 48.0498C13.6101 48.1553 13.4622 48.295 13.3413 48.4689C13.2237 48.6425 13.1355 48.8388 13.0768 49.0578C13.021 49.2732 13.002 49.4994 13.0196 49.7364ZM20.2362 52.2308C19.869 52.2537 19.5314 52.2128 19.2233 52.1081C18.9183 52 18.65 51.839 18.4187 51.6251C18.1906 51.4111 18.008 51.1518 17.8711 50.8473C17.7342 50.5427 17.6519 50.2054 17.6243 49.8354L17.6091 49.6309C17.5772 49.2024 17.6121 48.817 17.7139 48.4747C17.8154 48.1292 17.9663 47.8328 18.1666 47.5854C18.3669 47.3381 18.6006 47.1458 18.8678 47.0084C19.135 46.8711 19.4164 46.7932 19.7121 46.7747C20.0889 46.7512 20.4187 46.7958 20.7013 46.9086C20.9871 47.0212 21.2264 47.1889 21.4193 47.4117C21.6119 47.6312 21.7622 47.8958 21.8701 48.2054C21.9778 48.5118 22.0454 48.85 22.073 49.2201L22.1031 49.6242L18.1655 49.8701L18.1107 49.1348L21.1468 48.9452L21.1417 48.8771C21.1113 48.6441 21.0456 48.42 20.9447 48.2045C20.847 47.9888 20.7035 47.8151 20.5142 47.6835C20.3249 47.5518 20.0759 47.4956 19.7672 47.5149C19.5626 47.5276 19.3774 47.5832 19.2117 47.6816C19.0458 47.7768 18.9074 47.9126 18.7966 48.0891C18.6857 48.2656 18.6052 48.4778 18.5551 48.7255C18.505 48.9732 18.4918 49.2561 18.5155 49.5743L18.5308 49.7788C18.5494 50.0287 18.6011 50.2619 18.6857 50.4784C18.7734 50.6915 18.89 50.8766 19.0356 51.0338C19.1844 51.1909 19.3581 51.3105 19.5568 51.3927C19.7588 51.4746 19.9832 51.5079 20.2301 51.4925C20.5485 51.4726 20.8133 51.3908 21.0246 51.2472C21.2358 51.1036 21.4162 50.9178 21.5657 50.69L22.1438 51.0893C22.0429 51.2684 21.9105 51.4414 21.7467 51.6081C21.5829 51.7749 21.3762 51.915 21.1268 52.0284C20.8807 52.1416 20.5838 52.2091 20.2362 52.2308ZM23.9039 47.4425L24.2348 51.8833L23.3332 51.9396L22.9406 46.671L23.8178 46.6162L23.9039 47.4425ZM25.4872 46.4826L25.5447 47.3205C25.4688 47.3089 25.3966 47.3036 25.3281 47.3046C25.2626 47.3022 25.1877 47.3036 25.1032 47.3089C24.8953 47.3219 24.7141 47.3658 24.5598 47.4407C24.4054 47.5155 24.2774 47.6148 24.1756 47.7386C24.0739 47.8623 23.9965 48.0074 23.9437 48.1738C23.8938 48.3367 23.8662 48.5145 23.861 48.7073L23.6185 48.8692C23.5948 48.551 23.6034 48.2505 23.6443 47.9674C23.6885 47.6842 23.7692 47.4313 23.8864 47.2087C24.0034 46.9829 24.1598 46.8036 24.3555 46.6707C24.5543 46.5344 24.7966 46.4573 25.0825 46.4394C25.1475 46.4353 25.2228 46.4388 25.3085 46.4498C25.3939 46.4575 25.4535 46.4684 25.4872 46.4826ZM28.8132 51.6953C28.4461 51.7182 28.1085 51.6773 27.8004 51.5726C27.4953 51.4645 27.2271 51.3035 26.9957 51.0896C26.7676 50.8756 26.5851 50.6163 26.4482 50.3117C26.3112 50.0072 26.229 49.6699 26.2014 49.2998L26.1862 49.0953C26.1542 48.6668 26.1892 48.2814 26.2909 47.9392C26.3925 47.5936 26.5434 47.2972 26.7437 47.0499C26.9439 46.8026 27.1776 46.6103 27.4448 46.4729C27.7121 46.3356 27.9935 46.2576 28.2891 46.2392C28.666 46.2157 28.9957 46.2603 29.2783 46.3731C29.5641 46.4857 29.8035 46.6534 29.9963 46.8762C30.189 47.0957 30.3392 47.3603 30.4472 47.6699C30.5549 47.9762 30.6225 48.3145 30.6501 48.6845L30.6802 49.0887L26.7425 49.3345L26.6877 48.5993L29.7238 48.4097L29.7187 48.3415C29.6883 48.1086 29.6227 47.8844 29.5217 47.669C29.4241 47.4533 29.2806 47.2796 29.0912 47.1479C28.9019 47.0163 28.6529 46.9601 28.3443 46.9793C28.1396 46.9921 27.9544 47.0477 27.7888 47.1461C27.6229 47.2412 27.4845 47.3771 27.3736 47.5536C27.2627 47.7301 27.1822 47.9422 27.1322 48.1899C27.0821 48.4377 27.0689 48.7206 27.0926 49.0387L27.1078 49.2432C27.1265 49.4932 27.1781 49.7264 27.2628 49.9429C27.3505 50.1559 27.4671 50.3411 27.6126 50.4983C27.7614 50.6553 27.9352 50.7749 28.1339 50.8571C28.3358 50.9391 28.5602 50.9724 28.8072 50.9569C29.1255 50.9371 29.3904 50.8553 29.6016 50.7117C29.8129 50.568 29.9932 50.3823 30.1427 50.1544L30.7208 50.5537C30.6199 50.7329 30.4876 50.9058 30.3237 51.0726C30.1599 51.2394 29.9533 51.3795 29.7039 51.4929C29.4577 51.6061 29.1608 51.6735 28.8132 51.6953ZM37.352 49.6603C37.3423 49.5304 37.3041 49.4121 37.2374 49.3054C37.1737 49.1953 37.0507 49.1002 36.8685 49.0203C36.6893 48.9369 36.4234 48.8719 36.0706 48.8255C35.7737 48.7821 35.5034 48.7256 35.26 48.656C35.0198 48.5862 34.8123 48.4964 34.6377 48.3866C34.4663 48.2767 34.3307 48.1433 34.2309 47.9864C34.1311 47.8296 34.073 47.6424 34.0568 47.4249C34.0414 47.2172 34.0722 47.0179 34.1494 46.8272C34.2298 46.6363 34.3492 46.4642 34.5075 46.3108C34.669 46.1572 34.867 46.0323 35.1014 45.9361C35.3357 45.84 35.6007 45.7827 35.8964 45.7642C36.3187 45.7378 36.6849 45.79 36.995 45.9206C37.305 46.0513 37.5489 46.2366 37.7267 46.4767C37.9043 46.7134 38.0043 46.9828 38.0268 47.2847L37.1253 47.341C37.1144 47.1949 37.06 47.0564 36.9621 46.9255C36.8672 46.7912 36.7336 46.6838 36.5611 46.6033C36.3919 46.5225 36.1887 46.4895 35.9515 46.5043C35.7014 46.52 35.5012 46.5716 35.3511 46.6592C35.2039 46.7434 35.099 46.8462 35.0362 46.9675C34.9767 47.0886 34.9518 47.2141 34.9615 47.344C34.9687 47.4414 34.9915 47.528 35.0298 47.6039C35.0711 47.6763 35.138 47.7423 35.2306 47.8017C35.3229 47.8579 35.4507 47.9086 35.614 47.9539C35.7773 47.9991 35.9845 48.0416 36.2355 48.0814C36.6749 48.1518 37.0393 48.2464 37.3289 48.3653C37.6185 48.4842 37.8389 48.6384 37.9901 48.8279C38.1413 49.0174 38.2274 49.2534 38.2484 49.5358C38.2656 49.7663 38.2326 49.9803 38.1494 50.178C38.0695 50.3754 37.9437 50.5495 37.7722 50.7005C37.6037 50.848 37.3972 50.9685 37.1529 51.062C36.9115 51.1521 36.6365 51.2068 36.3279 51.2261C35.8633 51.2551 35.464 51.1968 35.13 51.0514C34.796 50.9059 34.5364 50.7068 34.3511 50.4542C34.1658 50.2016 34.0623 49.9293 34.0405 49.6371L34.947 49.5805C34.9784 49.8264 35.0645 50.0183 35.2053 50.1563C35.3459 50.291 35.5127 50.3833 35.7058 50.4333C35.8985 50.4799 36.0875 50.4975 36.2727 50.4859C36.5196 50.4705 36.7235 50.4252 36.8844 50.3499C37.0485 50.2744 37.1702 50.1771 37.2494 50.058C37.3287 49.9389 37.3628 49.8064 37.352 49.6603ZM39.1111 48.3666L39.1028 48.2546C39.0745 47.8748 39.1035 47.5191 39.1897 47.1876C39.2758 46.8528 39.4138 46.5589 39.6038 46.3057C39.7936 46.0492 40.0314 45.8452 40.3171 45.6936C40.6026 45.5388 40.9289 45.45 41.296 45.4271C41.6664 45.4039 42.0045 45.4513 42.3103 45.5692C42.6191 45.6836 42.8866 45.8561 43.1126 46.0866C43.3417 46.3136 43.5237 46.5876 43.6586 46.9086C43.7932 47.2263 43.8747 47.5751 43.903 47.9549L43.9114 48.0669C43.9397 48.4467 43.9107 48.8023 43.8244 49.1338C43.7381 49.4654 43.5985 49.7595 43.4054 50.0161C43.2154 50.2693 42.9777 50.4733 42.6922 50.6281C42.4097 50.7795 42.0833 50.8667 41.7129 50.8898C41.3425 50.9129 41.0046 50.8672 40.699 50.7526C40.3932 50.6347 40.1257 50.4622 39.8967 50.2352C39.6706 50.0047 39.4902 49.7306 39.3556 49.4129C39.2209 49.0952 39.1394 48.7464 39.1111 48.3666ZM40.0044 48.1983L40.0127 48.3103C40.0323 48.5732 40.0817 48.8196 40.1608 49.0495C40.2397 49.2761 40.3475 49.4749 40.4843 49.6457C40.6243 49.8163 40.7924 49.9477 40.9886 50.0398C41.1845 50.1287 41.4076 50.1653 41.6577 50.1497C41.9047 50.1343 42.117 50.0705 42.2946 49.9583C42.4753 49.8426 42.6208 49.6917 42.7309 49.5054C42.8411 49.3192 42.9184 49.1089 42.963 48.8746C43.0105 48.6368 43.0245 48.3864 43.0049 48.1235L42.9966 48.0115C42.9772 47.7518 42.9265 47.5087 42.8443 47.2823C42.7652 47.0524 42.6556 46.8522 42.5156 46.6815C42.3786 46.5075 42.212 46.3744 42.0158 46.2822C41.8229 46.1899 41.6013 46.1516 41.3512 46.1672C41.1043 46.1826 40.8905 46.2481 40.7098 46.3638C40.5323 46.4792 40.387 46.6318 40.2739 46.8215C40.1637 47.0077 40.0865 47.2197 40.0422 47.4572C39.9976 47.6916 39.985 47.9386 40.0044 48.1983ZM48.3265 43.2563L48.8548 50.3461L47.9142 50.4048L47.3859 43.3151L48.3265 43.2563ZM53.489 45.7811L53.957 52.0625L53.0506 52.1191L52.507 44.8249L53.3355 44.7732L53.489 45.7811ZM57.1592 47.137L57.1668 47.2392C57.1953 47.6223 57.1763 47.9806 57.1098 48.3141C57.043 48.6444 56.9309 48.9352 56.7733 49.1863C56.619 49.4373 56.4202 49.6372 56.1767 49.7862C55.9332 49.9351 55.6473 50.0198 55.3192 50.0403C54.9846 50.0612 54.6848 50.0244 54.4199 49.9301C54.155 49.8357 53.9254 49.6887 53.731 49.4888C53.5366 49.289 53.3747 49.0447 53.2455 48.756C53.1195 48.4671 53.0233 48.1388 52.9567 47.7711L52.9161 47.2258C52.926 46.8338 52.9731 46.4803 53.0574 46.1652C53.1416 45.8501 53.2633 45.5783 53.4226 45.3499C53.5848 45.118 53.7884 44.9373 54.0333 44.8079C54.278 44.6752 54.5661 44.5985 54.8975 44.5778C55.2289 44.5571 55.5277 44.6037 55.7941 44.7175C56.0601 44.8281 56.2897 44.9964 56.4828 45.2224C56.6759 45.4484 56.8287 45.7243 56.9411 46.0499C57.0565 46.3721 57.1292 46.7344 57.1592 47.137ZM56.2604 47.2958L56.2527 47.1936C56.2331 46.9306 56.1871 46.6856 56.1147 46.4586C56.0421 46.2283 55.9408 46.0292 55.8107 45.8612C55.6837 45.6897 55.5271 45.5593 55.3409 45.4698C55.1545 45.3771 54.9378 45.3384 54.6909 45.3539C54.4635 45.3681 54.2682 45.4194 54.1051 45.5078C53.9452 45.5961 53.8117 45.7104 53.7047 45.8508C53.5974 45.988 53.5127 46.1433 53.4505 46.3168C53.3914 46.4868 53.3506 46.6622 53.3282 46.8429L53.4222 48.1041C53.5041 48.3273 53.611 48.5358 53.743 48.7298C53.8747 48.9205 54.0426 49.0715 54.2467 49.1827C54.4506 49.2906 54.7004 49.3353 54.996 49.3169C55.2397 49.3017 55.4455 49.2383 55.6134 49.1267C55.7844 49.0116 55.9201 48.8613 56.0205 48.6757C56.1241 48.4898 56.195 48.2799 56.233 48.046C56.2708 47.8088 56.28 47.5588 56.2604 47.2958ZM61.6443 48.3245L61.3424 44.2732L62.2488 44.2166L62.6414 49.4852L61.7788 49.5391L61.6443 48.3245ZM61.7321 47.2037L62.1066 47.1705C62.1328 47.5211 62.1196 47.848 62.0671 48.1514C62.0177 48.4512 61.9198 48.715 61.7736 48.9426C61.6273 49.1703 61.4272 49.354 61.1733 49.4938C60.9191 49.6303 60.6035 49.7103 60.2266 49.7339C59.97 49.7499 59.7317 49.7273 59.5117 49.666C59.2949 49.6045 59.1044 49.5006 58.9401 49.3543C58.7758 49.2081 58.6421 49.0126 58.539 48.7679C58.4391 48.523 58.3761 48.2253 58.35 47.8747L58.0967 44.4759L58.9983 44.4196L59.2523 47.8281C59.27 48.0651 59.3106 48.2599 59.3742 48.4124C59.4408 48.5616 59.523 48.6787 59.6207 48.7639C59.7215 48.8457 59.83 48.9009 59.9464 48.9295C60.066 48.9579 60.1875 48.9683 60.311 48.9606C60.6944 48.9366 60.9927 48.8446 61.206 48.6845C61.419 48.5212 61.565 48.3115 61.6438 48.0555C61.7257 47.796 61.7551 47.5121 61.7321 47.2037ZM65.8307 43.993L65.8822 44.6844L63.0313 44.8624L62.9798 44.171L65.8307 43.993ZM63.8493 42.8301L64.7509 42.7738L65.1417 48.0181C65.155 48.1966 65.1926 48.3296 65.2546 48.4171C65.3166 48.5045 65.3926 48.5601 65.4825 48.5838C65.5724 48.6076 65.6677 48.6163 65.7684 48.61C65.8431 48.6054 65.9206 48.594 66.0009 48.5759C66.0841 48.5544 66.1465 48.5375 66.188 48.5251L66.2477 49.2601C66.1779 49.2873 66.0853 49.3142 65.9698 49.341C65.8577 49.3708 65.7205 49.3908 65.5581 49.401C65.3371 49.4148 65.1308 49.3836 64.9391 49.3075C64.7474 49.2315 64.5887 49.0946 64.463 48.897C64.3403 48.6959 64.2659 48.4201 64.2397 48.0695L63.8493 42.8301ZM71.5715 43.6346L71.623 44.326L68.7721 44.504L68.7206 43.8126L71.5715 43.6346ZM69.5901 42.4717L70.4916 42.4154L70.8824 47.6596C70.8957 47.8382 70.9334 47.9712 70.9954 48.0586C71.0574 48.1461 71.1334 48.2017 71.2233 48.2254C71.3131 48.2491 71.4085 48.2579 71.5092 48.2516C71.5839 48.2469 71.6614 48.2356 71.7416 48.2175C71.8249 48.196 71.8873 48.179 71.9288 48.1667L71.9885 48.9016C71.9187 48.9288 71.826 48.9558 71.7105 48.9826C71.5985 49.0124 71.4613 49.0324 71.2988 49.0425C71.0779 49.0563 70.8716 49.0252 70.6799 48.9491C70.4882 48.873 70.3294 48.7362 70.2037 48.5385C70.081 48.3375 70.0066 48.0617 69.9805 47.7111L69.5901 42.4717ZM73.3658 41.3016L73.9232 48.7808L73.0216 48.8371L72.4643 41.3579L73.3658 41.3016ZM73.4976 45.9603L73.1212 45.9691C73.0976 45.6086 73.1264 45.2725 73.2077 44.9609C73.2886 44.646 73.4149 44.369 73.5864 44.13C73.7579 43.891 73.969 43.7017 74.2197 43.5622C74.4734 43.4191 74.7595 43.3377 75.0779 43.3178C75.3378 43.3016 75.5744 43.3227 75.7876 43.3811C76.0006 43.4363 76.1859 43.5356 76.3435 43.679C76.5043 43.8223 76.6328 44.0132 76.7289 44.2518C76.8248 44.4872 76.8857 44.7785 76.9115 45.1258L77.1688 48.5782L76.2624 48.6348L76.0044 45.1727C75.9838 44.8968 75.9268 44.6786 75.8332 44.5181C75.7394 44.3543 75.6117 44.24 75.4502 44.1751C75.2885 44.1069 75.0939 44.0799 74.8665 44.0941C74.6423 44.1081 74.4411 44.168 74.2629 44.2737C74.088 44.3792 73.9401 44.5189 73.8193 44.6927C73.7016 44.8664 73.6135 45.0627 73.5547 45.2816C73.4989 45.4971 73.4799 45.7233 73.4976 45.9603ZM79.1056 43.1641L79.4982 48.4327L78.5918 48.4893L78.1992 43.2207L79.1056 43.1641ZM78.0268 41.8275C78.016 41.6814 78.0506 41.5553 78.1308 41.4492C78.2143 41.3429 78.3438 41.2843 78.5192 41.2733C78.6914 41.2626 78.8267 41.3047 78.9252 41.3996C79.0269 41.4944 79.0832 41.6148 79.0941 41.7609C79.1045 41.9005 79.0663 42.0235 78.9796 42.13C78.8959 42.2331 78.768 42.29 78.5958 42.3007C78.4203 42.3117 78.2835 42.2713 78.1853 42.1796C78.09 42.0845 78.0372 41.9671 78.0268 41.8275ZM83.9117 46.7532C83.902 46.6233 83.8638 46.505 83.7971 46.3983C83.7334 46.2882 83.6105 46.1931 83.4282 46.1132C83.249 46.0298 82.9831 45.9648 82.6304 45.9184C82.3334 45.875 82.0631 45.8185 81.8197 45.7489C81.5795 45.6791 81.3721 45.5893 81.1974 45.4795C81.026 45.3696 80.8904 45.2362 80.7906 45.0793C80.6908 44.9225 80.6328 44.7353 80.6166 44.5178C80.6011 44.3101 80.6319 44.1108 80.7091 43.9201C80.7895 43.7292 80.9089 43.5571 81.0672 43.4037C81.2287 43.2501 81.4267 43.1252 81.6611 43.029C81.8954 42.9329 82.1605 42.8756 82.4561 42.8571C82.8785 42.8307 83.2446 42.8829 83.5547 43.0135C83.8647 43.1442 84.1086 43.3295 84.2864 43.5696C84.464 43.8063 84.5641 44.0757 84.5866 44.3776L83.685 44.4339C83.6741 44.2878 83.6197 44.1493 83.5218 44.0184C83.427 43.8841 83.2933 43.7767 83.1208 43.6962C82.9516 43.6154 82.7484 43.5824 82.5113 43.5972C82.2611 43.6129 82.0609 43.6645 81.9108 43.7521C81.7637 43.8363 81.6587 43.9391 81.5959 44.0604C81.5364 44.1815 81.5115 44.307 81.5212 44.4369C81.5284 44.5343 81.5512 44.6209 81.5895 44.6968C81.6308 44.7692 81.6977 44.8352 81.7903 44.8946C81.8826 44.9508 82.0104 45.0015 82.1737 45.0468C82.337 45.092 82.5442 45.1345 82.7952 45.1743C83.2346 45.2447 83.5991 45.3393 83.8886 45.4582C84.1782 45.5771 84.3986 45.7313 84.5498 45.9208C84.701 46.1103 84.7871 46.3463 84.8082 46.6287C84.8253 46.8592 84.7923 47.0732 84.7091 47.2709C84.6292 47.4683 84.5035 47.6424 84.3319 47.7934C84.1634 47.9409 83.9569 48.0614 83.7126 48.1549C83.4712 48.245 83.1962 48.2997 82.8876 48.319C82.423 48.348 82.0237 48.2897 81.6897 48.1443C81.3558 47.9988 81.0961 47.7997 80.9108 47.5471C80.7256 47.2945 80.622 47.0222 80.6003 46.73L81.5067 46.6734C81.5381 46.9193 81.6242 47.1112 81.765 47.2492C81.9056 47.3839 82.0724 47.4762 82.2655 47.5262C82.4583 47.5728 82.6473 47.5904 82.8324 47.5788C83.0794 47.5634 83.2832 47.5181 83.4441 47.4428C83.6082 47.3673 83.7299 47.27 83.8091 47.1509C83.8884 47.0318 83.9226 46.8993 83.9117 46.7532ZM89.17 43.6658L89.4788 47.8096L88.5772 47.8659L88.1846 42.5973L89.0375 42.544L89.17 43.6658ZM89.0532 44.989L88.6769 44.9978C88.6533 44.6373 88.6821 44.3012 88.7633 43.9896C88.8443 43.6747 88.9705 43.3978 89.142 43.1588C89.3135 42.9198 89.5246 42.7305 89.7754 42.5909C90.0291 42.4479 90.3151 42.3664 90.6335 42.3465C90.8934 42.3303 91.13 42.3514 91.3433 42.4098C91.5563 42.465 91.7416 42.5643 91.8991 42.7078C92.06 42.851 92.1884 43.0419 92.2845 43.2805C92.3804 43.5159 92.4413 43.8072 92.4672 44.1546L92.7244 47.6069L91.818 47.6635L91.56 44.2014C91.5395 43.9255 91.4824 43.7073 91.3888 43.5468C91.295 43.3831 91.1674 43.2688 91.0059 43.2038C90.8441 43.1357 90.6495 43.1087 90.4221 43.1229C90.1979 43.1369 89.9968 43.1967 89.8186 43.3024C89.6437 43.4079 89.4958 43.5476 89.3749 43.7215C89.2573 43.8952 89.1691 44.0914 89.1103 44.3104C89.0546 44.5258 89.0355 44.752 89.0532 44.989ZM93.6631 44.9605L93.6548 44.8485C93.6265 44.4687 93.6554 44.113 93.7417 43.7815C93.8277 43.4467 93.9658 43.1527 94.1558 42.8995C94.3456 42.6431 94.5833 42.4391 94.8691 42.2875C95.1546 42.1327 95.4809 42.0439 95.848 42.0209C96.2184 41.9978 96.5565 42.0452 96.8623 42.1631C97.1711 42.2775 97.4385 42.45 97.6646 42.6804C97.8937 42.9075 98.0757 43.1815 98.2106 43.5025C98.3452 43.8202 98.4267 44.1689 98.455 44.5487L98.4633 44.6607C98.4916 45.0405 98.4626 45.3962 98.3764 45.7277C98.2901 46.0592 98.1505 46.3533 97.9574 46.61C97.7674 46.8632 97.5296 47.0672 97.2441 47.222C96.9617 47.3733 96.6352 47.4606 96.2649 47.4837C95.8945 47.5068 95.5565 47.4611 95.251 47.3464C94.9451 47.2286 94.6777 47.0561 94.4486 46.8291C94.2226 46.5986 94.0422 46.3245 93.9075 46.0068C93.7729 45.689 93.6914 45.3403 93.6631 44.9605ZM94.5563 44.7922L94.5647 44.9042C94.5843 45.1671 94.6336 45.4135 94.7128 45.6434C94.7917 45.87 94.8995 46.0687 95.0363 46.2396C95.1763 46.4102 95.3444 46.5416 95.5406 46.6337C95.7365 46.7226 95.9595 46.7592 96.2097 46.7436C96.4566 46.7281 96.6689 46.6643 96.8466 46.5521C97.0273 46.4365 97.1727 46.2856 97.2829 46.0993C97.393 45.9131 97.4704 45.7028 97.5149 45.4684C97.5625 45.2306 97.5765 44.9803 97.5569 44.7173L97.5485 44.6053C97.5292 44.3456 97.4784 44.1026 97.3963 43.8762C97.3171 43.6463 97.2076 43.446 97.0676 43.2754C96.9305 43.1013 96.764 42.9682 96.5678 42.8761C96.3749 42.7838 96.1533 42.7455 95.9031 42.7611C95.6562 42.7765 95.4424 42.842 95.2617 42.9577C95.0843 43.0731 94.939 43.2257 94.8258 43.4154C94.7157 43.6016 94.6384 43.8135 94.5941 44.0511C94.5496 44.2855 94.537 44.5325 94.5563 44.7922ZM101.601 41.7596L101.652 42.451L98.8015 42.629L98.75 41.9376L101.601 41.7596ZM99.6195 40.5967L100.521 40.5404L100.912 45.7847C100.925 45.9632 100.963 46.0962 101.025 46.1836C101.087 46.2711 101.163 46.3267 101.253 46.3504C101.343 46.3742 101.438 46.3829 101.539 46.3766C101.613 46.3719 101.691 46.3606 101.771 46.3425C101.854 46.321 101.917 46.3041 101.958 46.2917L102.018 47.0267C101.948 47.0538 101.855 47.0808 101.74 47.1076C101.628 47.1374 101.491 47.1574 101.328 47.1676C101.107 47.1813 100.901 47.1502 100.709 47.0741C100.518 46.998 100.359 46.8612 100.233 46.6636C100.11 46.4625 100.036 46.1867 100.01 45.8361L99.6195 40.5967ZM105.246 46.9229C104.879 46.9458 104.542 46.9049 104.234 46.8003C103.928 46.6921 103.66 46.5311 103.429 46.3173C103.201 46.1032 103.018 45.8439 102.881 45.5394C102.744 45.2349 102.662 44.8976 102.635 44.5275L102.619 44.323C102.587 43.8945 102.622 43.5091 102.724 43.1668C102.826 42.8213 102.977 42.5249 103.177 42.2776C103.377 42.0303 103.611 41.8379 103.878 41.7006C104.145 41.5632 104.427 41.4853 104.722 41.4668C105.099 41.4433 105.429 41.488 105.711 41.6008C105.997 41.7134 106.237 41.8811 106.43 42.1038C106.622 42.3234 106.772 42.5879 106.88 42.8975C106.988 43.2039 107.056 43.5421 107.083 43.9122L107.113 44.3163L103.176 44.5622L103.121 43.8269L106.157 43.6374L106.152 43.5692C106.122 43.3363 106.056 43.1121 105.955 42.8966C105.857 42.6809 105.714 42.5073 105.524 42.3756C105.335 42.2439 105.086 42.1877 104.777 42.207C104.573 42.2198 104.388 42.2754 104.222 42.3738C104.056 42.4689 103.918 42.6047 103.807 42.7812C103.696 42.9578 103.615 43.1699 103.565 43.4176C103.515 43.6653 103.502 43.9483 103.526 44.2664L103.541 44.4709C103.56 44.7209 103.611 44.9541 103.696 45.1706C103.784 45.3836 103.9 45.5687 104.046 45.726C104.195 45.883 104.368 46.0026 104.567 46.0848C104.769 46.1667 104.993 46.2 105.24 46.1846C105.559 46.1647 105.824 46.083 106.035 45.9393C106.246 45.7957 106.426 45.6099 106.576 45.3821L107.154 45.7814C107.053 45.9605 106.921 46.1335 106.757 46.3003C106.593 46.467 106.386 46.6071 106.137 46.7205C105.891 46.8337 105.594 46.9012 105.246 46.9229ZM111.163 38.9416L111.721 46.4208L110.819 46.4771L110.262 38.9979L111.163 38.9416ZM111.295 43.6003L110.919 43.6091C110.895 43.2486 110.924 42.9125 111.005 42.6009C111.086 42.286 111.212 42.009 111.384 41.77C111.555 41.531 111.766 41.3417 112.017 41.2022C112.271 41.0591 112.557 40.9777 112.875 40.9578C113.135 40.9416 113.372 40.9627 113.585 41.0211C113.798 41.0763 113.983 41.1756 114.141 41.319C114.302 41.4623 114.43 41.6532 114.526 41.8918C114.622 42.1271 114.683 42.4185 114.709 42.7658L114.966 46.2182L114.06 46.2748L113.802 42.8127C113.781 42.5368 113.724 42.3186 113.631 42.1581C113.537 41.9943 113.409 41.88 113.248 41.8151C113.086 41.7469 112.891 41.7199 112.664 41.7341C112.44 41.7481 112.239 41.808 112.06 41.9137C111.886 42.0192 111.738 42.1589 111.617 42.3327C111.499 42.5064 111.411 42.7027 111.352 42.9216C111.296 43.1371 111.277 43.3633 111.295 43.6003ZM118.512 46.0947C118.144 46.1176 117.807 46.0767 117.499 45.972C117.194 45.8639 116.925 45.7029 116.694 45.489C116.466 45.275 116.283 45.0157 116.147 44.7111C116.01 44.4066 115.927 44.0693 115.9 43.6992L115.885 43.4947C115.853 43.0662 115.888 42.6808 115.989 42.3386C116.091 41.9931 116.242 41.6966 116.442 41.4493C116.642 41.202 116.876 41.0097 117.143 40.8723C117.41 40.735 117.692 40.6571 117.987 40.6386C118.364 40.6151 118.694 40.6597 118.977 40.7725C119.263 40.8851 119.502 41.0528 119.695 41.2756C119.887 41.4951 120.038 41.7597 120.146 42.0693C120.253 42.3756 120.321 42.7139 120.348 43.0839L120.379 43.4881L116.441 43.7339L116.386 42.9987L119.422 42.8091L119.417 42.7409C119.387 42.508 119.321 42.2838 119.22 42.0684C119.122 41.8527 118.979 41.679 118.79 41.5473C118.6 41.4157 118.351 41.3595 118.043 41.3787C117.838 41.3915 117.653 41.4471 117.487 41.5455C117.321 41.6407 117.183 41.7765 117.072 41.953C116.961 42.1295 116.881 42.3416 116.831 42.5893C116.78 42.8371 116.767 43.12 116.791 43.4381L116.806 43.6426C116.825 43.8926 116.876 44.1258 116.961 44.3423C117.049 44.5553 117.165 44.7405 117.311 44.8977C117.46 45.0547 117.634 45.1744 117.832 45.2565C118.034 45.3385 118.259 45.3718 118.506 45.3564C118.824 45.3365 119.089 45.2547 119.3 45.1111C119.511 44.9674 119.692 44.7817 119.841 44.5538L120.419 44.9531C120.318 45.1323 120.186 45.3052 120.022 45.472C119.858 45.6388 119.652 45.7789 119.402 45.8923C119.156 46.0055 118.859 46.073 118.512 46.0947ZM122.179 41.3063L122.51 45.7472L121.609 45.8034L121.216 40.5349L122.093 40.4801L122.179 41.3063ZM123.763 40.3465L123.82 41.1843C123.744 41.1728 123.672 41.1675 123.604 41.1685C123.538 41.1661 123.463 41.1675 123.379 41.1728C123.171 41.1857 122.99 41.2297 122.835 41.3045C122.681 41.3794 122.553 41.4787 122.451 41.6025C122.349 41.7262 122.272 41.8713 122.219 42.0377C122.169 42.2006 122.142 42.3784 122.136 42.5711L121.894 42.733C121.87 42.4149 121.879 42.1143 121.92 41.8313C121.964 41.5481 122.045 41.2952 122.162 41.0726C122.279 40.8468 122.435 40.6675 122.631 40.5346C122.83 40.3982 123.072 40.3211 123.358 40.3033C123.423 40.2992 123.498 40.3027 123.584 40.3136C123.669 40.3213 123.729 40.3323 123.763 40.3465ZM127.089 45.5591C126.722 45.582 126.384 45.5412 126.076 45.4365C125.771 45.3283 125.503 45.1673 125.271 44.9535C125.043 44.7394 124.861 44.4801 124.724 44.1756C124.587 43.8711 124.504 43.5338 124.477 43.1637L124.462 42.9592C124.43 42.5307 124.465 42.1453 124.566 41.803C124.668 41.4575 124.819 41.1611 125.019 40.9138C125.219 40.6665 125.453 40.4741 125.72 40.3368C125.987 40.1994 126.269 40.1215 126.565 40.1031C126.941 40.0795 127.271 40.1242 127.554 40.237C127.84 40.3496 128.079 40.5173 128.272 40.74C128.464 40.9596 128.615 41.2241 128.723 41.5337C128.83 41.8401 128.898 42.1783 128.925 42.5484L128.956 42.9525L125.018 43.1984L124.963 42.4631L127.999 42.2736L127.994 42.2054C127.964 41.9725 127.898 41.7483 127.797 41.5328C127.699 41.3172 127.556 41.1435 127.367 41.0118C127.177 40.8801 126.928 40.8239 126.62 40.8432C126.415 40.856 126.23 40.9116 126.064 41.01C125.898 41.1051 125.76 41.2409 125.649 41.4175C125.538 41.594 125.458 41.8061 125.408 42.0538C125.357 42.3015 125.344 42.5845 125.368 42.9026L125.383 43.1071C125.402 43.3571 125.454 43.5903 125.538 43.8068C125.626 44.0198 125.742 44.2049 125.888 44.3622C126.037 44.5192 126.211 44.6388 126.409 44.721C126.611 44.803 126.836 44.8362 127.083 44.8208C127.401 44.8009 127.666 44.7192 127.877 44.5755C128.088 44.4319 128.269 44.2461 128.418 44.0183L128.996 44.4176C128.895 44.5967 128.763 44.7697 128.599 44.9365C128.435 45.1033 128.229 45.2433 127.979 45.3568C127.733 45.47 127.436 45.5374 127.089 45.5591ZM135.627 43.5241C135.618 43.3943 135.58 43.276 135.513 43.1693C135.449 43.0591 135.326 42.9641 135.144 42.8841C134.965 42.8007 134.699 42.7358 134.346 42.6894C134.049 42.6459 133.779 42.5894 133.535 42.5198C133.295 42.45 133.088 42.3603 132.913 42.2505C132.742 42.1405 132.606 42.0071 132.506 41.8503C132.406 41.6935 132.348 41.5063 132.332 41.2888C132.317 41.081 132.348 40.8818 132.425 40.6911C132.505 40.5002 132.625 40.328 132.783 40.1746C132.944 40.0211 133.142 39.8962 133.377 39.8C133.611 39.7039 133.876 39.6465 134.172 39.6281C134.594 39.6017 134.96 39.6539 135.27 39.7845C135.58 39.9152 135.824 40.1005 136.002 40.3405C136.18 40.5773 136.28 40.8466 136.302 41.1485L135.401 41.2048C135.39 41.0588 135.335 40.9203 135.238 40.7894C135.143 40.6551 135.009 40.5477 134.837 40.4671C134.667 40.3864 134.464 40.3534 134.227 40.3682C133.977 40.3838 133.777 40.4355 133.626 40.5231C133.479 40.6073 133.374 40.7101 133.312 40.8314C133.252 40.9525 133.227 41.078 133.237 41.2079C133.244 41.3052 133.267 41.3919 133.305 41.4678C133.347 41.5402 133.413 41.6061 133.506 41.6656C133.598 41.7218 133.726 41.7725 133.889 41.8177C134.053 41.863 134.26 41.9055 134.511 41.9453C134.95 42.0157 135.315 42.1103 135.604 42.2292C135.894 42.3481 136.114 42.5023 136.265 42.6918C136.417 42.8813 136.503 43.1173 136.524 43.3997C136.541 43.6302 136.508 43.8442 136.425 44.0418C136.345 44.2392 136.219 44.4134 136.048 44.5644C135.879 44.7119 135.673 44.8324 135.428 44.9259C135.187 45.016 134.912 45.0707 134.603 45.0899C134.139 45.1189 133.739 45.0607 133.405 44.9152C133.071 44.7698 132.812 44.5707 132.627 44.3181C132.441 44.0655 132.338 43.7931 132.316 43.501L133.222 43.4444C133.254 43.6903 133.34 43.8822 133.481 44.0202C133.621 44.1549 133.788 44.2472 133.981 44.2971C134.174 44.3438 134.363 44.3614 134.548 44.3498C134.795 44.3344 134.999 44.289 135.16 44.2138C135.324 44.1383 135.446 44.041 135.525 43.9219C135.604 43.8028 135.638 43.6702 135.627 43.5241ZM137.387 42.2305L137.378 42.1185C137.35 41.7387 137.379 41.383 137.465 41.0515C137.551 40.7167 137.689 40.4227 137.879 40.1695C138.069 39.9131 138.307 39.7091 138.593 39.5575C138.878 39.4027 139.204 39.3139 139.571 39.2909C139.942 39.2678 140.28 39.3152 140.586 39.4331C140.895 39.5475 141.162 39.72 141.388 39.9504C141.617 40.1775 141.799 40.4515 141.934 40.7724C142.069 41.0902 142.15 41.4389 142.178 41.8187L142.187 41.9307C142.215 42.3105 142.186 42.6662 142.1 42.9977C142.014 43.3292 141.874 43.6233 141.681 43.88C141.491 44.1332 141.253 44.3372 140.968 44.492C140.685 44.6433 140.359 44.7306 139.988 44.7537C139.618 44.7768 139.28 44.7311 138.974 44.6164C138.669 44.4985 138.401 44.3261 138.172 44.0991C137.946 43.8686 137.766 43.5945 137.631 43.2767C137.496 42.959 137.415 42.6103 137.387 42.2305ZM138.28 42.0622L138.288 42.1742C138.308 42.4371 138.357 42.6835 138.436 42.9134C138.515 43.14 138.623 43.3387 138.76 43.5096C138.9 43.6802 139.068 43.8116 139.264 43.9037C139.46 43.9926 139.683 44.0292 139.933 44.0136C140.18 43.9981 140.392 43.9343 140.57 43.8221C140.751 43.7065 140.896 43.5555 141.006 43.3693C141.116 43.183 141.194 42.9728 141.238 42.7384C141.286 42.5006 141.3 42.2503 141.28 41.9873L141.272 41.8753C141.253 41.6156 141.202 41.3726 141.12 41.1462C141.041 40.9163 140.931 40.716 140.791 40.5454C140.654 40.3713 140.487 40.2382 140.291 40.1461C140.098 40.0538 139.877 40.0155 139.627 40.0311C139.38 40.0465 139.166 40.112 138.985 40.2277C138.808 40.3431 138.662 40.4957 138.549 40.6854C138.439 40.8716 138.362 41.0835 138.318 41.3211C138.273 41.5555 138.26 41.8025 138.28 42.0622ZM147.426 43.6436L148.541 38.8287L149.506 38.7685L147.844 44.9823C147.805 45.1152 147.75 45.2589 147.68 45.4133C147.614 45.5707 147.524 45.7214 147.41 45.8655C147.297 46.0095 147.156 46.1292 146.987 46.2246C146.821 46.323 146.618 46.3797 146.377 46.3947C146.306 46.3992 146.214 46.3951 146.102 46.3825C145.99 46.37 145.911 46.3586 145.865 46.3485L145.806 45.6184C145.832 45.62 145.873 45.6207 145.928 45.6205C145.987 45.6233 146.028 45.624 146.051 45.6226C146.255 45.6098 146.427 45.5714 146.566 45.5073C146.705 45.4464 146.819 45.3496 146.907 45.217C146.998 45.0873 147.072 44.9115 147.127 44.6896L147.426 43.6436ZM145.997 38.9876L147.671 42.9923L147.976 43.9272L147.352 44.2988L145.012 39.049L145.997 38.9876ZM150.203 41.4302L150.195 41.3182C150.167 40.9384 150.196 40.5827 150.282 40.2512C150.368 39.9164 150.506 39.6225 150.696 39.3693C150.886 39.1128 151.124 38.9088 151.409 38.7573C151.695 38.6025 152.021 38.5136 152.388 38.4907C152.759 38.4676 153.097 38.5149 153.403 38.6328C153.711 38.7472 153.979 38.9197 154.205 39.1502C154.434 39.3772 154.616 39.6512 154.751 39.9722C154.885 40.2899 154.967 40.6387 154.995 41.0185L155.004 41.1305C155.032 41.5103 155.003 41.8659 154.917 42.1975C154.83 42.529 154.691 42.8231 154.498 43.0797C154.308 43.3329 154.07 43.5369 153.784 43.6917C153.502 43.8431 153.176 43.9303 152.805 43.9534C152.435 43.9766 152.097 43.9308 151.791 43.8162C151.485 43.6983 151.218 43.5258 150.989 43.2988C150.763 43.0683 150.582 42.7942 150.448 42.4765C150.313 42.1588 150.232 41.81 150.203 41.4302ZM151.097 41.2619L151.105 41.3739C151.125 41.6368 151.174 41.8833 151.253 42.1131C151.332 42.3398 151.44 42.5385 151.577 42.7093C151.717 42.8799 151.885 43.0113 152.081 43.1034C152.277 43.1923 152.5 43.2289 152.75 43.2133C152.997 43.1979 153.209 43.1341 153.387 43.0219C153.568 42.9062 153.713 42.7553 153.823 42.569C153.933 42.3828 154.011 42.1725 154.055 41.9382C154.103 41.7004 154.117 41.45 154.097 41.1871L154.089 41.0751C154.069 40.8154 154.019 40.5723 153.937 40.3459C153.857 40.116 153.748 39.9158 153.608 39.7451C153.471 39.5711 153.304 39.438 153.108 39.3459C152.915 39.2535 152.694 39.2152 152.443 39.2308C152.197 39.2462 151.983 39.3118 151.802 39.4274C151.625 39.5428 151.479 39.6954 151.366 39.8851C151.256 40.0714 151.179 40.2833 151.134 40.5209C151.09 40.7552 151.077 41.0022 151.097 41.2619ZM159.462 42.217L159.16 38.1657L160.066 38.1091L160.459 43.3777L159.596 43.4316L159.462 42.217ZM159.549 41.0961L159.924 41.063C159.95 41.4136 159.937 41.7405 159.884 42.0438C159.835 42.3437 159.737 42.6074 159.591 42.8351C159.445 43.0627 159.245 43.2464 158.991 43.3862C158.736 43.5228 158.421 43.6028 158.044 43.6263C157.787 43.6424 157.549 43.6197 157.329 43.5585C157.112 43.497 156.922 43.3931 156.757 43.2468C156.593 43.1005 156.459 42.9051 156.356 42.6604C156.256 42.4155 156.193 42.1177 156.167 41.7672L155.914 38.3684L156.816 38.3121L157.07 41.7206C157.087 41.9576 157.128 42.1523 157.192 42.3049C157.258 42.454 157.34 42.5712 157.438 42.6564C157.539 42.7382 157.647 42.7934 157.764 42.822C157.883 42.8504 158.005 42.8607 158.128 42.853C158.512 42.8291 158.81 42.7371 159.023 42.577C159.236 42.4137 159.382 42.204 159.461 41.948C159.543 41.6885 159.572 41.4045 159.549 41.0961ZM14.9983 67.5507L16.0301 63.1325L16.6247 63.0953L16.572 63.9645L15.5212 68.4573L14.9413 68.4936L14.9983 67.5507ZM13.764 63.2739L15.2456 67.5842L15.3945 68.4653L14.7853 68.5033L12.8625 63.3302L13.764 63.2739ZM18.245 67.3627L19.0224 62.9456L19.9191 62.8896L18.7814 68.2538L18.1771 68.2915L18.245 67.3627ZM16.7563 63.0871L18.3993 67.265L18.6255 68.2635L18.0504 68.2994L16.3032 63.9715L16.1227 63.1267L16.7563 63.0871ZM20.8069 65.5395L20.7985 65.4275C20.7702 65.0477 20.7992 64.692 20.8855 64.3605C20.9715 64.0257 21.1095 63.7317 21.2995 63.4785C21.4893 63.2221 21.7271 63.0181 22.0128 62.8665C22.2983 62.7117 22.6246 62.6229 22.9917 62.5999C23.3621 62.5768 23.7002 62.6242 24.006 62.7421C24.3148 62.8565 24.5823 63.029 24.8083 63.2595C25.0374 63.4865 25.2194 63.7605 25.3543 64.0815C25.4889 64.3992 25.5704 64.7479 25.5987 65.1278L25.6071 65.2397C25.6354 65.6196 25.6064 65.9752 25.5201 66.3067C25.4338 66.6383 25.2942 66.9323 25.1012 67.189C24.9111 67.4422 24.6734 67.6462 24.3879 67.801C24.1054 67.9523 23.779 68.0396 23.4086 68.0627C23.0382 68.0858 22.7003 68.0401 22.3947 67.9254C22.0889 67.8076 21.8214 67.6351 21.5924 67.4081C21.3663 67.1776 21.1859 66.9035 21.0513 66.5858C20.9166 66.268 20.8352 65.9193 20.8069 65.5395ZM21.7001 65.3712L21.7084 65.4832C21.728 65.7461 21.7774 65.9925 21.8565 66.2224C21.9354 66.449 22.0433 66.6478 22.18 66.8186C22.32 66.9892 22.4881 67.1206 22.6843 67.2127C22.8802 67.3016 23.1033 67.3382 23.3535 67.3226C23.6004 67.3072 23.8127 67.2433 23.9904 67.1312C24.171 67.0155 24.3165 66.8646 24.4266 66.6783C24.5368 66.4921 24.6141 66.2818 24.6587 66.0474C24.7062 65.8096 24.7202 65.5593 24.7006 65.2963L24.6923 65.1843C24.6729 64.9247 24.6222 64.6816 24.54 64.4552C24.4609 64.2253 24.3513 64.025 24.2113 63.8544C24.0743 63.6803 23.9077 63.5472 23.7115 63.4551C23.5186 63.3628 23.2971 63.3245 23.0469 63.3401C22.8 63.3555 22.5862 63.421 22.4055 63.5367C22.228 63.6521 22.0827 63.8047 21.9696 63.9944C21.8594 64.1806 21.7822 64.3925 21.7379 64.6301C21.6933 64.8645 21.6807 65.1115 21.7001 65.3712ZM27.5224 63.5449L27.8312 67.6887L26.9296 67.745L26.537 62.4764L27.3899 62.4232L27.5224 63.5449ZM27.4056 64.8682L27.0293 64.877C27.0057 64.5165 27.0345 64.1804 27.1157 63.8687C27.1967 63.5539 27.3229 63.2769 27.4944 63.0379C27.6659 62.7989 27.877 62.6096 28.1277 62.4701C28.3815 62.327 28.6675 62.2456 28.9859 62.2257C29.2458 62.2095 29.4824 62.2306 29.6957 62.289C29.9087 62.3442 30.094 62.4435 30.2515 62.5869C30.4123 62.7302 30.5408 62.9211 30.6369 63.1597C30.7328 63.395 30.7937 63.6864 30.8196 64.0337L31.0768 67.4861L30.1704 67.5427L29.9124 64.0806C29.8918 63.8047 29.8348 63.5865 29.7412 63.426C29.6474 63.2622 29.5198 63.1479 29.3583 63.083C29.1965 63.0148 29.0019 62.9878 28.7745 63.002C28.5503 63.016 28.3491 63.0759 28.171 63.1816C27.9961 63.2871 27.8482 63.4268 27.7273 63.6006C27.6097 63.7743 27.5215 63.9706 27.4627 64.1895C27.407 64.405 27.3879 64.6312 27.4056 64.8682ZM32.4103 59.8888L32.4568 60.512C32.4713 60.7068 32.4525 60.9151 32.4005 61.1368C32.3515 61.3551 32.2712 61.5689 32.1594 61.778C32.0475 61.984 31.9077 62.1672 31.7402 62.3277L31.1971 62.0045C31.3338 61.7807 31.4329 61.5544 31.4941 61.3255C31.5584 61.0932 31.5808 60.8456 31.5612 60.5826L31.5136 59.9447L32.4103 59.8888ZM35.8694 61.8937L35.921 62.5852L33.0701 62.7632L33.0185 62.0717L35.8694 61.8937ZM33.888 60.7309L34.7896 60.6746L35.1804 65.9188C35.1937 66.0974 35.2313 66.2303 35.2934 66.3178C35.3554 66.4052 35.4313 66.4608 35.5212 66.4846C35.6111 66.5083 35.7064 66.517 35.8071 66.5107C35.8818 66.5061 35.9593 66.4947 36.0396 66.4767C36.1229 66.4552 36.1852 66.4382 36.2267 66.4258L36.2864 67.1608C36.2166 67.188 36.124 67.215 36.0085 67.2417C35.8965 67.2716 35.7592 67.2916 35.5968 67.3017C35.3759 67.3155 35.1695 67.2843 34.9778 67.2083C34.7861 67.1322 34.6274 66.9953 34.5017 66.7977C34.379 66.5967 34.3046 66.3208 34.2785 65.9702L33.888 60.7309ZM41.1402 66.8577L40.2387 66.914L39.8047 61.0903C39.7764 60.7105 39.8208 60.3865 39.9379 60.1183C40.058 59.8466 40.2431 59.6361 40.4931 59.4868C40.7428 59.3342 41.0464 59.2468 41.4037 59.2245C41.5077 59.218 41.6122 59.218 41.7171 59.2245C41.8253 59.2308 41.9307 59.2438 42.0333 59.2635L42.0394 60.0018C41.97 59.9898 41.8911 59.9833 41.8029 59.9823C41.718 59.9811 41.6333 59.9831 41.5488 59.9884C41.3571 60.0003 41.1943 60.0496 41.0604 60.1363C40.9295 60.2194 40.8338 60.3363 40.7732 60.4869C40.7126 60.6374 40.6903 60.8198 40.7063 61.034L41.1402 66.8577ZM41.8685 61.5192L41.92 62.2106L39.0643 62.3889L39.0127 61.6975L41.8685 61.5192ZM42.8343 64.1641L42.8259 64.0521C42.7976 63.6723 42.8266 63.3167 42.9129 62.9851C42.9989 62.6504 43.1369 62.3564 43.327 62.1032C43.5167 61.8467 43.7545 61.6427 44.0402 61.4912C44.3257 61.3364 44.652 61.2475 45.0192 61.2246C45.3895 61.2015 45.7276 61.2488 46.0334 61.3667C46.3422 61.4812 46.6097 61.6536 46.8358 61.8841C47.0648 62.1111 47.2468 62.3851 47.3817 62.7061C47.5164 63.0238 47.5978 63.3726 47.6261 63.7524L47.6345 63.8644C47.6628 64.2442 47.6338 64.5999 47.5475 64.9314C47.4613 65.2629 47.3216 65.557 47.1286 65.8136C46.9385 66.0668 46.7008 66.2708 46.4153 66.4256C46.1328 66.577 45.8064 66.6642 45.436 66.6874C45.0656 66.7105 44.7277 66.6647 44.4221 66.5501C44.1163 66.4322 43.8489 66.2598 43.6198 66.0327C43.3937 65.8022 43.2134 65.5281 43.0787 65.2104C42.944 64.8927 42.8626 64.5439 42.8343 64.1641ZM43.7275 63.9958L43.7358 64.1078C43.7554 64.3708 43.8048 64.6172 43.8839 64.847C43.9628 65.0737 44.0707 65.2724 44.2074 65.4432C44.3475 65.6139 44.5155 65.7452 44.7117 65.8373C44.9077 65.9262 45.1307 65.9628 45.3809 65.9472C45.6278 65.9318 45.8401 65.868 46.0178 65.7558C46.1985 65.6402 46.3439 65.4892 46.454 65.303C46.5642 65.1167 46.6415 64.9064 46.6861 64.6721C46.7337 64.4343 46.7476 64.1839 46.7281 63.921L46.7197 63.809C46.7004 63.5493 46.6496 63.3062 46.5674 63.0798C46.4883 62.8499 46.3787 62.6497 46.2387 62.4791C46.1017 62.305 45.9351 62.1719 45.7389 62.0798C45.546 61.9875 45.3245 61.9491 45.0743 61.9647C44.8274 61.9801 44.6136 62.0457 44.4329 62.1613C44.2554 62.2768 44.1101 62.4293 43.997 62.619C43.8868 62.8053 43.8096 63.0172 43.7653 63.2548C43.7207 63.4891 43.7081 63.7361 43.7275 63.9958ZM49.5277 61.8726L49.8586 66.3134L48.9571 66.3697L48.5644 61.1011L49.4416 61.0463L49.5277 61.8726ZM51.111 60.9127L51.1685 61.7505C51.0926 61.739 51.0204 61.7337 50.9519 61.7347C50.8865 61.7323 50.8115 61.7337 50.727 61.739C50.5191 61.752 50.338 61.7959 50.1836 61.8707C50.0293 61.9456 49.9012 62.0449 49.7995 62.1687C49.6977 62.2924 49.6204 62.4375 49.5675 62.6039C49.5176 62.7668 49.4901 62.9446 49.4849 63.1374L49.2423 63.2993C49.2186 62.9811 49.2272 62.6806 49.2682 62.3975C49.3123 62.1143 49.393 61.8614 49.5103 61.6388C49.6273 61.413 49.7836 61.2337 49.9794 61.1008C50.1781 60.9644 50.4204 60.8874 50.7063 60.8695C50.7713 60.8654 50.8466 60.8689 50.9323 60.8799C51.0177 60.8876 51.0773 60.8985 51.111 60.9127ZM55.2653 60.6827L56.084 60.6316L56.4682 65.7882C56.5028 66.2524 56.4381 66.6543 56.2741 66.9939C56.1101 67.3336 55.8655 67.5983 55.5402 67.7882C55.2183 67.9812 54.8381 68.0913 54.3995 68.1187C54.2176 68.1301 54.001 68.1143 53.7497 68.0712C53.502 68.0313 53.2544 67.9505 53.0071 67.829C52.7632 67.7105 52.5533 67.5426 52.3771 67.3253L52.8099 66.7602C53.0507 67.0126 53.2951 67.1832 53.5433 67.2721C53.7947 67.3607 54.039 67.3977 54.2762 67.3828C54.5621 67.365 54.805 67.296 55.0049 67.1759C55.2049 67.0558 55.3538 66.8867 55.4518 66.6686C55.5533 66.4535 55.5927 66.1934 55.5699 65.8883L55.2688 61.8468L55.2653 60.6827ZM51.8353 63.6021L51.8277 63.4999C51.7977 63.0973 51.8176 62.7292 51.8874 62.3954C51.9601 62.0582 52.0771 61.7656 52.2381 61.5174C52.4024 61.2691 52.6081 61.0736 52.8553 60.931C53.1023 60.7851 53.3866 60.7021 53.7083 60.6821C54.0397 60.6614 54.3332 60.7018 54.5888 60.8032C54.8474 60.9012 55.0711 61.0552 55.2597 61.2652C55.4514 61.4717 55.609 61.726 55.7327 62.0281C55.8564 62.3302 55.9523 62.6749 56.0203 63.062L56.0537 63.5099C56.0467 63.8985 56.0028 64.2502 55.9218 64.5651C55.844 64.8797 55.7256 65.1513 55.5663 65.3797C55.4103 65.608 55.2116 65.7884 54.9702 65.9208C54.7285 66.0501 54.4403 66.1251 54.1057 66.146C53.7905 66.1657 53.4997 66.117 53.2331 66C52.9697 65.8827 52.7382 65.7096 52.5383 65.4808C52.3385 65.2519 52.1777 64.9782 52.0561 64.6597C51.9374 64.3377 51.8638 63.9852 51.8353 63.6021ZM52.7292 63.4436L52.7369 63.5458C52.7565 63.8088 52.8008 64.0538 52.87 64.2811C52.9424 64.5081 53.0404 64.7058 53.1639 64.8742C53.2907 65.0424 53.4455 65.1714 53.6284 65.261C53.8111 65.3475 54.0243 65.3831 54.268 65.3679C54.5669 65.3492 54.8091 65.2705 54.9946 65.1317C55.1801 64.9929 55.322 64.8161 55.4202 64.6013C55.5217 64.3862 55.5958 64.1549 55.6426 63.9074L55.5552 62.7339C55.5062 62.5576 55.4381 62.389 55.351 62.2281C55.267 62.0637 55.1616 61.9203 55.035 61.7978C54.9114 61.6718 54.7622 61.5751 54.5874 61.5077C54.4127 61.4404 54.2116 61.4138 53.9842 61.428C53.7373 61.4434 53.5283 61.5086 53.3574 61.6237C53.1895 61.7352 53.0553 61.8839 52.9549 62.0695C52.8575 62.2517 52.7899 62.4614 52.7521 62.6986C52.7173 62.9323 52.7096 63.1806 52.7292 63.4436ZM60.0414 65.7754C59.6742 65.7983 59.3366 65.7575 59.0285 65.6528C58.7235 65.5446 58.4552 65.3836 58.2239 65.1698C57.9958 64.9557 57.8133 64.6964 57.6763 64.3919C57.5394 64.0874 57.4571 63.7501 57.4296 63.38L57.4143 63.1755C57.3824 62.747 57.4173 62.3616 57.5191 62.0193C57.6207 61.6738 57.7716 61.3774 57.9718 61.1301C58.1721 60.8828 58.4058 60.6904 58.673 60.5531C58.9402 60.4157 59.2216 60.3378 59.5173 60.3194C59.8942 60.2958 60.2239 60.3405 60.5065 60.4533C60.7923 60.5659 61.0316 60.7336 61.2245 60.9563C61.4171 61.1759 61.5674 61.4404 61.6753 61.75C61.783 62.0564 61.8507 62.3946 61.8782 62.7647L61.9083 63.1688L57.9707 63.4147L57.9159 62.6794L60.952 62.4899L60.9469 62.4217C60.9165 62.1888 60.8508 61.9646 60.7499 61.7491C60.6522 61.5335 60.5087 61.3598 60.3194 61.2281C60.1301 61.0964 59.8811 61.0402 59.5724 61.0595C59.3678 61.0723 59.1826 61.1279 59.0169 61.2263C58.851 61.3214 58.7126 61.4572 58.6018 61.6338C58.4909 61.8103 58.4104 62.0224 58.3603 62.2701C58.3102 62.5178 58.297 62.8008 58.3208 63.1189L58.336 63.3234C58.3546 63.5734 58.4063 63.8066 58.4909 64.0231C58.5786 64.2361 58.6952 64.4212 58.8408 64.5785C58.9896 64.7355 59.1633 64.8551 59.362 64.9373C59.564 65.0193 59.7884 65.0525 60.0353 65.0371C60.3537 65.0172 60.6185 64.9355 60.8298 64.7918C61.041 64.6482 61.2214 64.4624 61.3709 64.2346L61.949 64.6339C61.8481 64.813 61.7157 64.986 61.5519 65.1528C61.3881 65.3196 61.1815 65.4596 60.932 65.5731C60.6859 65.6863 60.389 65.7537 60.0414 65.7754ZM64.9534 60.0778L65.0049 60.7692L62.1541 60.9472L62.1025 60.2558L64.9534 60.0778ZM62.972 58.9149L63.8736 58.8586L64.2644 64.1029C64.2777 64.2814 64.3153 64.4144 64.3773 64.5018C64.4393 64.5893 64.5153 64.6449 64.6052 64.6686C64.6951 64.6924 64.7904 64.7011 64.8911 64.6948C64.9658 64.6901 65.0433 64.6788 65.1236 64.6607C65.2068 64.6392 65.2692 64.6223 65.3107 64.6099L65.3704 65.3449C65.3006 65.372 65.208 65.399 65.0925 65.4258C64.9804 65.4556 64.8432 65.4756 64.6808 65.4858C64.4598 65.4995 64.2535 65.4684 64.0618 65.3923C63.8701 65.3162 63.7114 65.1794 63.5857 64.9818C63.463 64.7807 63.3886 64.5049 63.3624 64.1543L62.972 58.9149ZM71.9212 64.0308L71.7191 61.3186C71.7037 61.1109 71.648 60.9333 71.5522 60.786C71.4593 60.6353 71.3269 60.5229 71.1549 60.4488C70.9829 60.3748 70.7751 60.3453 70.5315 60.3606C70.304 60.3748 70.1071 60.4262 69.9407 60.5149C69.7776 60.6033 69.652 60.7139 69.564 60.8466C69.4792 60.9791 69.4423 61.1183 69.4531 61.2644L68.5516 61.3207C68.5375 61.1324 68.5724 60.9427 68.6561 60.7516C68.7397 60.5605 68.867 60.3846 69.0378 60.2239C69.2116 60.0598 69.4236 59.9259 69.6737 59.8222C69.9268 59.7151 70.2126 59.6516 70.531 59.6317C70.9144 59.6077 71.2571 59.6516 71.5592 59.7632C71.8645 59.8746 72.1098 60.0566 72.2951 60.3091C72.4834 60.5583 72.5922 60.8793 72.6214 61.2721L72.8043 63.7262C72.8174 63.9015 72.8459 64.0872 72.8899 64.2834C72.9371 64.4794 72.9969 64.6469 73.0693 64.7859L73.0751 64.8638L72.1346 64.9225C72.0813 64.8215 72.0353 64.6857 71.9965 64.5153C71.9575 64.3416 71.9324 64.1801 71.9212 64.0308ZM71.9063 61.7276L71.9632 62.36L71.0519 62.4169C70.7952 62.433 70.5678 62.4684 70.3695 62.5231C70.1709 62.5747 70.0065 62.6453 69.8761 62.735C69.7457 62.8246 69.6493 62.9334 69.587 63.0612C69.5245 63.1858 69.4993 63.3292 69.5114 63.4915C69.5237 63.6571 69.5723 63.8057 69.6572 63.9374C69.7421 64.069 69.8623 64.1708 70.0178 64.2426C70.1763 64.311 70.366 64.3383 70.5869 64.3245C70.8631 64.3072 71.1024 64.2336 71.3049 64.1035C71.5073 63.9735 71.664 63.8202 71.7749 63.6437C71.889 63.467 71.945 63.2988 71.9429 63.1391L72.3602 63.5485C72.3476 63.6862 72.2971 63.841 72.2088 64.0129C72.1204 64.1847 71.9974 64.3522 71.8398 64.5153C71.6853 64.675 71.4964 64.8123 71.2732 64.9274C71.0531 65.039 70.8 65.1037 70.5141 65.1215C70.1568 65.1438 69.838 65.0936 69.558 64.9709C69.2812 64.8479 69.0593 64.6742 68.8925 64.4498C68.7286 64.222 68.6358 63.962 68.614 63.6698C68.593 63.3874 68.6297 63.1356 68.7242 62.9145C68.8185 62.6901 68.9642 62.5 69.1615 62.3442C69.3586 62.1851 69.6005 62.0591 69.8873 61.9662C70.1742 61.8733 70.4979 61.8156 70.8585 61.7931L71.9063 61.7276ZM73.7459 57.3078L74.6523 57.2512L75.1334 63.708L75.1317 64.7354L74.3032 64.7871L73.7459 57.3078ZM78.5725 61.83L78.5801 61.9322C78.6086 62.3153 78.5896 62.6736 78.5231 63.0071C78.4563 63.3374 78.3442 63.6282 78.1866 63.8793C78.0291 64.1305 77.8286 64.3305 77.5851 64.4795C77.3416 64.6284 77.0558 64.7131 76.7276 64.7336C76.393 64.7545 76.0947 64.716 75.8329 64.6182C75.574 64.517 75.3503 64.363 75.1619 64.1562C74.9735 63.9495 74.8159 63.6952 74.6889 63.3933C74.5652 63.0912 74.4695 62.7482 74.4017 62.3643L74.3683 61.9163C74.3783 61.5244 74.4222 61.171 74.4999 60.8564C74.5809 60.5415 74.6994 60.2699 74.8553 60.0417C75.0111 59.8102 75.2098 59.6298 75.4515 59.5006C75.6929 59.3681 75.9794 59.2915 76.3108 59.2708C76.6421 59.2501 76.941 59.2967 77.2073 59.4105C77.4734 59.5211 77.7014 59.6895 77.8913 59.9157C78.0844 60.1417 78.2387 60.4175 78.3544 60.7429C78.4698 61.0651 78.5425 61.4274 78.5725 61.83ZM77.6736 61.9888L77.666 61.8866C77.6464 61.6236 77.6037 61.3784 77.5378 61.151C77.4716 60.9203 77.3784 60.7207 77.2581 60.5521C77.1376 60.3802 76.9859 60.2494 76.803 60.1598C76.6198 60.0668 76.3998 60.0284 76.1432 60.0444C75.9158 60.0586 75.7205 60.1099 75.5574 60.1984C75.3975 60.2867 75.264 60.401 75.157 60.5414C75.0497 60.6785 74.965 60.8338 74.9028 61.0073C74.8437 61.1773 74.8029 61.3527 74.7805 61.5335L74.8679 62.707C74.9368 62.931 75.0376 63.1448 75.1703 63.3485C75.306 63.5488 75.4779 63.7093 75.686 63.83C75.8973 63.9505 76.1508 64.0015 76.4465 63.9831C76.6901 63.9679 76.8944 63.9062 77.0594 63.7981C77.2273 63.6865 77.3584 63.5397 77.4525 63.3577C77.5499 63.1755 77.616 62.9675 77.6508 62.7338C77.6856 62.5001 77.6932 62.2518 77.6736 61.9888ZM79.4817 61.8759L79.4733 61.7639C79.445 61.3841 79.474 61.0285 79.5603 60.6969C79.6463 60.3622 79.7843 60.0682 79.9743 59.815C80.1641 59.5585 80.4019 59.3545 80.6876 59.203C80.9731 59.0482 81.2994 58.9593 81.6665 58.9364C82.0369 58.9133 82.375 58.9607 82.6808 59.0785C82.9896 59.193 83.2571 59.3654 83.4831 59.5959C83.7122 59.8229 83.8942 60.0969 84.0291 60.4179C84.1637 60.7356 84.2452 61.0844 84.2735 61.4642L84.2819 61.5762C84.3102 61.956 84.2812 62.3117 84.1949 62.6432C84.1086 62.9747 83.969 63.2688 83.776 63.5254C83.5859 63.7786 83.3482 63.9826 83.0627 64.1374C82.7802 64.2888 82.4538 64.376 82.0834 64.3992C81.713 64.4223 81.3751 64.3765 81.0695 64.2619C80.7637 64.144 80.4962 63.9716 80.2672 63.7445C80.0411 63.514 79.8607 63.2399 79.7261 62.9222C79.5914 62.6045 79.51 62.2557 79.4817 61.8759ZM80.3749 61.7076L80.3832 61.8196C80.4028 62.0826 80.4522 62.329 80.5313 62.5589C80.6102 62.7855 80.7181 62.9842 80.8548 63.155C80.9948 63.3257 81.1629 63.457 81.3591 63.5492C81.555 63.638 81.7781 63.6746 82.0283 63.659C82.2752 63.6436 82.4875 63.5798 82.6652 63.4676C82.8458 63.352 82.9913 63.201 83.1014 63.0148C83.2116 62.8285 83.2889 62.6182 83.3335 62.3839C83.381 62.1461 83.395 61.8957 83.3754 61.6328L83.3671 61.5208C83.3477 61.2611 83.297 61.0181 83.2148 60.7916C83.1357 60.5618 83.0261 60.3615 82.8861 60.1909C82.7491 60.0168 82.5825 59.8837 82.3863 59.7916C82.1934 59.6993 81.9719 59.6609 81.7217 59.6765C81.4748 59.692 81.261 59.7575 81.0803 59.8731C80.9028 59.9886 80.7575 60.1411 80.6444 60.3308C80.5342 60.5171 80.457 60.729 80.4127 60.9666C80.3681 61.2009 80.3555 61.4479 80.3749 61.7076ZM88.7399 62.6627L88.438 58.6114L89.3444 58.5549L89.737 63.8234L88.8744 63.8773L88.7399 62.6627ZM88.8277 61.5419L89.2022 61.5087C89.2283 61.8593 89.2152 62.1862 89.1627 62.4896C89.1132 62.7894 89.0154 63.0532 88.8692 63.2808C88.7229 63.5085 88.5228 63.6922 88.2688 63.832C88.0146 63.9685 87.6991 64.0485 87.3222 64.0721C87.0656 64.0881 86.8272 64.0655 86.6073 64.0042C86.3905 63.9427 86.2 63.8388 86.0357 63.6925C85.8714 63.5463 85.7377 63.3508 85.6346 63.1061C85.5347 62.8612 85.4717 62.5635 85.4456 62.2129L85.1923 58.8141L86.0939 58.7578L86.3479 62.1663C86.3656 62.4033 86.4062 62.5981 86.4698 62.7506C86.5364 62.8998 86.6185 63.0169 86.7163 63.1022C86.817 63.1839 86.9256 63.2391 87.042 63.2677C87.1616 63.2961 87.2831 63.3065 87.4066 63.2988C87.79 63.2748 88.0883 63.1828 88.3016 63.0227C88.5146 62.8594 88.6606 62.6497 88.7394 62.3937C88.8212 62.1342 88.8507 61.8503 88.8277 61.5419ZM92.9263 58.3312L92.9778 59.0226L90.1269 59.2007L90.0754 58.5092L92.9263 58.3312ZM90.9449 57.1683L91.8465 57.112L92.2372 62.3563C92.2506 62.5348 92.2882 62.6678 92.3502 62.7553C92.4122 62.8427 92.4882 62.8983 92.5781 62.922C92.668 62.9458 92.7633 62.9545 92.864 62.9482C92.9387 62.9436 93.0162 62.9322 93.0964 62.9141C93.1797 62.8926 93.2421 62.8757 93.2836 62.8633L93.3433 63.5983C93.2735 63.6255 93.1808 63.6524 93.0653 63.6792C92.9533 63.7091 92.8161 63.729 92.6536 63.7392C92.4327 63.753 92.2264 63.7218 92.0347 63.6457C91.843 63.5697 91.6843 63.4328 91.5586 63.2352C91.4359 63.0341 91.3614 62.7583 91.3353 62.4077L90.9449 57.1683ZM98.0558 63.304L97.1542 63.3603L96.7275 57.634C96.6977 57.2347 96.7506 56.8923 96.8859 56.6066C97.0213 56.3209 97.2283 56.0977 97.5068 55.9368C97.7853 55.7759 98.1227 55.6831 98.5191 55.6583C98.753 55.6437 98.9842 55.6586 99.2127 55.7031C99.441 55.7443 99.6769 55.7996 99.9204 55.8692L99.8259 56.6383C99.6721 56.5892 99.4942 56.5448 99.2921 56.5053C99.0931 56.4623 98.8766 56.4481 98.6427 56.4627C98.256 56.4868 97.9832 56.5919 97.824 56.7779C97.6679 56.9605 97.6029 57.2271 97.6291 57.5777L98.0558 63.304ZM98.7402 57.9682L98.7917 58.6596L95.9798 58.8352L95.9283 58.1438L98.7402 57.9682ZM100.514 57.8574L100.907 63.126L100.005 63.1823L99.6125 57.9137L100.514 57.8574ZM102.605 57.7269L103.903 59.5733L104.929 57.5818L105.987 57.5157L104.455 60.2237L106.433 62.781L105.39 62.8461L104.024 60.9452L102.953 62.9982L101.906 63.0637L103.481 60.2845L101.567 57.7917L102.605 57.7269ZM107.926 57.3946L108.319 62.6632L107.413 62.7198L107.02 57.4512L107.926 57.3946ZM106.848 56.058C106.837 55.9119 106.871 55.7858 106.952 55.6797C107.035 55.5734 107.165 55.5148 107.34 55.5038C107.512 55.4931 107.647 55.5352 107.746 55.6301C107.848 55.7249 107.904 55.8453 107.915 55.9914C107.925 56.1309 107.887 56.254 107.8 56.3605C107.717 56.4636 107.589 56.5205 107.417 56.5312C107.241 56.5422 107.104 56.5018 107.006 56.4101C106.911 56.315 106.858 56.1976 106.848 56.058ZM110.359 58.3728L110.668 62.5166L109.766 62.5729L109.374 57.3043L110.227 57.251L110.359 58.3728ZM110.242 59.696L109.866 59.7048C109.842 59.3443 109.871 59.0082 109.952 58.6966C110.033 58.3817 110.16 58.1048 110.331 57.8658C110.503 57.6268 110.714 57.4375 110.964 57.2979C111.218 57.1549 111.504 57.0734 111.823 57.0535C112.083 57.0373 112.319 57.0584 112.532 57.1168C112.745 57.172 112.931 57.2713 113.088 57.4148C113.249 57.558 113.378 57.7489 113.474 57.9875C113.57 58.2229 113.63 58.5142 113.656 58.8616L113.914 62.3139L113.007 62.3705L112.749 58.9084C112.729 58.6325 112.672 58.4143 112.578 58.2538C112.484 58.0901 112.356 57.9757 112.195 57.9108C112.033 57.8426 111.839 57.8157 111.611 57.8299C111.387 57.8439 111.186 57.9037 111.008 58.0094C110.833 58.1149 110.685 58.2546 110.564 58.4285C110.446 58.6021 110.358 58.7984 110.299 59.0174C110.244 59.2328 110.225 59.459 110.242 59.696ZM118.307 56.7465L119.125 56.6954L119.51 61.852C119.544 62.3162 119.479 62.7181 119.315 63.0578C119.151 63.3974 118.907 63.6622 118.581 63.8521C118.26 64.045 117.879 64.1552 117.441 64.1825C117.259 64.1939 117.042 64.1781 116.791 64.1351C116.543 64.0951 116.296 64.0143 116.048 63.8928C115.805 63.7743 115.595 63.6064 115.418 63.3891L115.851 62.824C116.092 63.0764 116.336 63.247 116.585 63.3359C116.836 63.4245 117.08 63.4615 117.317 63.4467C117.603 63.4288 117.846 63.3598 118.046 63.2397C118.246 63.1196 118.395 62.9505 118.493 62.7324C118.595 62.5174 118.634 62.2573 118.611 61.9521L118.31 57.9106L118.307 56.7465ZM114.877 59.6659L114.869 59.5637C114.839 59.1611 114.859 58.793 114.929 58.4593C115.001 58.1221 115.118 57.8294 115.279 57.5813C115.444 57.3329 115.649 57.1374 115.897 56.9948C116.144 56.8489 116.428 56.766 116.75 56.7459C117.081 56.7252 117.374 56.7656 117.63 56.867C117.889 56.965 118.112 57.119 118.301 57.329C118.493 57.5355 118.65 57.7899 118.774 58.092C118.898 58.3941 118.994 58.7387 119.062 59.1258L119.095 59.5738C119.088 59.9623 119.044 60.314 118.963 60.6289C118.885 60.9436 118.767 61.2151 118.608 61.4436C118.452 61.6718 118.253 61.8522 118.011 61.9847C117.77 62.1139 117.482 62.189 117.147 62.2099C116.832 62.2295 116.541 62.1808 116.274 62.0638C116.011 61.9465 115.779 61.7734 115.58 61.5446C115.38 61.3157 115.219 61.042 115.097 60.7235C114.979 60.4015 114.905 60.049 114.877 59.6659ZM115.771 59.5074L115.778 59.6096C115.798 59.8726 115.842 60.1177 115.911 60.3449C115.984 60.5719 116.082 60.7697 116.205 60.9381C116.332 61.1062 116.487 61.2352 116.67 61.3249C116.852 61.4113 117.066 61.4469 117.309 61.4317C117.608 61.413 117.85 61.3343 118.036 61.1955C118.221 61.0568 118.363 60.8799 118.461 60.6651C118.563 60.45 118.637 60.2187 118.684 59.9712L118.596 58.7977C118.547 58.6214 118.479 58.4528 118.392 58.2919C118.308 58.1276 118.203 57.9841 118.076 57.8616C117.953 57.7356 117.803 57.6389 117.629 57.5715C117.454 57.5042 117.253 57.4776 117.025 57.4918C116.779 57.5072 116.57 57.5724 116.399 57.6875C116.231 57.7991 116.097 57.9477 115.996 58.1333C115.899 58.3155 115.831 58.5252 115.793 58.7624C115.759 58.9961 115.751 59.2444 115.771 59.5074ZM123.95 56.3942L124.342 61.6627L123.436 61.7193L123.043 56.4508L123.95 56.3942ZM122.871 55.0575C122.86 54.9114 122.895 54.7853 122.975 54.6792C123.059 54.5729 123.188 54.5143 123.363 54.5033C123.536 54.4926 123.671 54.5347 123.769 54.6296C123.871 54.7244 123.927 54.8448 123.938 54.9909C123.949 55.1305 123.911 55.2535 123.824 55.36C123.74 55.4631 123.612 55.52 123.44 55.5308C123.265 55.5417 123.128 55.5013 123.029 55.4096C122.934 55.3145 122.881 55.1971 122.871 55.0575ZM127.605 56.1659L127.656 56.8574L124.805 57.0354L124.754 56.3439L127.605 56.1659ZM125.623 55.0031L126.525 54.9468L126.916 60.191C126.929 60.3696 126.967 60.5026 127.029 60.59C127.091 60.6775 127.167 60.733 127.257 60.7568C127.347 60.7805 127.442 60.7892 127.543 60.783C127.617 60.7783 127.695 60.7669 127.775 60.7489C127.858 60.7274 127.921 60.7104 127.962 60.6981L128.022 61.433C127.952 61.4602 127.859 61.4872 127.744 61.514C127.632 61.5438 127.495 61.5638 127.332 61.5739C127.111 61.5877 126.905 61.5566 126.713 61.4805C126.522 61.4044 126.363 61.2675 126.237 61.0699C126.114 60.8689 126.04 60.593 126.014 60.2425L125.623 55.0031ZM129.034 60.8904C129.023 60.7378 129.06 60.6067 129.147 60.4969C129.236 60.3837 129.372 60.3214 129.554 60.31C129.736 60.2987 129.878 60.3436 129.98 60.4449C130.085 60.5427 130.144 60.6678 130.155 60.8204C130.166 60.9697 130.127 61.0994 130.037 61.2094C129.951 61.3191 129.816 61.3797 129.634 61.391C129.452 61.4024 129.309 61.3592 129.204 61.2614C129.102 61.1634 129.045 61.0397 129.034 60.8904Z" fill="black"/>
</g>
<defs>
<filter id="filter0_d_108_16" x="0" y="0" width="191.981" height="108.821" filterUnits="userSpaceOnUse" color-interpolation-filters="sRGB">
<feFlood flood-opacity="0" result="BackgroundImageFix"/>
<feColorMatrix in="SourceAlpha" type="matrix" values="0 0 0 0 0 0 0 0 0 0 0 0 0 0 0 0 0 0 127 0" result="hardAlpha"/>
<feOffset dy="3"/>
<feGaussianBlur stdDeviation="2"/>
<feColorMatrix type="matrix" values="0 0 0 0 0 0 0 0 0 0 0 0 0 0 0 0 0 0 0.5 0"/>
<feBlend mode="normal" in2="BackgroundImageFix" result="effect1_dropShadow_108_16"/>
<feBlend mode="normal" in="SourceGraphic" in2="effect1_dropShadow_108_16" result="shape"/>
</filter>
</defs>
</svg>
